STARTFONT 2.1
COMMENT
COMMENT Converted from OpenType font "Q:\font stuff\winfont\Ravebold.ttf" by "otf2bdf 3.0".
COMMENT
FONT -FreeType-RaveParty Bold-Medium-R-Normal--179-1800-72-72-P-992-ISO10646-1
SIZE 180 72 72
FONTBOUNDINGBOX 268 240 -13 -41
STARTPROPERTIES 19
FOUNDRY "FreeType"
FAMILY_NAME "RaveParty Bold"
WEIGHT_NAME "Medium"
SLANT "R"
SETWIDTH_NAME "Normal"
ADD_STYLE_NAME ""
PIXEL_SIZE 179
POINT_SIZE 1800
RESOLUTION_X 72
RESOLUTION_Y 72
SPACING "P"
AVERAGE_WIDTH 992
CHARSET_REGISTRY "ISO10646"
CHARSET_ENCODING "1"
FONT_ASCENT 190
FONT_DESCENT 36
COPYRIGHT "Copyright (c) Three Mile Island - You puke em, we nuke em,, 2002. All rights reserved."
_OTF_FONTFILE "Q:\font stuff\winfont\Ravebold.ttf"
_OTF_PSNAME "RavePartyBold"
ENDPROPERTIES
CHARS 221
STARTCHAR 0020
ENCODING 32
SWIDTH 494 0
DWIDTH 89 0
BBX 0 0 0 0
BITMAP
ENDCHAR
STARTCHAR 0021
ENCODING 33
SWIDTH 205 0
DWIDTH 37 0
BBX 20 153 8 -4
BITMAP
FFFFF0
FFFFF0
FFFFF0
FFFFF0
FFFFF0
FFFFF0
FFFFF0
FFFFF0
FFFFF0
FFFFF0
FFFFF0
FFFFF0
FFFFF0
FFFFF0
FFFFF0
FFFFF0
FFFFF0
FFFFF0
FFFFF0
FFFFF0
FFFFF0
FFFFF0
FFFFF0
FFFFF0
FFFFF0
FFFFF0
FFFFF0
FFFFF0
FFFFF0
FFFFF0
FFFFF0
FFFFF0
FFFFF0
FFFFF0
FFFFF0
FFFFF0
FFFFF0
FFFFF0
FFFFF0
FFFFF0
FFFFF0
FFFFF0
FFFFF0
FFFFF0
FFFFF0
FFFFF0
FFFFF0
FFFFF0
FFFFF0
FFFFF0
FFFFF0
FFFFF0
FFFFF0
FFFFF0
FFFFF0
FFFFF0
FFFFF0
FFFFF0
FFFFF0
FFFFF0
FFFFF0
FFFFF0
FFFFF0
FFFFF0
FFFFF0
FFFFF0
FFFFF0
FFFFF0
FFFFF0
FFFFF0
FFFFF0
FFFFF0
FFFFF0
FFFFF0
FFFFF0
FFFFF0
FFFFF0
FFFFF0
FFFFF0
FFFFF0
FFFFF0
FFFFF0
FFFFF0
FFFFF0
FFFFF0
FFFFF0
FFFFF0
FFFFF0
FFFFF0
FFFFF0
FFFFF0
FFFFF0
FFFFF0
FFFFF0
FFFFF0
FFFFF0
FFFFF0
FFFFF0
FFFFF0
FFFFF0
FFFFF0
FFFFF0
FFFFF0
FFFFF0
FFFFF0
FFFFF0
FFFFF0
FFFFF0
FFFFF0
FFFFF0
FFFFF0
FFFFF0
FFFFF0
FFFFF0
FFFFF0
FFFFF0
FFFFF0
FFFFF0
FFFFF0
FFFFF0
FFFFF0
FFFFF0
FFFFF0
FFFFF0
FFFFF0
FFFFF0
FFFFF0
000000
000000
000000
000000
000000
000000
000000
FFFFF0
FFFFF0
FFFFF0
FFFFF0
FFFFF0
FFFFF0
FFFFF0
FFFFF0
FFFFF0
FFFFF0
FFFFF0
FFFFF0
FFFFF0
FFFFF0
FFFFF0
FFFFF0
FFFFF0
FFFFF0
FFFFF0
ENDCHAR
STARTCHAR 0022
ENCODING 34
SWIDTH 300 0
DWIDTH 54 0
BBX 46 41 4 108
BITMAP
FFFFF87FFFFC
FFFFF87FFFFC
FFFFF87FFFFC
FFFFF87FFFFC
FFFFF87FFFFC
FFFFF87FFFFC
FFFFF87FFFFC
FFFFF87FFFFC
FFFFF87FFFFC
FFFFF87FFFFC
FFFFF87FFFFC
FFFFF87FFFFC
FFFFF87FFFFC
FFFFF87FFFFC
FFFFF87FFFFC
FFFFF87FFFFC
FFFFF87FFFFC
FFFFF87FFFFC
FFFFF87FFFFC
FFFFF87FFFFC
FFFFF87FFFFC
FFFFF87FFFFC
FFFFF87FFFFC
FFFFF87FFFFC
FFFFF87FFFFC
FFFFF87FFFFC
FFFFF87FFFFC
FFFFF87FFFFC
FFFFF87FFFFC
FFFFF87FFFFC
FFFFF87FFFFC
FFFFF87FFFFC
FFFFF87FFFFC
FFFFF87FFFFC
FFFFF87FFFFC
FFFFF87FFFFC
FFFFF87FFFFC
FFFFF87FFFFC
FFFFF87FFFFC
FFFFF87FFFFC
FFFFF87FFFFC
ENDCHAR
STARTCHAR 0023
ENCODING 35
SWIDTH 527 0
DWIDTH 95 0
BBX 87 104 4 20
BITMAP
00007FFFFC007FFFFC0000
00007FFFFC007FFFFC0000
00007FFFFC007FFFFC0000
00007FFFFC007FFFFC0000
00007FFFFC007FFFFC0000
00007FFFFC007FFFFC0000
00007FFFFC007FFFFC0000
00007FFFFC007FFFFC0000
00007FFFFC007FFFFC0000
00007FFFFC007FFFFC0000
00007FFFFC007FFFFC0000
00007FFFFC007FFFFC0000
00007FFFFC007FFFFC0000
00007FFFFC007FFFFC0000
00007FFFFC007FFFFC0000
00007FFFFC007FFFFC0000
00007FFFFC007FFFFC0000
00007FFFFC007FFFFC0000
00007FFFFC007FFFFC0000
00007FFFFC007FFFFC0000
00007FFFFC007FFFFC0000
00007FFFFC007FFFFC0000
00007FFFFC007FFFFC0000
00007FFFFC007FFFFC0000
00007FFFFC007FFFFC0000
00007FFFFC007FFFFC0000
FFFFFFFFFFFFFFFFFFFFFE
FFFFFFFFFFFFFFFFFFFFFE
FFFFFFFFFFFFFFFFFFFFFE
FFFFFFFFFFFFFFFFFFFFFE
FFFFFFFFFFFFFFFFFFFFFE
FFFFFFFFFFFFFFFFFFFFFE
FFFFFFFFFFFFFFFFFFFFFE
FFFFFFFFFFFFFFFFFFFFFE
FFFFFFFFFFFFFFFFFFFFFE
FFFFFFFFFFFFFFFFFFFFFE
FFFFFFFFFFFFFFFFFFFFFE
FFFFFFFFFFFFFFFFFFFFFE
FFFFFFFFFFFFFFFFFFFFFE
FFFFFFFFFFFFFFFFFFFFFE
FFFFFFFFFFFFFFFFFFFFFE
FFFFFFFFFFFFFFFFFFFFFE
FFFFFFFFFFFFFFFFFFFFFE
FFFFFFFFFFFFFFFFFFFFFE
FFFFFFFFFFFFFFFFFFFFFE
FFFFFFFFFFFFFFFFFFFFFE
00007FFFFC007FFFFC0000
00007FFFFC007FFFFC0000
00007FFFFC007FFFFC0000
00007FFFFC007FFFFC0000
00007FFFFC007FFFFC0000
00007FFFFC007FFFFC0000
00007FFFFC007FFFFC0000
00007FFFFC007FFFFC0000
00007FFFFC007FFFFC0000
00007FFFFC007FFFFC0000
00007FFFFC007FFFFC0000
00007FFFFC007FFFFC0000
00007FFFFC007FFFFC0000
FFFFFFFFFFFFFFFFFFFFFE
FFFFFFFFFFFFFFFFFFFFFE
FFFFFFFFFFFFFFFFFFFFFE
FFFFFFFFFFFFFFFFFFFFFE
FFFFFFFFFFFFFFFFFFFFFE
FFFFFFFFFFFFFFFFFFFFFE
FFFFFFFFFFFFFFFFFFFFFE
FFFFFFFFFFFFFFFFFFFFFE
FFFFFFFFFFFFFFFFFFFFFE
FFFFFFFFFFFFFFFFFFFFFE
FFFFFFFFFFFFFFFFFFFFFE
FFFFFFFFFFFFFFFFFFFFFE
FFFFFFFFFFFFFFFFFFFFFE
FFFFFFFFFFFFFFFFFFFFFE
FFFFFFFFFFFFFFFFFFFFFE
FFFFFFFFFFFFFFFFFFFFFE
FFFFFFFFFFFFFFFFFFFFFE
FFFFFFFFFFFFFFFFFFFFFE
FFFFFFFFFFFFFFFFFFFFFE
FFFFFFFFFFFFFFFFFFFFFE
00007FFFFC007FFFFC0000
00007FFFFC007FFFFC0000
00007FFFFC007FFFFC0000
00007FFFFC007FFFFC0000
00007FFFFC007FFFFC0000
00007FFFFC007FFFFC0000
00007FFFFC007FFFFC0000
00007FFFFC007FFFFC0000
00007FFFFC007FFFFC0000
00007FFFFC007FFFFC0000
00007FFFFC007FFFFC0000
00007FFFFC007FFFFC0000
00007FFFFC007FFFFC0000
00007FFFFC007FFFFC0000
00007FFFFC007FFFFC0000
00007FFFFC007FFFFC0000
00007FFFFC007FFFFC0000
00007FFFFC007FFFFC0000
00007FFFFC007FFFFC0000
00007FFFFC007FFFFC0000
00007FFFFC007FFFFC0000
00007FFFFC007FFFFC0000
00007FFFFC007FFFFC0000
00007FFFFC007FFFFC0000
00007FFFFC007FFFFC0000
ENDCHAR
STARTCHAR 0024
ENCODING 36
SWIDTH 672 0
DWIDTH 121 0
BBX 113 154 4 -5
BITMAP
000000000001FFFFF0000000000000
000000000001FFFFF0000000000000
000000000001FFFFF0000000000000
000000000001FFFFF0000000000000
000000000001FFFFF0000000000000
000000000001FFFFF0000000000000
000000000001FFFFF0000000000000
000000000001FFFFF0000000000000
000000000001FFFFF0000000000000
000000000001FFFFF0000000000000
000000000001FFFFF0000000000000
000000000001FFFFF0000000000000
000000000001FFFFF0000000000000
000000000001FFFFF0000000000000
000000000001FFFFF0000000000000
000000000001FFFFF0000000000000
000000000001FFFFF0000000000000
00000FFFFFFFFFFFFFFFFFFFFFFF80
00007FFFFFFFFFFFFFFFFFFFFFFF80
0003FFFFFFFFFFFFFFFFFFFFFFFF80
000FFFFFFFFFFFFFFFFFFFFFFFFF80
001FFFFFFFFFFFFFFFFFFFFFFFFF80
003FFFFFFFFFFFFFFFFFFFFFFFFF80
00FFFFFFFFFFFFFFFFFFFFFFFFFF80
01FFFFFFFFFFFFFFFFFFFFFFFFFF80
03FFFFFFFFFFFFFFFFFFFFFFFFFF80
03FFFFFFFFFFFFFFFFFFFFFFFFFF80
07FFFFFFFFFFFFFFFFFFFFFFFFFF80
0FFFFFFFFFFFFFFFFFFFFFFFFFFF80
0FFFFFFFFFFFFFFFFFFFFFFFFFFF80
1FFFFFFFFFFFFFFFFFFFFFFFFFFF80
1FFFFFFFFFFFFFFFFFFFFFFFFFFF80
3FFFFFFFFFFFFFFFFFFFFFFFFFFF80
3FFFFFFFFFFFFFFFFFFFFFFFFFFF80
7FFFFFFFFFFFFFFFFFFFFFFFFFFF80
7FFFFFFFFFFFFFFFFFFFFFFFFFFF80
7FFFFFFFFFFFFFFFFFFFFFFFFFFF80
7FFFFE000001FFFFF0000000000000
7FFFF8000001FFFFF0000000000000
7FFFF8000001FFFFF0000000000000
FFFFF8000001FFFFF0000000000000
FFFFF8000001FFFFF0000000000000
FFFFF8000001FFFFF0000000000000
FFFFF8000001FFFFF0000000000000
FFFFF8000001FFFFF0000000000000
FFFFF8000001FFFFF0000000000000
FFFFF8000001FFFFF0000000000000
FFFFF8000001FFFFF0000000000000
FFFFF8000001FFFFF0000000000000
FFFFF8000001FFFFF0000000000000
FFFFF8000001FFFFF0000000000000
7FFFF8000001FFFFF0000000000000
7FFFF8000001FFFFF0000000000000
7FFFFC000001FFFFF0000000000000
7FFFFC000001FFFFF0000000000000
7FFFFE000001FFFFF0000000000000
7FFFFF000001FFFFF0000000000000
7FFFFFC00001FFFFF0000000000000
3FFFFFF00001FFFFF0000000000000
3FFFFFFC0001FFFFF0000000000000
3FFFFFFF0001FFFFF0000000000000
1FFFFFFFE001FFFFF0000000000000
1FFFFFFFFE01FFFFF0000000000000
0FFFFFFFFFC1FFFFF0000000000000
07FFFFFFFFFDFFFFF0000000000000
07FFFFFFFFFFFFFFF0000000000000
03FFFFFFFFFFFFFFF0000000000000
01FFFFFFFFFFFFFFF0000000000000
00FFFFFFFFFFFFFFF0000000000000
007FFFFFFFFFFFFFF0000000000000
003FFFFFFFFFFFFFFF000000000000
001FFFFFFFFFFFFFFFF00000000000
000FFFFFFFFFFFFFFFFF0000000000
0003FFFFFFFFFFFFFFFFF800000000
0001FFFFFFFFFFFFFFFFFF00000000
00007FFFFFFFFFFFFFFFFFC0000000
00001FFFFFFFFFFFFFFFFFF0000000
000007FFFFFFFFFFFFFFFFFC000000
000001FFFFFFFFFFFFFFFFFF000000
0000003FFFFFFFFFFFFFFFFFC00000
00000007FFFFFFFFFFFFFFFFE00000
000000007FFFFFFFFFFFFFFFF80000
0000000007FFFFFFFFFFFFFFFC0000
00000000003FFFFFFFFFFFFFFE0000
000000000003FFFFFFFFFFFFFF0000
000000000001FFFFFFFFFFFFFF8000
000000000001FFFFFFFFFFFFFFC000
000000000001FFFFFFFFFFFFFFE000
000000000001FFFFFFFFFFFFFFF000
000000000001FFFFFFFFFFFFFFF000
000000000001FFFFF1FFFFFFFFF800
000000000001FFFFF03FFFFFFFFC00
000000000001FFFFF003FFFFFFFC00
000000000001FFFFF000FFFFFFFC00
000000000001FFFFF0001FFFFFFE00
000000000001FFFFF00007FFFFFE00
000000000001FFFFF00001FFFFFF00
000000000001FFFFF00000FFFFFF00
000000000001FFFFF000007FFFFF00
000000000001FFFFF000003FFFFF00
000000000001FFFFF000001FFFFF00
000000000001FFFFF000000FFFFF00
000000000001FFFFF000000FFFFF00
000000000001FFFFF000000FFFFF00
000000000001FFFFF000000FFFFF80
000000000001FFFFF000000FFFFF80
000000000001FFFFF000000FFFFF80
000000000001FFFFF000000FFFFF80
000000000001FFFFF000000FFFFF80
000000000001FFFFF000000FFFFF80
000000000001FFFFF000000FFFFF80
000000000001FFFFF000000FFFFF80
000000000001FFFFF000000FFFFF80
000000000001FFFFF000000FFFFF00
000000000001FFFFF000000FFFFF00
000000000001FFFFF000000FFFFF00
000000000001FFFFF000003FFFFF00
FFFFFFFFFFFFFFFFFFFFFFFFFFFF00
FFFFFFFFFFFFFFFFFFFFFFFFFFFF00
FFFFFFFFFFFFFFFFFFFFFFFFFFFF00
FFFFFFFFFFFFFFFFFFFFFFFFFFFE00
FFFFFFFFFFFFFFFFFFFFFFFFFFFE00
FFFFFFFFFFFFFFFFFFFFFFFFFFFC00
FFFFFFFFFFFFFFFFFFFFFFFFFFFC00
FFFFFFFFFFFFFFFFFFFFFFFFFFF800
FFFFFFFFFFFFFFFFFFFFFFFFFFF800
FFFFFFFFFFFFFFFFFFFFFFFFFFF000
FFFFFFFFFFFFFFFFFFFFFFFFFFF000
FFFFFFFFFFFFFFFFFFFFFFFFFFE000
FFFFFFFFFFFFFFFFFFFFFFFFFFC000
FFFFFFFFFFFFFFFFFFFFFFFFFF8000
FFFFFFFFFFFFFFFFFFFFFFFFFF0000
FFFFFFFFFFFFFFFFFFFFFFFFFC0000
FFFFFFFFFFFFFFFFFFFFFFFFF80000
FFFFFFFFFFFFFFFFFFFFFFFFE00000
FFFFFFFFFFFFFFFFFFFFFFFF800000
FFFFFFFFFFFFFFFFFFFFFFF8000000
000000000001FFFFF0000000000000
000000000001FFFFF0000000000000
000000000001FFFFF0000000000000
000000000001FFFFF0000000000000
000000000001FFFFF0000000000000
000000000001FFFFF0000000000000
000000000001FFFFF0000000000000
000000000001FFFFF0000000000000
000000000001FFFFF0000000000000
000000000001FFFFF0000000000000
000000000001FFFFF0000000000000
000000000001FFFFF0000000000000
000000000001FFFFF0000000000000
000000000001FFFFF0000000000000
000000000001FFFFF0000000000000
000000000001FFFFF0000000000000
000000000001FFFFF0000000000000
ENDCHAR
STARTCHAR 0025
ENCODING 37
SWIDTH 1133 0
DWIDTH 204 0
BBX 196 154 4 -5
BITMAP
00000FFFFFFFFFE0000000000000001FFFFF80000000000000
0000FFFFFFFFFFFC000000000000003FFFFF00000000000000
0003FFFFFFFFFFFF800000000000003FFFFF00000000000000
000FFFFFFFFFFFFFE00000000000007FFFFE00000000000000
001FFFFFFFFFFFFFF00000000000007FFFFE00000000000000
007FFFFFFFFFFFFFF8000000000000FFFFFE00000000000000
00FFFFFFFFFFFFFFFE000000000000FFFFFC00000000000000
01FFFFFFFFFFFFFFFF000000000000FFFFFC00000000000000
03FFFFFFFFFFFFFFFF000000000001FFFFF800000000000000
03FFFFFFFFFFFFFFFF800000000001FFFFF800000000000000
07FFFFFFFFFFFFFFFFC00000000003FFFFF000000000000000
0FFFFFFFFFFFFFFFFFE00000000003FFFFF000000000000000
0FFFFFFFFFFFFFFFFFE00000000007FFFFE000000000000000
1FFFFFFFFFFFFFFFFFF00000000007FFFFE000000000000000
1FFFFFFFFFFFFFFFFFF0000000000FFFFFC000000000000000
3FFFFFFFFFFFFFFFFFF8000000000FFFFFC000000000000000
3FFFFFFFFFFFFFFFFFF8000000001FFFFF8000000000000000
7FFFFFFFFFFFFFFFFFF8000000001FFFFF8000000000000000
7FFFFFFFFFFFFFFFFFFC000000001FFFFF8000000000000000
7FFFFFFFFFFFFFFFFFFC000000003FFFFF0000000000000000
7FFFFE00000000FFFFFC000000003FFFFF0000000000000000
7FFFF8000000003FFFFC000000007FFFFE0000000000000000
7FFFF8000000003FFFFC000000007FFFFE0000000000000000
7FFFF8000000003FFFFC00000000FFFFFC0000000000000000
FFFFF8000000003FFFFC00000000FFFFFC0000000000000000
FFFFF8000000003FFFFE00000001FFFFF80000000000000000
FFFFF8000000003FFFFE00000001FFFFF80000000000000000
FFFFF8000000003FFFFE00000003FFFFF00000000000000000
FFFFF8000000003FFFFE00000003FFFFF00000000000000000
FFFFF8000000003FFFFE00000007FFFFF00000000000000000
FFFFF8000000003FFFFE00000007FFFFE00000000000000000
FFFFF8000000003FFFFE00000007FFFFE00000000000000000
FFFFF8000000003FFFFE0000000FFFFFC00000000000000000
FFFFF8000000003FFFFE0000000FFFFFC00000000000000000
FFFFF8000000003FFFFE0000001FFFFF800000000000000000
FFFFF8000000003FFFFE0000001FFFFF800000000000000000
FFFFF8000000003FFFFE0000003FFFFF000000000000000000
FFFFF8000000003FFFFE0000003FFFFF000000000000000000
FFFFF8000000003FFFFE0000007FFFFE000000000000000000
FFFFF8000000003FFFFE0000007FFFFE000000000000000000
FFFFF8000000003FFFFE000000FFFFFC000000000000000000
FFFFF8000000003FFFFE000000FFFFFC000000000000000000
FFFFF8000000003FFFFE000001FFFFFC000000000000000000
FFFFF8000000003FFFFE000001FFFFF8000000000000000000
FFFFF8000000003FFFFE000001FFFFF8000000000000000000
FFFFF8000000003FFFFE000003FFFFF0000000000000000000
FFFFF8000000003FFFFE000003FFFFF0000000000000000000
FFFFF8000000003FFFFE000007FFFFE0000000000000000000
FFFFF8000000003FFFFE000007FFFFE0000000000000000000
FFFFF8000000003FFFFE00000FFFFFC0000000000000000000
FFFFF8000000003FFFFE00000FFFFFC0000000000000000000
FFFFF8000000003FFFFE00001FFFFF80000000000000000000
FFFFF8000000003FFFFE00001FFFFF80000000000000000000
FFFFF8000000003FFFFE00003FFFFF00000000000000000000
FFFFF8000000003FFFFE00003FFFFF00000000000000000000
FFFFF8000000003FFFFE00003FFFFF00000000000000000000
FFFFF8000000003FFFFE00007FFFFE00000000000000000000
FFFFF8000000003FFFFE00007FFFFE00000000000000000000
FFFFF8000000003FFFFE0000FFFFFC00000000000000000000
FFFFF8000000003FFFFE0000FFFFFC00000000000000000000
FFFFF8000000003FFFFE0001FFFFF800000000000000000000
FFFFF8000000003FFFFE0001FFFFF800000000000000000000
FFFFF8000000003FFFFE0003FFFFF000000000000000000000
FFFFF8000000003FFFFC0003FFFFF000000000000000000000
7FFFF8000000003FFFFC0007FFFFE000000000000000000000
7FFFF8000000003FFFFC0007FFFFE000000000000000000000
7FFFF8000000003FFFFC000FFFFFE000007FFFFFFFFF000000
7FFFFE00000000FFFFFC000FFFFFC00007FFFFFFFFFFF00000
7FFFFFFFFFFFFFFFFFFC000FFFFFC0001FFFFFFFFFFFFC0000
7FFFFFFFFFFFFFFFFFFC001FFFFF80007FFFFFFFFFFFFF0000
3FFFFFFFFFFFFFFFFFF8001FFFFF8000FFFFFFFFFFFFFF8000
3FFFFFFFFFFFFFFFFFF8003FFFFF0003FFFFFFFFFFFFFFC000
3FFFFFFFFFFFFFFFFFF8003FFFFF0007FFFFFFFFFFFFFFF000
1FFFFFFFFFFFFFFFFFF0007FFFFE000FFFFFFFFFFFFFFFF800
1FFFFFFFFFFFFFFFFFF0007FFFFE001FFFFFFFFFFFFFFFF800
0FFFFFFFFFFFFFFFFFE000FFFFFC001FFFFFFFFFFFFFFFFC00
0FFFFFFFFFFFFFFFFFE000FFFFFC003FFFFFFFFFFFFFFFFE00
07FFFFFFFFFFFFFFFFC001FFFFF8007FFFFFFFFFFFFFFFFF00
03FFFFFFFFFFFFFFFF8001FFFFF8007FFFFFFFFFFFFFFFFF00
03FFFFFFFFFFFFFFFF8003FFFFF800FFFFFFFFFFFFFFFFFF80
01FFFFFFFFFFFFFFFF0003FFFFF000FFFFFFFFFFFFFFFFFF80
00FFFFFFFFFFFFFFFE0003FFFFF001FFFFFFFFFFFFFFFFFFC0
003FFFFFFFFFFFFFFC0007FFFFE001FFFFFFFFFFFFFFFFFFC0
001FFFFFFFFFFFFFF00007FFFFE003FFFFFFFFFFFFFFFFFFC0
000FFFFFFFFFFFFFE0000FFFFFC003FFFFFFFFFFFFFFFFFFE0
0003FFFFFFFFFFFF80000FFFFFC003FFFFFFFFFFFFFFFFFFE0
0000FFFFFFFFFFFE00001FFFFF8003FFFFF000000007FFFFE0
00000FFFFFFFFFE000001FFFFF8003FFFFC000000001FFFFE0
000000000000000000003FFFFF0003FFFFC000000001FFFFE0
000000000000000000003FFFFF0003FFFFC000000001FFFFE0
000000000000000000007FFFFE0007FFFFC000000001FFFFE0
000000000000000000007FFFFE0007FFFFC000000001FFFFF0
000000000000000000007FFFFE0007FFFFC000000001FFFFF0
00000000000000000000FFFFFC0007FFFFC000000001FFFFF0
00000000000000000000FFFFFC0007FFFFC000000001FFFFF0
00000000000000000001FFFFF80007FFFFC000000001FFFFF0
00000000000000000001FFFFF80007FFFFC000000001FFFFF0
00000000000000000003FFFFF00007FFFFC000000001FFFFF0
00000000000000000003FFFFF00007FFFFC000000001FFFFF0
00000000000000000007FFFFE00007FFFFC000000001FFFFF0
00000000000000000007FFFFE00007FFFFC000000001FFFFF0
0000000000000000000FFFFFC00007FFFFC000000001FFFFF0
0000000000000000000FFFFFC00007FFFFC000000001FFFFF0
0000000000000000001FFFFFC00007FFFFC000000001FFFFF0
0000000000000000001FFFFF800007FFFFC000000001FFFFF0
0000000000000000001FFFFF800007FFFFC000000001FFFFF0
0000000000000000003FFFFF000007FFFFC000000001FFFFF0
0000000000000000003FFFFF000007FFFFC000000001FFFFF0
0000000000000000007FFFFE000007FFFFC000000001FFFFF0
0000000000000000007FFFFE000007FFFFC000000001FFFFF0
000000000000000000FFFFFC000007FFFFC000000001FFFFF0
000000000000000000FFFFFC000007FFFFC000000001FFFFF0
000000000000000001FFFFF8000007FFFFC000000001FFFFF0
000000000000000001FFFFF8000007FFFFC000000001FFFFF0
000000000000000003FFFFF0000007FFFFC000000001FFFFF0
000000000000000003FFFFF0000007FFFFC000000001FFFFF0
000000000000000007FFFFF0000007FFFFC000000001FFFFF0
000000000000000007FFFFE0000007FFFFC000000001FFFFF0
000000000000000007FFFFE0000007FFFFC000000001FFFFF0
00000000000000000FFFFFC0000007FFFFC000000001FFFFF0
00000000000000000FFFFFC0000007FFFFC000000001FFFFF0
00000000000000001FFFFF80000007FFFFC000000001FFFFF0
00000000000000001FFFFF80000007FFFFC000000001FFFFF0
00000000000000003FFFFF00000007FFFFC000000001FFFFF0
00000000000000003FFFFF00000007FFFFC000000001FFFFF0
00000000000000007FFFFE00000007FFFFC000000001FFFFF0
00000000000000007FFFFE00000007FFFFC000000001FFFFF0
0000000000000000FFFFFC00000007FFFFC000000001FFFFF0
0000000000000000FFFFFC00000007FFFFC000000001FFFFF0
0000000000000000FFFFFC00000007FFFFC000000001FFFFE0
0000000000000001FFFFF800000003FFFFC000000001FFFFE0
0000000000000001FFFFF800000003FFFFC000000001FFFFE0
0000000000000003FFFFF000000003FFFFC000000001FFFFE0
0000000000000003FFFFF000000003FFFFF000000007FFFFE0
0000000000000007FFFFE000000003FFFFFFFFFFFFFFFFFFE0
0000000000000007FFFFE000000003FFFFFFFFFFFFFFFFFFE0
000000000000000FFFFFC000000001FFFFFFFFFFFFFFFFFFC0
000000000000000FFFFFC000000001FFFFFFFFFFFFFFFFFFC0
000000000000001FFFFF8000000001FFFFFFFFFFFFFFFFFFC0
000000000000001FFFFF8000000000FFFFFFFFFFFFFFFFFF80
000000000000003FFFFF8000000000FFFFFFFFFFFFFFFFFF80
000000000000003FFFFF00000000007FFFFFFFFFFFFFFFFF00
000000000000003FFFFF00000000007FFFFFFFFFFFFFFFFF00
000000000000007FFFFE00000000003FFFFFFFFFFFFFFFFE00
000000000000007FFFFE00000000001FFFFFFFFFFFFFFFFC00
00000000000000FFFFFC00000000001FFFFFFFFFFFFFFFFC00
00000000000000FFFFFC00000000000FFFFFFFFFFFFFFFF800
00000000000001FFFFF8000000000007FFFFFFFFFFFFFFF000
00000000000001FFFFF8000000000001FFFFFFFFFFFFFFE000
00000000000003FFFFF0000000000000FFFFFFFFFFFFFF8000
00000000000003FFFFF00000000000007FFFFFFFFFFFFF0000
00000000000007FFFFE00000000000001FFFFFFFFFFFFC0000
00000000000007FFFFE000000000000007FFFFFFFFFFF00000
00000000000007FFFFE0000000000000007FFFFFFFFF000000
ENDCHAR
STARTCHAR 0026
ENCODING 38
SWIDTH 694 0
DWIDTH 125 0
BBX 119 164 4 -15
BITMAP
0000007FFFFFFFFFFFFFF000000000
000007FFFFFFFFFFFFFFFE00000000
00001FFFFFFFFFFFFFFFFFC0000000
00007FFFFFFFFFFFFFFFFFE0000000
0000FFFFFFFFFFFFFFFFFFF8000000
0001FFFFFFFFFFFFFFFFFFFC000000
0007FFFFFFFFFFFFFFFFFFFE000000
000FFFFFFFFFFFFFFFFFFFFF000000
001FFFFFFFFFFFFFFFFFFFFF800000
001FFFFFFFFFFFFFFFFFFFFFC00000
003FFFFFFFFFFFFFFFFFFFFFE00000
007FFFFFFFFFFFFFFFFFFFFFF00000
007FFFFFFFFFFFFFFFFFFFFFF00000
00FFFFFFFFFFFFFFFFFFFFFFF80000
00FFFFFFFFFFFFFFFFFFFFFFF80000
01FFFFFFFFFFFFFFFFFFFFFFFC0000
01FFFFFFFFFFFFFFFFFFFFFFFC0000
03FFFFFFFFFFFFFFFFFFFFFFFC0000
03FFFFFFFFFFFFFFFFFFFFFFFE0000
03FFFFFFFFFFFFFFFFFFFFFFFE0000
03FFFFF00000000000007FFFFE0000
03FFFFC00000000000001FFFFE0000
03FFFFC00000000000001FFFFE0000
07FFFFC00000000000001FFFFE0000
07FFFFC00000000000001FFFFE0000
07FFFFC00000000000001FFFFF0000
07FFFFC00000000000001FFFFF0000
07FFFFC00000000000001FFFFF0000
07FFFFC00000000000001FFFFF0000
07FFFFC00000000000001FFFFF0000
07FFFFC00000000000001FFFFF0000
07FFFFC00000000000001FFFFF0000
07FFFFC00000000000001FFFFF0000
07FFFFC00000000000001FFFFF0000
07FFFFC00000000000001FFFFF0000
07FFFFC00000000000001FFFFF0000
07FFFFC00000000000001FFFFF0000
07FFFFC00000000000001FFFFF0000
07FFFFC00000000000001FFFFF0000
07FFFFC00000000000001FFFFF0000
07FFFFC00000000000001FFFFF0000
07FFFFC00000000000001FFFFF0000
07FFFFC00000000000001FFFFF0000
07FFFFC00000000000001FFFFF0000
07FFFFC00000000000001FFFFF0000
07FFFFC00000000000001FFFFF0000
07FFFFC00000000000001FFFFF0000
07FFFFC00000000000001FFFFF0000
07FFFFC00000000000001FFFFF0000
07FFFFC00000000000001FFFFF0000
07FFFFC00000000000001FFFFF0000
07FFFFC00000000000001FFFFF0000
07FFFFC00000000000001FFFFE0000
03FFFFC00000000000001FFFFE0000
03FFFFC00000000000001FFFFE0000
03FFFFE00000000000003FFFFE0000
03FFFFE00000000000007FFFFE0000
03FFFFF0000000000000FFFFFE0000
03FFFFF8000000000001FFFFFE0000
01FFFFFE000000000007FFFFFE0000
01FFFFFF00000000001FFFFFFC0000
01FFFFFFC0000000007FFFFFFC0000
00FFFFFFF000000003FFFFFFFC0000
00FFFFFFFC0000003FFFFFFFF80000
007FFFFFFF800003FFFFFFFFF80000
007FFFFFFFF0003FFFFFFFFFF00000
003FFFFFFFFF8FFFFFFFFFFFE00000
001FFFFFFFFFFFFFFFFFFFFFE00000
001FFFFFFFFFFFFFFFFFFFFFC00000
000FFFFFFFFFFFFFFFFFFFFF800000
0007FFFFFFFFFFFFFFFFFFFF000000
0003FFFFFFFFFFFFFFFFFFFE000000
0001FFFFFFFFFFFFFFFFFFFC000000
00007FFFFFFFFFFFFFFFFFF8000000
00003FFFFFFFFFFFFFFFFFF0000000
00001FFFFFFFFFFFFFFFFFE0000000
00007FFFFFFFFFFFFFFFFF80000000
0000FFFFFFFFFFFFFFFFFE00000000
0003FFFFFFFFFFFFFFFFFC00000000
0007FFFFFFFFFFFFFFFFE000000000
001FFFFFFFFFFFFFFFFF8000000000
003FFFFFFFFFFFFFFFFC0000000000
007FFFFFFFFFFFFFFFC00000000000
00FFFFFFFFFFFFFFFFE00000000000
01FFFFFFFFFFFFFFFFE00000000000
03FFFFFFFFFFFFFFFFF00000000000
03FFFFFFFFFFF3FFFFF00000000000
07FFFFFFFFFE03FFFFF80000000000
0FFFFFFFFFE001FFFFFC0000000000
0FFFFFFFFE0001FFFFFC0000000000
1FFFFFFFE00000FFFFFE0000000000
1FFFFFFF800000FFFFFE0000000000
3FFFFFFC0000007FFFFF000FFFFF80
3FFFFFF00000003FFFFF000FFFFF80
3FFFFFC00000003FFFFF800FFFFF80
7FFFFF800000001FFFFF800FFFFF80
7FFFFE000000001FFFFFC00FFFFF80
7FFFFC000000000FFFFFC00FFFFF80
7FFFFC000000000FFFFFE00FFFFF80
7FFFF80000000007FFFFF00FFFFF80
7FFFF80000000007FFFFF00FFFFF80
FFFFF80000000003FFFFF80FFFFF80
FFFFF80000000003FFFFF80FFFFF80
FFFFF80000000001FFFFFC0FFFFF80
FFFFF80000000000FFFFFC0FFFFF80
FFFFF80000000000FFFFFE0FFFFF80
FFFFF800000000007FFFFE0FFFFF80
FFFFF800000000007FFFFF0FFFFF80
FFFFF800000000003FFFFF0FFFFF80
FFFFF800000000003FFFFF8FFFFF80
FFFFF800000000001FFFFFCFFFFF80
FFFFF800000000001FFFFFCFFFFF80
FFFFF800000000000FFFFFEFFFFF80
FFFFF8000000000007FFFFEFFFFF80
FFFFF8000000000007FFFFFFFFFF80
FFFFF8000000000003FFFFFFFFFF80
FFFFF8000000000003FFFFFFFFFF80
FFFFF8000000000001FFFFFFFFFF80
FFFFF8000000000001FFFFFFFFFF80
FFFFF8000000000000FFFFFFFFFF80
FFFFF8000000000000FFFFFFFFFF80
FFFFF80000000000007FFFFFFFFF80
FFFFF80000000000003FFFFFFFFF80
FFFFF80000000000003FFFFFFFFF80
FFFFF80000000000001FFFFFFFFF80
FFFFF80000000000001FFFFFFFFF80
FFFFF80000000000000FFFFFFFFF80
FFFFF80000000000000FFFFFFFFF80
FFFFF800000000000007FFFFFFFF80
FFFFF800000000000007FFFFFFFF00
7FFFF800000000000003FFFFFFFF00
7FFFF800000000000001FFFFFFFF00
7FFFF800000000000001FFFFFFFF00
7FFFFE00000000000000FFFFFFFF00
7FFFFFFFFFFFFFFFFFFFFFFFFFFF00
7FFFFFFFFFFFFFFFFFFFFFFFFFFF00
7FFFFFFFFFFFFFFFFFFFFFFFFFFE00
3FFFFFFFFFFFFFFFFFFFFFFFFFFE00
3FFFFFFFFFFFFFFFFFFFFFFFFFFE00
1FFFFFFFFFFFFFFFFFFFFFFFFFFC00
1FFFFFFFFFFFFFFFFFFFFFFFFFFC00
0FFFFFFFFFFFFFFFFFFFFFFFFFF800
0FFFFFFFFFFFFFFFFFFFFFFFFFF800
07FFFFFFFFFFFFFFFFFFFFFFFFF000
03FFFFFFFFFFFFFFFFFFFFFFFFF800
03FFFFFFFFFFFFFFFFFFFFFFFFF800
01FFFFFFFFFFFFFFFFFFFFFFFFFC00
00FFFFFFFFFFFFFFFFFFFFFFFFFC00
003FFFFFFFFFFFFFFFFFFFFFFFFE00
001FFFFFFFFFFFFFFFFFFFFFFFFE00
000FFFFFFFFFFFFFFFFFFFFFFFFF00
0003FFFFFFFFFFFFFFFFFFFFFFFF00
0000FFFFFFFFFFFFFFFFFFFFFFFF80
00000FFFFFFFFFFFFFFFFFFFFFFF80
00000000000000000000001FFFFFC0
00000000000000000000000FFFFFE0
00000000000000000000000FFFFFE0
000000000000000000000007FFFFF0
000000000000000000000007FFFFF0
000000000000000000000003FFFFF8
000000000000000000000001FFFFF8
000000000000000000000001FFFFFC
000000000000000000000000FFFFFC
000000000000000000000000FFFFFE
ENDCHAR
STARTCHAR 0027
ENCODING 39
SWIDTH 161 0
DWIDTH 29 0
BBX 21 41 4 108
BITMAP
FFFFF8
FFFFF8
FFFFF8
FFFFF8
FFFFF8
FFFFF8
FFFFF8
FFFFF8
FFFFF8
FFFFF8
FFFFF8
FFFFF8
FFFFF8
FFFFF8
FFFFF8
FFFFF8
FFFFF8
FFFFF8
FFFFF8
FFFFF8
FFFFF8
FFFFF8
FFFFF8
FFFFF8
FFFFF8
FFFFF8
FFFFF8
FFFFF8
FFFFF8
FFFFF8
FFFFF8
FFFFF8
FFFFF8
FFFFF8
FFFFF8
FFFFF8
FFFFF8
FFFFF8
FFFFF8
FFFFF8
FFFFF8
ENDCHAR
STARTCHAR 0028
ENCODING 40
SWIDTH 372 0
DWIDTH 67 0
BBX 59 164 4 -10
BITMAP
00000FFFFFFFFFE0
0000FFFFFFFFFFE0
0003FFFFFFFFFFE0
000FFFFFFFFFFFE0
001FFFFFFFFFFFE0
003FFFFFFFFFFFE0
00FFFFFFFFFFFFE0
01FFFFFFFFFFFFE0
03FFFFFFFFFFFFE0
03FFFFFFFFFFFFE0
07FFFFFFFFFFFFE0
0FFFFFFFFFFFFFE0
0FFFFFFFFFFFFFE0
1FFFFFFFFFFFFFE0
1FFFFFFFFFFFFFE0
3FFFFFFFFFFFFFE0
3FFFFFFFFFFFFFE0
7FFFFFFFFFFFFFE0
7FFFFFFFFFFFFFE0
7FFFFFFFFFFFFFE0
7FFFFE0000000000
7FFFF80000000000
7FFFF80000000000
7FFFF80000000000
FFFFF80000000000
FFFFF80000000000
FFFFF80000000000
FFFFF80000000000
FFFFF80000000000
FFFFF80000000000
FFFFF80000000000
FFFFF80000000000
FFFFF80000000000
FFFFF80000000000
FFFFF80000000000
FFFFF80000000000
FFFFF80000000000
FFFFF80000000000
FFFFF80000000000
FFFFF80000000000
FFFFF80000000000
FFFFF80000000000
FFFFF80000000000
FFFFF80000000000
FFFFF80000000000
FFFFF80000000000
FFFFF80000000000
FFFFF80000000000
FFFFF80000000000
FFFFF80000000000
FFFFF80000000000
FFFFF80000000000
FFFFF80000000000
FFFFF80000000000
FFFFF80000000000
FFFFF80000000000
FFFFF80000000000
FFFFF80000000000
FFFFF80000000000
FFFFF80000000000
FFFFF80000000000
FFFFF80000000000
FFFFF80000000000
FFFFF80000000000
FFFFF80000000000
FFFFF80000000000
FFFFF80000000000
FFFFF80000000000
FFFFF80000000000
FFFFF80000000000
FFFFF80000000000
FFFFF80000000000
FFFFF80000000000
FFFFF80000000000
FFFFF80000000000
FFFFF80000000000
FFFFF80000000000
FFFFF80000000000
FFFFF80000000000
FFFFF80000000000
FFFFF80000000000
FFFFF80000000000
FFFFF80000000000
FFFFF80000000000
FFFFF80000000000
FFFFF80000000000
FFFFF80000000000
FFFFF80000000000
FFFFF80000000000
FFFFF80000000000
FFFFF80000000000
FFFFF80000000000
FFFFF80000000000
FFFFF80000000000
FFFFF80000000000
FFFFF80000000000
FFFFF80000000000
FFFFF80000000000
FFFFF80000000000
FFFFF80000000000
FFFFF80000000000
FFFFF80000000000
FFFFF80000000000
FFFFF80000000000
FFFFF80000000000
FFFFF80000000000
FFFFF80000000000
FFFFF80000000000
FFFFF80000000000
FFFFF80000000000
FFFFF80000000000
FFFFF80000000000
FFFFF80000000000
FFFFF80000000000
FFFFF80000000000
FFFFF80000000000
FFFFF80000000000
FFFFF80000000000
FFFFF80000000000
FFFFF80000000000
FFFFF80000000000
FFFFF80000000000
FFFFF80000000000
FFFFF80000000000
FFFFF80000000000
FFFFF80000000000
FFFFF80000000000
FFFFF80000000000
FFFFF80000000000
FFFFF80000000000
FFFFF80000000000
FFFFF80000000000
FFFFF80000000000
FFFFF80000000000
FFFFF80000000000
FFFFF80000000000
FFFFF80000000000
FFFFF80000000000
FFFFF80000000000
FFFFF80000000000
7FFFF80000000000
7FFFF80000000000
7FFFF80000000000
7FFFFE0000000000
7FFFFFFFFFFFFFE0
7FFFFFFFFFFFFFE0
7FFFFFFFFFFFFFE0
3FFFFFFFFFFFFFE0
3FFFFFFFFFFFFFE0
1FFFFFFFFFFFFFE0
1FFFFFFFFFFFFFE0
0FFFFFFFFFFFFFE0
0FFFFFFFFFFFFFE0
07FFFFFFFFFFFFE0
03FFFFFFFFFFFFE0
03FFFFFFFFFFFFE0
01FFFFFFFFFFFFE0
00FFFFFFFFFFFFE0
007FFFFFFFFFFFE0
001FFFFFFFFFFFE0
000FFFFFFFFFFFE0
0003FFFFFFFFFFE0
0000FFFFFFFFFFE0
00000FFFFFFFFFE0
ENDCHAR
STARTCHAR 0029
ENCODING 41
SWIDTH 372 0
DWIDTH 67 0
BBX 59 164 4 -10
BITMAP
FFFFFFFFFE000000
FFFFFFFFFFE00000
FFFFFFFFFFF80000
FFFFFFFFFFFE0000
FFFFFFFFFFFF0000
FFFFFFFFFFFF8000
FFFFFFFFFFFFE000
FFFFFFFFFFFFF000
FFFFFFFFFFFFF800
FFFFFFFFFFFFF800
FFFFFFFFFFFFFC00
FFFFFFFFFFFFFE00
FFFFFFFFFFFFFE00
FFFFFFFFFFFFFF00
FFFFFFFFFFFFFF00
FFFFFFFFFFFFFF80
FFFFFFFFFFFFFF80
FFFFFFFFFFFFFF80
FFFFFFFFFFFFFFC0
FFFFFFFFFFFFFFC0
000000000FFFFFC0
0000000003FFFFC0
0000000003FFFFC0
0000000003FFFFC0
0000000003FFFFC0
0000000003FFFFE0
0000000003FFFFE0
0000000003FFFFE0
0000000003FFFFE0
0000000003FFFFE0
0000000003FFFFE0
0000000003FFFFE0
0000000003FFFFE0
0000000003FFFFE0
0000000003FFFFE0
0000000003FFFFE0
0000000003FFFFE0
0000000003FFFFE0
0000000003FFFFE0
0000000003FFFFE0
0000000003FFFFE0
0000000003FFFFE0
0000000003FFFFE0
0000000003FFFFE0
0000000003FFFFE0
0000000003FFFFE0
0000000003FFFFE0
0000000003FFFFE0
0000000003FFFFE0
0000000003FFFFE0
0000000003FFFFE0
0000000003FFFFE0
0000000003FFFFE0
0000000003FFFFE0
0000000003FFFFE0
0000000003FFFFE0
0000000003FFFFE0
0000000003FFFFE0
0000000003FFFFE0
0000000003FFFFE0
0000000003FFFFE0
0000000003FFFFE0
0000000003FFFFE0
0000000003FFFFE0
0000000003FFFFE0
0000000003FFFFE0
0000000003FFFFE0
0000000003FFFFE0
0000000003FFFFE0
0000000003FFFFE0
0000000003FFFFE0
0000000003FFFFE0
0000000003FFFFE0
0000000003FFFFE0
0000000003FFFFE0
0000000003FFFFE0
0000000003FFFFE0
0000000003FFFFE0
0000000003FFFFE0
0000000003FFFFE0
0000000003FFFFE0
0000000003FFFFE0
0000000003FFFFE0
0000000003FFFFE0
0000000003FFFFE0
0000000003FFFFE0
0000000003FFFFE0
0000000003FFFFE0
0000000003FFFFE0
0000000003FFFFE0
0000000003FFFFE0
0000000003FFFFE0
0000000003FFFFE0
0000000003FFFFE0
0000000003FFFFE0
0000000003FFFFE0
0000000003FFFFE0
0000000003FFFFE0
0000000003FFFFE0
0000000003FFFFE0
0000000003FFFFE0
0000000003FFFFE0
0000000003FFFFE0
0000000003FFFFE0
0000000003FFFFE0
0000000003FFFFE0
0000000003FFFFE0
0000000003FFFFE0
0000000003FFFFE0
0000000003FFFFE0
0000000003FFFFE0
0000000003FFFFE0
0000000003FFFFE0
0000000003FFFFE0
0000000003FFFFE0
0000000003FFFFE0
0000000003FFFFE0
0000000003FFFFE0
0000000003FFFFE0
0000000003FFFFE0
0000000003FFFFE0
0000000003FFFFE0
0000000003FFFFE0
0000000003FFFFE0
0000000003FFFFE0
0000000003FFFFE0
0000000003FFFFE0
0000000003FFFFE0
0000000003FFFFE0
0000000003FFFFE0
0000000003FFFFE0
0000000003FFFFE0
0000000003FFFFE0
0000000003FFFFE0
0000000003FFFFE0
0000000003FFFFE0
0000000003FFFFE0
0000000003FFFFE0
0000000003FFFFE0
0000000003FFFFC0
0000000003FFFFC0
0000000003FFFFC0
0000000003FFFFC0
000000000FFFFFC0
FFFFFFFFFFFFFFC0
FFFFFFFFFFFFFFC0
FFFFFFFFFFFFFF80
FFFFFFFFFFFFFF80
FFFFFFFFFFFFFF80
FFFFFFFFFFFFFF00
FFFFFFFFFFFFFF00
FFFFFFFFFFFFFE00
FFFFFFFFFFFFFE00
FFFFFFFFFFFFFC00
FFFFFFFFFFFFF800
FFFFFFFFFFFFF800
FFFFFFFFFFFFF000
FFFFFFFFFFFFE000
FFFFFFFFFFFF8000
FFFFFFFFFFFF0000
FFFFFFFFFFFE0000
FFFFFFFFFFF80000
FFFFFFFFFFE00000
FFFFFFFFFE000000
ENDCHAR
STARTCHAR 002A
ENCODING 42
SWIDTH 466 0
DWIDTH 84 0
BBX 76 86 4 63
BITMAP
0000001FFFFF00000000
0000081FFFFF01000000
0000381FFFFF01C00000
0000F81FFFFF01F00000
0003F81FFFFF01FC0000
000FF81FFFFF01FF0000
003FF81FFFFF01FFC000
00FFF81FFFFF01FFF000
03FFF81FFFFF01FFFC00
0FFFF81FFFFF01FFFF00
3FFFF81FFFFF01FFFFC0
FFFFF81FFFFF01FFFFF0
FFFFF81FFFFF01FFFFF0
FFFFF81FFFFF01FFFFF0
FFFFF81FFFFF01FFFFF0
FFFFF81FFFFF01FFFFF0
FFFFF81FFFFF01FFFFF0
FFFFF81FFFFF01FFFFF0
FFFFF81FFFFF01FFFFF0
FFFFF81FFFFF01FFFFF0
FFFFF81FFFFF01FFFFF0
7FFFF81FFFFF01FFFFE0
7FFFF81FFFFF01FFFFE0
7FFFFC1FFFFF03FFFFE0
7FFFFE1FFFFF07FFFFE0
7FFFFF1FFFFF0FFFFFE0
7FFFFF9FFFFF1FFFFFE0
7FFFFFFFFFFF7FFFFFC0
3FFFFFFFFFFFFFFFFFC0
3FFFFFFFFFFFFFFFFFC0
1FFFFFFFFFFFFFFFFF80
1FFFFFFFFFFFFFFFFF80
0FFFFFFFFFFFFFFFFF00
0FFFFFFFFFFFFFFFFF00
07FFFFFFFFFFFFFFFE00
03FFFFFFFFFFFFFFFC00
01FFFFFFFFFFFFFFF800
01FFFFFFFFFFFFFFF800
00FFFFFFFFFFFFFFF000
007FFFFFFFFFFFFFE000
001FFFFFFFFFFFFF8000
000FFFFFFFFFFFFF0000
0007FFFFFFFFFFFE0000
000FFFFFFFFFFFFF0000
001FFFFFFFFFFFFF8000
003FFFFFFFFFFFFFC000
007FFFFFFFFFFFFFE000
00FFFFFFFFFFFFFFF000
01FFFFFFFFFFFFFFF800
03FFFFFFFFFFFFFFFC00
07FFFFFFFFFFFFFFFE00
07FFFFFFFFFFFFFFFE00
0FFFFFFFFFFFFFFFFF00
1FFFFFFFFFFFFFFFFF80
1FFFFFFFFFFFFFFFFF80
3FFFFFFFFFFFFFFFFFC0
3FFFFFFFFFFFFFFFFFC0
3FFFFFFFFFFF7FFFFFC0
7FFFFFDFFFFF3FFFFFE0
7FFFFF9FFFFF1FFFFFE0
7FFFFF1FFFFF0FFFFFE0
7FFFFE1FFFFF07FFFFE0
7FFFFC1FFFFF03FFFFE0
7FFFFC1FFFFF03FFFFE0
FFFFF81FFFFF03FFFFE0
FFFFF81FFFFF01FFFFF0
FFFFF81FFFFF01FFFFF0
FFFFF81FFFFF01FFFFF0
FFFFF81FFFFF01FFFFF0
FFFFF81FFFFF01FFFFF0
FFFFF81FFFFF01FFFFF0
FFFFF81FFFFF01FFFFF0
FFFFF81FFFFF01FFFFF0
FFFFF81FFFFF01FFFFF0
FFFFF81FFFFF01FFFFF0
FFFFF81FFFFF01FFFFF0
7FFFF81FFFFF01FFFFE0
1FFFF81FFFFF01FFFF80
07FFF81FFFFF01FFFE00
01FFF81FFFFF01FFF800
007FF81FFFFF01FFE000
001FF81FFFFF01FF8000
0007F81FFFFF01FE0000
0001F81FFFFF01F80000
0000781FFFFF01E00000
0000101FFFFF01800000
ENDCHAR
STARTCHAR 002B
ENCODING 43
SWIDTH 527 0
DWIDTH 95 0
BBX 87 86 4 29
BITMAP
000000007FFFFC00000000
000000007FFFFC00000000
000000007FFFFC00000000
000000007FFFFC00000000
000000007FFFFC00000000
000000007FFFFC00000000
000000007FFFFC00000000
000000007FFFFC00000000
000000007FFFFC00000000
000000007FFFFC00000000
000000007FFFFC00000000
000000007FFFFC00000000
000000007FFFFC00000000
000000007FFFFC00000000
000000007FFFFC00000000
000000007FFFFC00000000
000000007FFFFC00000000
000000007FFFFC00000000
000000007FFFFC00000000
000000007FFFFC00000000
000000007FFFFC00000000
000000007FFFFC00000000
000000007FFFFC00000000
000000007FFFFC00000000
000000007FFFFC00000000
000000007FFFFC00000000
000000007FFFFC00000000
000000007FFFFC00000000
000000007FFFFC00000000
000000007FFFFC00000000
000000007FFFFC00000000
000000007FFFFC00000000
000000007FFFFC00000000
FFFFFFFFFFFFFFFFFFFFFE
FFFFFFFFFFFFFFFFFFFFFE
FFFFFFFFFFFFFFFFFFFFFE
FFFFFFFFFFFFFFFFFFFFFE
FFFFFFFFFFFFFFFFFFFFFE
FFFFFFFFFFFFFFFFFFFFFE
FFFFFFFFFFFFFFFFFFFFFE
FFFFFFFFFFFFFFFFFFFFFE
FFFFFFFFFFFFFFFFFFFFFE
FFFFFFFFFFFFFFFFFFFFFE
FFFFFFFFFFFFFFFFFFFFFE
FFFFFFFFFFFFFFFFFFFFFE
FFFFFFFFFFFFFFFFFFFFFE
FFFFFFFFFFFFFFFFFFFFFE
FFFFFFFFFFFFFFFFFFFFFE
FFFFFFFFFFFFFFFFFFFFFE
FFFFFFFFFFFFFFFFFFFFFE
FFFFFFFFFFFFFFFFFFFFFE
FFFFFFFFFFFFFFFFFFFFFE
FFFFFFFFFFFFFFFFFFFFFE
000000007FFFFC00000000
000000007FFFFC00000000
000000007FFFFC00000000
000000007FFFFC00000000
000000007FFFFC00000000
000000007FFFFC00000000
000000007FFFFC00000000
000000007FFFFC00000000
000000007FFFFC00000000
000000007FFFFC00000000
000000007FFFFC00000000
000000007FFFFC00000000
000000007FFFFC00000000
000000007FFFFC00000000
000000007FFFFC00000000
000000007FFFFC00000000
000000007FFFFC00000000
000000007FFFFC00000000
000000007FFFFC00000000
000000007FFFFC00000000
000000007FFFFC00000000
000000007FFFFC00000000
000000007FFFFC00000000
000000007FFFFC00000000
000000007FFFFC00000000
000000007FFFFC00000000
000000007FFFFC00000000
000000007FFFFC00000000
000000007FFFFC00000000
000000007FFFFC00000000
000000007FFFFC00000000
000000007FFFFC00000000
000000007FFFFC00000000
ENDCHAR
STARTCHAR 002C
ENCODING 44
SWIDTH 161 0
DWIDTH 29 0
BBX 21 40 4 -23
BITMAP
FFFFF8
FFFFF8
FFFFF8
FFFFF8
FFFFF8
FFFFF8
FFFFF8
FFFFF8
FFFFF8
FFFFF8
FFFFF8
FFFFF8
FFFFF8
FFFFF8
FFFFF8
FFFFF8
FFFFF8
FFFFF8
FFFFF8
FFFFF8
FFFFF8
FFFFF8
FFFFF8
FFFFF8
FFFFF8
FFFFF8
FFFFF8
FFFFF8
FFFFF8
FFFFF8
FFFFF8
FFFFF8
FFFFF8
FFFFF8
FFFFF8
FFFFF8
FFFFF8
FFFFF8
FFFFF8
FFFFF8
ENDCHAR
STARTCHAR 002D
ENCODING 45
SWIDTH 355 0
DWIDTH 64 0
BBX 56 20 4 62
BITMAP
FFFFFFFFFFFFFF
FFFFFFFFFFFFFF
FFFFFFFFFFFFFF
FFFFFFFFFFFFFF
FFFFFFFFFFFFFF
FFFFFFFFFFFFFF
FFFFFFFFFFFFFF
FFFFFFFFFFFFFF
FFFFFFFFFFFFFF
FFFFFFFFFFFFFF
FFFFFFFFFFFFFF
FFFFFFFFFFFFFF
FFFFFFFFFFFFFF
FFFFFFFFFFFFFF
FFFFFFFFFFFFFF
FFFFFFFFFFFFFF
FFFFFFFFFFFFFF
FFFFFFFFFFFFFF
FFFFFFFFFFFFFF
FFFFFFFFFFFFFF
ENDCHAR
STARTCHAR 002E
ENCODING 46
SWIDTH 161 0
DWIDTH 29 0
BBX 21 22 4 -5
BITMAP
FFFFF8
FFFFF8
FFFFF8
FFFFF8
FFFFF8
FFFFF8
FFFFF8
FFFFF8
FFFFF8
FFFFF8
FFFFF8
FFFFF8
FFFFF8
FFFFF8
FFFFF8
FFFFF8
FFFFF8
FFFFF8
FFFFF8
FFFFF8
FFFFF8
FFFFF8
ENDCHAR
STARTCHAR 002F
ENCODING 47
SWIDTH 511 0
DWIDTH 92 0
BBX 86 154 4 -5
BITMAP
0000000000000000FFFFFC
0000000000000000FFFFF8
0000000000000001FFFFF8
0000000000000001FFFFF8
0000000000000003FFFFF0
0000000000000003FFFFF0
0000000000000003FFFFE0
0000000000000007FFFFE0
0000000000000007FFFFC0
000000000000000FFFFFC0
000000000000000FFFFFC0
000000000000001FFFFF80
000000000000001FFFFF80
000000000000001FFFFF00
000000000000003FFFFF00
000000000000003FFFFE00
000000000000007FFFFE00
000000000000007FFFFE00
00000000000000FFFFFC00
00000000000000FFFFFC00
00000000000000FFFFF800
00000000000001FFFFF800
00000000000001FFFFF800
00000000000003FFFFF000
00000000000003FFFFF000
00000000000003FFFFE000
00000000000007FFFFE000
00000000000007FFFFC000
0000000000000FFFFFC000
0000000000000FFFFFC000
0000000000001FFFFF8000
0000000000001FFFFF8000
0000000000001FFFFF0000
0000000000003FFFFF0000
0000000000003FFFFE0000
0000000000007FFFFE0000
0000000000007FFFFE0000
000000000000FFFFFC0000
000000000000FFFFFC0000
000000000000FFFFF80000
000000000001FFFFF80000
000000000001FFFFF00000
000000000003FFFFF00000
000000000003FFFFF00000
000000000003FFFFE00000
000000000007FFFFE00000
000000000007FFFFC00000
00000000000FFFFFC00000
00000000000FFFFFC00000
00000000001FFFFF800000
00000000001FFFFF800000
00000000001FFFFF000000
00000000003FFFFF000000
00000000003FFFFE000000
00000000007FFFFE000000
00000000007FFFFE000000
0000000000FFFFFC000000
0000000000FFFFFC000000
0000000000FFFFF8000000
0000000001FFFFF8000000
0000000001FFFFF0000000
0000000003FFFFF0000000
0000000003FFFFF0000000
0000000007FFFFE0000000
0000000007FFFFE0000000
0000000007FFFFC0000000
000000000FFFFFC0000000
000000000FFFFFC0000000
000000001FFFFF80000000
000000001FFFFF80000000
000000001FFFFF00000000
000000003FFFFF00000000
000000003FFFFE00000000
000000007FFFFE00000000
000000007FFFFE00000000
00000000FFFFFC00000000
00000000FFFFFC00000000
00000000FFFFF800000000
00000001FFFFF800000000
00000001FFFFF000000000
00000003FFFFF000000000
00000003FFFFF000000000
00000007FFFFE000000000
00000007FFFFE000000000
00000007FFFFC000000000
0000000FFFFFC000000000
0000000FFFFFC000000000
0000001FFFFF8000000000
0000001FFFFF8000000000
0000001FFFFF0000000000
0000003FFFFF0000000000
0000003FFFFE0000000000
0000007FFFFE0000000000
0000007FFFFE0000000000
000000FFFFFC0000000000
000000FFFFFC0000000000
000000FFFFF80000000000
000001FFFFF80000000000
000001FFFFF00000000000
000003FFFFF00000000000
000003FFFFF00000000000
000007FFFFE00000000000
000007FFFFE00000000000
000007FFFFC00000000000
00000FFFFFC00000000000
00000FFFFF800000000000
00001FFFFF800000000000
00001FFFFF800000000000
00001FFFFF000000000000
00003FFFFF000000000000
00003FFFFE000000000000
00007FFFFE000000000000
00007FFFFE000000000000
0000FFFFFC000000000000
0000FFFFFC000000000000
0000FFFFF8000000000000
0001FFFFF8000000000000
0001FFFFF0000000000000
0003FFFFF0000000000000
0003FFFFF0000000000000
0007FFFFE0000000000000
0007FFFFE0000000000000
0007FFFFC0000000000000
000FFFFFC0000000000000
000FFFFF80000000000000
001FFFFF80000000000000
001FFFFF80000000000000
003FFFFF00000000000000
003FFFFF00000000000000
003FFFFE00000000000000
007FFFFE00000000000000
007FFFFE00000000000000
00FFFFFC00000000000000
00FFFFFC00000000000000
00FFFFF800000000000000
01FFFFF800000000000000
01FFFFF000000000000000
03FFFFF000000000000000
03FFFFF000000000000000
07FFFFE000000000000000
07FFFFE000000000000000
07FFFFC000000000000000
0FFFFFC000000000000000
0FFFFF8000000000000000
1FFFFF8000000000000000
1FFFFF8000000000000000
3FFFFF0000000000000000
3FFFFF0000000000000000
3FFFFE0000000000000000
7FFFFE0000000000000000
7FFFFE0000000000000000
FFFFFC0000000000000000
FFFFFC0000000000000000
FFFFF80000000000000000
ENDCHAR
STARTCHAR 0030
ENCODING 48
SWIDTH 677 0
DWIDTH 122 0
BBX 114 154 4 -5
BITMAP
00000FFFFFFFFFFFFFFFFFFC000000
00007FFFFFFFFFFFFFFFFFFF800000
0003FFFFFFFFFFFFFFFFFFFFF00000
000FFFFFFFFFFFFFFFFFFFFFF80000
001FFFFFFFFFFFFFFFFFFFFFFE0000
003FFFFFFFFFFFFFFFFFFFFFFF0000
00FFFFFFFFFFFFFFFFFFFFFFFF8000
01FFFFFFFFFFFFFFFFFFFFFFFFC000
01FFFFFFFFFFFFFFFFFFFFFFFFE000
03FFFFFFFFFFFFFFFFFFFFFFFFF000
07FFFFFFFFFFFFFFFFFFFFFFFFF800
0FFFFFFFFFFFFFFFFFFFFFFFFFFC00
0FFFFFFFFFFFFFFFFFFFFFFFFFFC00
1FFFFFFFFFFFFFFFFFFFFFFFFFFE00
1FFFFFFFFFFFFFFFFFFFFFFFFFFE00
3FFFFFFFFFFFFFFFFFFFFFFFFFFF00
3FFFFFFFFFFFFFFFFFFFFFFFFFFF00
3FFFFFFFFFFFFFFFFFFFFFFFFFFF00
7FFFFFFFFFFFFFFFFFFFFFFFFFFF80
7FFFFFFFFFFFFFFFFFFFFFFFFFFF80
7FFFFE00000000000000001FFFFF80
7FFFF8000000000000000007FFFF80
7FFFF8000000000000000007FFFF80
7FFFF8000000000000000007FFFF80
FFFFF8000000000000000007FFFF80
FFFFF8000000000000000007FFFF80
FFFFF8000000000000000007FFFF80
FFFFF8000000000000000007FFFF80
FFFFF8000000000000000007FFFF80
FFFFF8000000000000000007FFFF80
FFFFF8000000000000000007FFFF80
FFFFF8000000000000000007FFFF80
FFFFF8000000000000000007FFFF80
FFFFF8000000000000000007FFFF80
FFFFF8000000000000000007FFFF80
FFFFF8000000000000000007FFFF80
FFFFF8000000000000000007FFFF80
FFFFF8000000000000000007FFFF80
FFFFF8000000000000000007FFFF80
FFFFF8000000000000000007FFFF80
FFFFF8000000000000000007FFFF80
FFFFF8000000000000000007FFFF80
FFFFF8000000000000000007FFFF80
FFFFF8000000000000000007FFFF80
FFFFF8000000000000000007FFFF80
FFFFF8000000000000000007FFFF80
FFFFF8000000000000000007FFFF80
FFFFF8000000000000000007FFFF80
FFFFF8000000000000000007FFFF80
FFFFF8000000000000000007FFFF80
FFFFF8000000000000000007FFFFC0
FFFFF8000000000000000007FFFFC0
FFFFF8000000000000000007FFFFC0
FFFFF800000000000000000FFFFFC0
FFFFF800000000000000000FFFFFC0
FFFFF800000000000000001FFFFFC0
FFFFF800000000000000007FFFFFC0
FFFFF80000000000000000FFFFFFC0
FFFFF80000000000000003FFFFFFC0
FFFFF8000000000000000FFFFFFFC0
FFFFF8000000000000003FFFFFFFC0
FFFFF800000000000001FFFFFFFFC0
FFFFF80000000000001FFFFFFFFFC0
FFFFF8000000000001FFFFFFFFFFC0
FFFFF800000000001FFFFFFFFFFFC0
FFFFF80000000003FFFFFFFFFFFFC0
FFFFF8000000003FFFFFFFFFFFFFC0
FFFFF800000007FFFFFFFFFFFFFFC0
FFFFF80000007FFFFFFFFFFFFFFFC0
FFFFF8000007FFFFFFFFFFFFFFFFC0
FFFFF80000FFFFFFFFFFFFFFFFFFC0
FFFFF8000FFFFFFFFFFFFFFFFFFFC0
FFFFF800FFFFFFFFFFFFFFFFFFFFC0
FFFFF81FFFFFFFFFFFFFFFFFFFFFC0
FFFFF87FFFFFFFFFFFFFFFFFFFFFC0
FFFFF9FFFFFFFFFFFFFFFFFFFFFFC0
FFFFFFFFFFFFFFFFFFFFFFFFFFFFC0
FFFFFFFFFFFFFFFFFFFFFFFFFFFFC0
FFFFFFFFFFFFFFFFFFFFFFF7FFFFC0
FFFFFFFFFFFFFFFFFFFFFF87FFFFC0
FFFFFFFFFFFFFFFFFFFFFC07FFFFC0
FFFFFFFFFFFFFFFFFFFFC007FFFFC0
FFFFFFFFFFFFFFFFFFFC0007FFFFC0
FFFFFFFFFFFFFFFFFF800007FFFFC0
FFFFFFFFFFFFFFFFF8000007FFFFC0
FFFFFFFFFFFFFFFF80000007FFFFC0
FFFFFFFFFFFFFFF000000007FFFFC0
FFFFFFFFFFFFFF0000000007FFFFC0
FFFFFFFFFFFFE00000000007FFFFC0
FFFFFFFFFFFE000000000007FFFFC0
FFFFFFFFFFE0000000000007FFFFC0
FFFFFFFFFE00000000000007FFFFC0
FFFFFFFFE000000000000007FFFFC0
FFFFFFFF0000000000000007FFFFC0
FFFFFFFC0000000000000007FFFFC0
FFFFFFF00000000000000007FFFFC0
FFFFFFC00000000000000007FFFFC0
FFFFFF800000000000000007FFFFC0
FFFFFF000000000000000007FFFFC0
FFFFFE000000000000000007FFFFC0
FFFFFC000000000000000007FFFFC0
FFFFF8000000000000000007FFFFC0
FFFFF8000000000000000007FFFFC0
FFFFF8000000000000000007FFFFC0
FFFFF8000000000000000007FFFFC0
FFFFF8000000000000000007FFFFC0
FFFFF8000000000000000007FFFFC0
FFFFF8000000000000000007FFFFC0
FFFFF8000000000000000007FFFFC0
FFFFF8000000000000000007FFFFC0
FFFFF8000000000000000007FFFFC0
FFFFF8000000000000000007FFFFC0
FFFFF8000000000000000007FFFFC0
FFFFF8000000000000000007FFFFC0
FFFFF8000000000000000007FFFFC0
FFFFF8000000000000000007FFFFC0
FFFFF8000000000000000007FFFFC0
FFFFF8000000000000000007FFFFC0
FFFFF8000000000000000007FFFFC0
FFFFF8000000000000000007FFFFC0
FFFFF8000000000000000007FFFFC0
FFFFF8000000000000000007FFFFC0
FFFFF8000000000000000007FFFFC0
FFFFF8000000000000000007FFFFC0
FFFFF8000000000000000007FFFFC0
FFFFF8000000000000000007FFFFC0
FFFFF8000000000000000007FFFFC0
FFFFF8000000000000000007FFFFC0
FFFFF8000000000000000007FFFFC0
FFFFF8000000000000000007FFFF80
FFFFF8000000000000000007FFFF80
7FFFF8000000000000000007FFFF80
7FFFF8000000000000000007FFFF80
7FFFFE00000000000000001FFFFF80
7FFFFFFFFFFFFFFFFFFFFFFFFFFF80
7FFFFFFFFFFFFFFFFFFFFFFFFFFF80
7FFFFFFFFFFFFFFFFFFFFFFFFFFF00
3FFFFFFFFFFFFFFFFFFFFFFFFFFF00
3FFFFFFFFFFFFFFFFFFFFFFFFFFF00
3FFFFFFFFFFFFFFFFFFFFFFFFFFE00
1FFFFFFFFFFFFFFFFFFFFFFFFFFE00
1FFFFFFFFFFFFFFFFFFFFFFFFFFC00
0FFFFFFFFFFFFFFFFFFFFFFFFFFC00
07FFFFFFFFFFFFFFFFFFFFFFFFF800
03FFFFFFFFFFFFFFFFFFFFFFFFF000
03FFFFFFFFFFFFFFFFFFFFFFFFF000
01FFFFFFFFFFFFFFFFFFFFFFFFE000
00FFFFFFFFFFFFFFFFFFFFFFFFC000
003FFFFFFFFFFFFFFFFFFFFFFF0000
001FFFFFFFFFFFFFFFFFFFFFFE0000
000FFFFFFFFFFFFFFFFFFFFFFC0000
0003FFFFFFFFFFFFFFFFFFFFF00000
00007FFFFFFFFFFFFFFFFFFFC00000
00000FFFFFFFFFFFFFFFFFFC000000
ENDCHAR
STARTCHAR 0031
ENCODING 49
SWIDTH 683 0
DWIDTH 123 0
BBX 115 154 4 -5
BITMAP
1FFFFFFFFFFF800000000000000000
1FFFFFFFFFFFF80000000000000000
1FFFFFFFFFFFFE0000000000000000
1FFFFFFFFFFFFF8000000000000000
1FFFFFFFFFFFFFC000000000000000
1FFFFFFFFFFFFFE000000000000000
1FFFFFFFFFFFFFF800000000000000
1FFFFFFFFFFFFFFC00000000000000
1FFFFFFFFFFFFFFE00000000000000
1FFFFFFFFFFFFFFE00000000000000
1FFFFFFFFFFFFFFF00000000000000
1FFFFFFFFFFFFFFF80000000000000
1FFFFFFFFFFFFFFF80000000000000
1FFFFFFFFFFFFFFFC0000000000000
1FFFFFFFFFFFFFFFC0000000000000
1FFFFFFFFFFFFFFFE0000000000000
1FFFFFFFFFFFFFFFE0000000000000
1FFFFFFFFFFFFFFFE0000000000000
1FFFFFFFFFFFFFFFF0000000000000
1FFFFFFFFFFFFFFFF0000000000000
000000000003FFFFF0000000000000
000000000000FFFFF0000000000000
000000000000FFFFF0000000000000
000000000000FFFFF0000000000000
000000000000FFFFF0000000000000
000000000000FFFFF8000000000000
000000000000FFFFF8000000000000
000000000000FFFFF8000000000000
000000000000FFFFF8000000000000
000000000000FFFFF8000000000000
000000000000FFFFF8000000000000
000000000000FFFFF8000000000000
000000000000FFFFF8000000000000
000000000000FFFFF8000000000000
000000000000FFFFF8000000000000
000000000000FFFFF8000000000000
000000000000FFFFF8000000000000
000000000000FFFFF8000000000000
000000000000FFFFF8000000000000
000000000000FFFFF8000000000000
000000000000FFFFF8000000000000
000000000000FFFFF8000000000000
000000000000FFFFF8000000000000
000000000000FFFFF8000000000000
000000000000FFFFF8000000000000
000000000000FFFFF8000000000000
000000000000FFFFF8000000000000
000000000000FFFFF8000000000000
000000000000FFFFF8000000000000
000000000000FFFFF8000000000000
000000000000FFFFF8000000000000
000000000000FFFFF8000000000000
000000000000FFFFF8000000000000
000000000000FFFFF8000000000000
000000000000FFFFF8000000000000
000000000000FFFFF8000000000000
000000000000FFFFF8000000000000
000000000000FFFFF8000000000000
000000000000FFFFF8000000000000
000000000000FFFFF8000000000000
000000000000FFFFF8000000000000
000000000000FFFFF8000000000000
000000000000FFFFF8000000000000
000000000000FFFFF8000000000000
000000000000FFFFF8000000000000
000000000000FFFFF8000000000000
000000000000FFFFF8000000000000
000000000000FFFFF8000000000000
000000000000FFFFF8000000000000
000000000000FFFFF8000000000000
000000000000FFFFF8000000000000
000000000000FFFFF8000000000000
000000000000FFFFF8000000000000
000000000000FFFFF8000000000000
000000000000FFFFF8000000000000
000000000000FFFFF8000000000000
000000000000FFFFF8000000000000
000000000000FFFFF8000000000000
000000000000FFFFF8000000000000
000000000000FFFFF8000000000000
000000000000FFFFF8000000000000
000000000000FFFFF8000000000000
000000000000FFFFF8000000000000
000000000000FFFFF8000000000000
000000000000FFFFF8000000000000
000000000000FFFFF8000000000000
000000000000FFFFF8000000000000
000000000000FFFFF8000000000000
000000000000FFFFF8000000000000
000000000000FFFFF8000000000000
000000000000FFFFF8000000000000
000000000000FFFFF8000000000000
000000000000FFFFF8000000000000
000000000000FFFFF8000000000000
000000000000FFFFF8000000000000
000000000000FFFFF8000000000000
000000000000FFFFF8000000000000
000000000000FFFFF8000000000000
000000000000FFFFF8000000000000
000000000000FFFFF8000000000000
000000000000FFFFF8000000000000
000000000000FFFFF8000000000000
000000000000FFFFF8000000000000
000000000000FFFFF8000000000000
000000000000FFFFF8000000000000
000000000000FFFFF8000000000000
000000000000FFFFF8000000000000
000000000000FFFFF8000000000000
000000000000FFFFF8000000000000
000000000000FFFFF8000000000000
000000000000FFFFF8000000000000
000000000000FFFFF8000000000000
000000000000FFFFF8000000000000
000000000000FFFFF8000000000000
000000000000FFFFF8000000000000
000000000000FFFFF8000000000000
000000000000FFFFF8000000000000
000000000000FFFFF8000000000000
000000000000FFFFF8000000000000
000000000000FFFFF8000000000000
000000000000FFFFF8000000000000
000000000000FFFFF8000000000000
000000000000FFFFF8000000000000
000000000000FFFFF8000000000000
000000000000FFFFF8000000000000
000000000000FFFFF8000000000000
000000000000FFFFF8000000000000
000000000000FFFFF8000000000000
000000000000FFFFF8000000000000
000000000000FFFFF8000000000000
000000000000FFFFF8000000000000
000000000000FFFFF8000000000000
000000000000FFFFF8000000000000
000000000000FFFFF8000000000000
FFFFFFFFFFFFFFFFFFFFFFFFFFFFE0
FFFFFFFFFFFFFFFFFFFFFFFFFFFFE0
FFFFFFFFFFFFFFFFFFFFFFFFFFFFE0
FFFFFFFFFFFFFFFFFFFFFFFFFFFFE0
FFFFFFFFFFFFFFFFFFFFFFFFFFFFE0
FFFFFFFFFFFFFFFFFFFFFFFFFFFFE0
FFFFFFFFFFFFFFFFFFFFFFFFFFFFE0
FFFFFFFFFFFFFFFFFFFFFFFFFFFFE0
FFFFFFFFFFFFFFFFFFFFFFFFFFFFE0
FFFFFFFFFFFFFFFFFFFFFFFFFFFFE0
FFFFFFFFFFFFFFFFFFFFFFFFFFFFE0
FFFFFFFFFFFFFFFFFFFFFFFFFFFFE0
FFFFFFFFFFFFFFFFFFFFFFFFFFFFE0
FFFFFFFFFFFFFFFFFFFFFFFFFFFFE0
FFFFFFFFFFFFFFFFFFFFFFFFFFFFE0
FFFFFFFFFFFFFFFFFFFFFFFFFFFFE0
FFFFFFFFFFFFFFFFFFFFFFFFFFFFE0
FFFFFFFFFFFFFFFFFFFFFFFFFFFFE0
FFFFFFFFFFFFFFFFFFFFFFFFFFFFE0
FFFFFFFFFFFFFFFFFFFFFFFFFFFFE0
ENDCHAR
STARTCHAR 0032
ENCODING 50
SWIDTH 672 0
DWIDTH 121 0
BBX 113 154 4 -5
BITMAP
FFFFFFFFFFFFFFFFFFFFFFF8000000
FFFFFFFFFFFFFFFFFFFFFFFF800000
FFFFFFFFFFFFFFFFFFFFFFFFE00000
FFFFFFFFFFFFFFFFFFFFFFFFF80000
FFFFFFFFFFFFFFFFFFFFFFFFFC0000
FFFFFFFFFFFFFFFFFFFFFFFFFE0000
FFFFFFFFFFFFFFFFFFFFFFFFFF8000
FFFFFFFFFFFFFFFFFFFFFFFFFFC000
FFFFFFFFFFFFFFFFFFFFFFFFFFC000
FFFFFFFFFFFFFFFFFFFFFFFFFFE000
FFFFFFFFFFFFFFFFFFFFFFFFFFF000
FFFFFFFFFFFFFFFFFFFFFFFFFFF800
FFFFFFFFFFFFFFFFFFFFFFFFFFF800
FFFFFFFFFFFFFFFFFFFFFFFFFFFC00
FFFFFFFFFFFFFFFFFFFFFFFFFFFC00
FFFFFFFFFFFFFFFFFFFFFFFFFFFE00
FFFFFFFFFFFFFFFFFFFFFFFFFFFE00
FFFFFFFFFFFFFFFFFFFFFFFFFFFE00
FFFFFFFFFFFFFFFFFFFFFFFFFFFF00
FFFFFFFFFFFFFFFFFFFFFFFFFFFF00
00000000000000000000003FFFFF00
00000000000000000000000FFFFF00
00000000000000000000000FFFFF00
00000000000000000000000FFFFF00
00000000000000000000000FFFFF00
00000000000000000000000FFFFF80
00000000000000000000000FFFFF80
00000000000000000000000FFFFF80
00000000000000000000000FFFFF80
00000000000000000000000FFFFF80
00000000000000000000000FFFFF80
00000000000000000000000FFFFF80
00000000000000000000000FFFFF80
00000000000000000000000FFFFF80
00000000000000000000000FFFFF80
00000000000000000000000FFFFF80
00000000000000000000000FFFFF80
00000000000000000000000FFFFF80
00000000000000000000000FFFFF80
00000000000000000000000FFFFF80
00000000000000000000000FFFFF80
00000000000000000000000FFFFF80
00000000000000000000000FFFFF80
00000000000000000000000FFFFF80
00000000000000000000000FFFFF80
00000000000000000000000FFFFF80
00000000000000000000000FFFFF80
00000000000000000000000FFFFF80
00000000000000000000000FFFFF80
00000000000000000000000FFFFF80
00000000000000000000000FFFFF00
00000000000000000000000FFFFF00
00000000000000000000000FFFFF00
00000000000000000000001FFFFF00
00000000000000000000001FFFFF00
00000000000000000000003FFFFF00
00000000000000000000007FFFFF00
0000000000000000000001FFFFFF00
0000000000000000000003FFFFFE00
000000000000000000000FFFFFFE00
000000000000000000007FFFFFFE00
00000000000000000001FFFFFFFC00
0000000000000000001FFFFFFFFC00
000000000000000001FFFFFFFFF800
00000000000000001FFFFFFFFFF800
0000000000000001FFFFFFFFFFF000
000000000000001FFFFFFFFFFFE000
00000000000001FFFFFFFFFFFFC000
0000000000003FFFFFFFFFFFFFC000
000000000003FFFFFFFFFFFFFF8000
00000000003FFFFFFFFFFFFFFF0000
0000000003FFFFFFFFFFFFFFFE0000
000000007FFFFFFFFFFFFFFFF80000
00000007FFFFFFFFFFFFFFFFF00000
0000003FFFFFFFFFFFFFFFFFE00000
000001FFFFFFFFFFFFFFFFFF800000
000007FFFFFFFFFFFFFFFFFE000000
00001FFFFFFFFFFFFFFFFFF8000000
00007FFFFFFFFFFFFFFFFFE0000000
0001FFFFFFFFFFFFFFFFFF80000000
0003FFFFFFFFFFFFFFFFFC00000000
000FFFFFFFFFFFFFFFFFC000000000
001FFFFFFFFFFFFFFFFC0000000000
003FFFFFFFFFFFFFFFC00000000000
007FFFFFFFFFFFFFFC000000000000
00FFFFFFFFFFFFFF80000000000000
01FFFFFFFFFFFFF800000000000000
03FFFFFFFFFFFF8000000000000000
07FFFFFFFFFFF00000000000000000
07FFFFFFFFFF000000000000000000
0FFFFFFFFFF0000000000000000000
0FFFFFFFFF00000000000000000000
1FFFFFFFF000000000000000000000
1FFFFFFF8000000000000000000000
3FFFFFFE0000000000000000000000
3FFFFFF80000000000000000000000
3FFFFFE00000000000000000000000
7FFFFFC00000000000000000000000
7FFFFF800000000000000000000000
7FFFFF000000000000000000000000
7FFFFE000000000000000000000000
7FFFFC000000000000000000000000
7FFFFC000000000000000000000000
FFFFFC000000000000000000000000
FFFFF8000000000000000000000000
FFFFF8000000000000000000000000
FFFFF8000000000000000000000000
FFFFF8000000000000000000000000
FFFFF8000000000000000000000000
FFFFF8000000000000000000000000
FFFFF8000000000000000000000000
FFFFF8000000000000000000000000
FFFFF8000000000000000000000000
FFFFF8000000000000000000000000
FFFFF8000000000000000000000000
FFFFF8000000000000000000000000
FFFFF8000000000000000000000000
FFFFF8000000000000000000000000
FFFFF8000000000000000000000000
FFFFF8000000000000000000000000
FFFFF8000000000000000000000000
FFFFF8000000000000000000000000
FFFFF8000000000000000000000000
FFFFF8000000000000000000000000
FFFFF8000000000000000000000000
FFFFF8000000000000000000000000
FFFFF8000000000000000000000000
FFFFF8000000000000000000000000
FFFFF8000000000000000000000000
FFFFF8000000000000000000000000
FFFFF8000000000000000000000000
FFFFF8000000000000000000000000
FFFFF8000000000000000000000000
FFFFF8000000000000000000000000
FFFFFFFFFFFFFFFFFFFFFFFFFFFF80
FFFFFFFFFFFFFFFFFFFFFFFFFFFF80
FFFFFFFFFFFFFFFFFFFFFFFFFFFF80
FFFFFFFFFFFFFFFFFFFFFFFFFFFF80
FFFFFFFFFFFFFFFFFFFFFFFFFFFF80
FFFFFFFFFFFFFFFFFFFFFFFFFFFF80
FFFFFFFFFFFFFFFFFFFFFFFFFFFF80
FFFFFFFFFFFFFFFFFFFFFFFFFFFF80
FFFFFFFFFFFFFFFFFFFFFFFFFFFF80
FFFFFFFFFFFFFFFFFFFFFFFFFFFF80
FFFFFFFFFFFFFFFFFFFFFFFFFFFF80
7FFFFFFFFFFFFFFFFFFFFFFFFFFF80
7FFFFFFFFFFFFFFFFFFFFFFFFFFF80
7FFFFFFFFFFFFFFFFFFFFFFFFFFF80
7FFFFFFFFFFFFFFFFFFFFFFFFFFF80
3FFFFFFFFFFFFFFFFFFFFFFFFFFF80
3FFFFFFFFFFFFFFFFFFFFFFFFFFF80
1FFFFFFFFFFFFFFFFFFFFFFFFFFF80
0FFFFFFFFFFFFFFFFFFFFFFFFFFF80
01FFFFFFFFFFFFFFFFFFFFFFFFFF80
ENDCHAR
STARTCHAR 0033
ENCODING 51
SWIDTH 677 0
DWIDTH 122 0
BBX 114 154 4 -5
BITMAP
FFFFFFFFFFFFFFFFFFFFFFFC000000
FFFFFFFFFFFFFFFFFFFFFFFF800000
FFFFFFFFFFFFFFFFFFFFFFFFF00000
FFFFFFFFFFFFFFFFFFFFFFFFFC0000
FFFFFFFFFFFFFFFFFFFFFFFFFE0000
FFFFFFFFFFFFFFFFFFFFFFFFFF0000
FFFFFFFFFFFFFFFFFFFFFFFFFF8000
FFFFFFFFFFFFFFFFFFFFFFFFFFC000
FFFFFFFFFFFFFFFFFFFFFFFFFFE000
FFFFFFFFFFFFFFFFFFFFFFFFFFF000
FFFFFFFFFFFFFFFFFFFFFFFFFFF800
FFFFFFFFFFFFFFFFFFFFFFFFFFFC00
FFFFFFFFFFFFFFFFFFFFFFFFFFFC00
FFFFFFFFFFFFFFFFFFFFFFFFFFFE00
FFFFFFFFFFFFFFFFFFFFFFFFFFFE00
FFFFFFFFFFFFFFFFFFFFFFFFFFFF00
FFFFFFFFFFFFFFFFFFFFFFFFFFFF00
FFFFFFFFFFFFFFFFFFFFFFFFFFFF00
FFFFFFFFFFFFFFFFFFFFFFFFFFFF80
FFFFFFFFFFFFFFFFFFFFFFFFFFFF80
00000000000000000000001FFFFF80
000000000000000000000007FFFF80
000000000000000000000007FFFF80
000000000000000000000007FFFF80
000000000000000000000007FFFF80
000000000000000000000007FFFFC0
000000000000000000000007FFFFC0
000000000000000000000007FFFFC0
000000000000000000000007FFFFC0
000000000000000000000007FFFFC0
000000000000000000000007FFFFC0
000000000000000000000007FFFFC0
000000000000000000000007FFFFC0
000000000000000000000007FFFFC0
000000000000000000000007FFFFC0
000000000000000000000007FFFFC0
000000000000000000000007FFFFC0
000000000000000000000007FFFFC0
000000000000000000000007FFFFC0
000000000000000000000007FFFFC0
000000000000000000000007FFFFC0
000000000000000000000007FFFFC0
000000000000000000000007FFFFC0
000000000000000000000007FFFFC0
000000000000000000000007FFFFC0
000000000000000000000007FFFFC0
000000000000000000000007FFFFC0
000000000000000000000007FFFFC0
000000000000000000000007FFFFC0
000000000000000000000007FFFFC0
000000000000000000000007FFFFC0
000000000000000000000007FFFFC0
000000000000000000000007FFFFC0
000000000000000000000007FFFFC0
000000000000000000000007FFFFC0
000000000000000000000007FFFFC0
000000000000000000000007FFFFC0
000000000000000000000007FFFFC0
000000000000000000000007FFFFC0
000000000000000000000007FFFFC0
000000000000000000000007FFFFC0
000000000000000000000007FFFFC0
000000000000000000000007FFFF80
000000000000000000000007FFFF80
000000000000000000000007FFFF80
000000000000000000000007FFFF80
00000000000000000000001FFFFF80
FFFFFFFFFFFFFFFFFFFFFFFFFFFF80
FFFFFFFFFFFFFFFFFFFFFFFFFFFF80
FFFFFFFFFFFFFFFFFFFFFFFFFFFF00
FFFFFFFFFFFFFFFFFFFFFFFFFFFF00
FFFFFFFFFFFFFFFFFFFFFFFFFFFF00
FFFFFFFFFFFFFFFFFFFFFFFFFFFE00
FFFFFFFFFFFFFFFFFFFFFFFFFFFE00
FFFFFFFFFFFFFFFFFFFFFFFFFFFC00
FFFFFFFFFFFFFFFFFFFFFFFFFFF800
FFFFFFFFFFFFFFFFFFFFFFFFFFF800
FFFFFFFFFFFFFFFFFFFFFFFFFFF800
FFFFFFFFFFFFFFFFFFFFFFFFFFF800
FFFFFFFFFFFFFFFFFFFFFFFFFFFC00
FFFFFFFFFFFFFFFFFFFFFFFFFFFE00
FFFFFFFFFFFFFFFFFFFFFFFFFFFE00
FFFFFFFFFFFFFFFFFFFFFFFFFFFF00
FFFFFFFFFFFFFFFFFFFFFFFFFFFF00
FFFFFFFFFFFFFFFFFFFFFFFFFFFF00
FFFFFFFFFFFFFFFFFFFFFFFFFFFF80
FFFFFFFFFFFFFFFFFFFFFFFFFFFF80
00000000000000000000001FFFFF80
000000000000000000000007FFFF80
000000000000000000000007FFFF80
000000000000000000000007FFFF80
000000000000000000000007FFFF80
000000000000000000000007FFFFC0
000000000000000000000007FFFFC0
000000000000000000000007FFFFC0
000000000000000000000007FFFFC0
000000000000000000000007FFFFC0
000000000000000000000007FFFFC0
000000000000000000000007FFFFC0
000000000000000000000007FFFFC0
000000000000000000000007FFFFC0
000000000000000000000007FFFFC0
000000000000000000000007FFFFC0
000000000000000000000007FFFFC0
000000000000000000000007FFFFC0
000000000000000000000007FFFFC0
000000000000000000000007FFFFC0
000000000000000000000007FFFFC0
000000000000000000000007FFFFC0
000000000000000000000007FFFFC0
000000000000000000000007FFFFC0
000000000000000000000007FFFFC0
000000000000000000000007FFFFC0
000000000000000000000007FFFFC0
000000000000000000000007FFFFC0
000000000000000000000007FFFFC0
000000000000000000000007FFFFC0
000000000000000000000007FFFFC0
000000000000000000000007FFFFC0
000000000000000000000007FFFFC0
000000000000000000000007FFFFC0
000000000000000000000007FFFFC0
000000000000000000000007FFFFC0
000000000000000000000007FFFFC0
000000000000000000000007FFFFC0
000000000000000000000007FFFFC0
000000000000000000000007FFFFC0
000000000000000000000007FFFFC0
000000000000000000000007FFFFC0
000000000000000000000007FFFF80
000000000000000000000007FFFF80
000000000000000000000007FFFF80
000000000000000000000007FFFF80
00000000000000000000001FFFFF80
FFFFFFFFFFFFFFFFFFFFFFFFFFFF80
FFFFFFFFFFFFFFFFFFFFFFFFFFFF80
FFFFFFFFFFFFFFFFFFFFFFFFFFFF00
FFFFFFFFFFFFFFFFFFFFFFFFFFFF00
FFFFFFFFFFFFFFFFFFFFFFFFFFFF00
FFFFFFFFFFFFFFFFFFFFFFFFFFFE00
FFFFFFFFFFFFFFFFFFFFFFFFFFFE00
FFFFFFFFFFFFFFFFFFFFFFFFFFFC00
FFFFFFFFFFFFFFFFFFFFFFFFFFFC00
FFFFFFFFFFFFFFFFFFFFFFFFFFF800
FFFFFFFFFFFFFFFFFFFFFFFFFFF000
FFFFFFFFFFFFFFFFFFFFFFFFFFE000
FFFFFFFFFFFFFFFFFFFFFFFFFFE000
FFFFFFFFFFFFFFFFFFFFFFFFFFC000
FFFFFFFFFFFFFFFFFFFFFFFFFF0000
FFFFFFFFFFFFFFFFFFFFFFFFFE0000
FFFFFFFFFFFFFFFFFFFFFFFFFC0000
FFFFFFFFFFFFFFFFFFFFFFFFF00000
FFFFFFFFFFFFFFFFFFFFFFFF800000
FFFFFFFFFFFFFFFFFFFFFFFC000000
ENDCHAR
STARTCHAR 0034
ENCODING 52
SWIDTH 677 0
DWIDTH 122 0
BBX 113 154 4 -5
BITMAP
FFFFF800000000000000000FFFFF80
FFFFF800000000000000000FFFFF80
FFFFF800000000000000000FFFFF80
FFFFF800000000000000000FFFFF80
FFFFF800000000000000000FFFFF80
FFFFF800000000000000000FFFFF80
FFFFF800000000000000000FFFFF80
FFFFF800000000000000000FFFFF80
FFFFF800000000000000000FFFFF80
FFFFF800000000000000000FFFFF80
FFFFF800000000000000000FFFFF80
FFFFF800000000000000000FFFFF80
FFFFF800000000000000000FFFFF80
FFFFF800000000000000000FFFFF80
FFFFF800000000000000000FFFFF80
FFFFF800000000000000000FFFFF80
FFFFF800000000000000000FFFFF80
FFFFF800000000000000000FFFFF80
FFFFF800000000000000000FFFFF80
FFFFF800000000000000000FFFFF80
FFFFF800000000000000000FFFFF80
FFFFF800000000000000000FFFFF80
FFFFF800000000000000000FFFFF80
FFFFF800000000000000000FFFFF80
FFFFF800000000000000000FFFFF80
FFFFF800000000000000000FFFFF80
FFFFF800000000000000000FFFFF80
FFFFF800000000000000000FFFFF80
FFFFF800000000000000000FFFFF80
FFFFF800000000000000000FFFFF80
FFFFF800000000000000000FFFFF80
FFFFF800000000000000000FFFFF80
FFFFF800000000000000000FFFFF80
FFFFF800000000000000000FFFFF80
FFFFF800000000000000000FFFFF80
FFFFF800000000000000000FFFFF80
FFFFF800000000000000000FFFFF80
FFFFF800000000000000000FFFFF80
FFFFF800000000000000000FFFFF80
FFFFF800000000000000000FFFFF80
FFFFF800000000000000000FFFFF80
FFFFF800000000000000000FFFFF80
FFFFF800000000000000000FFFFF80
FFFFF800000000000000000FFFFF80
FFFFF800000000000000000FFFFF80
FFFFF800000000000000000FFFFF80
FFFFF800000000000000000FFFFF80
FFFFF800000000000000000FFFFF80
FFFFF800000000000000000FFFFF80
FFFFF800000000000000000FFFFF80
FFFFF800000000000000000FFFFF80
FFFFF800000000000000000FFFFF80
FFFFF800000000000000000FFFFF80
FFFFF800000000000000000FFFFF80
FFFFF800000000000000000FFFFF80
FFFFF800000000000000000FFFFF80
FFFFF800000000000000000FFFFF80
FFFFF800000000000000000FFFFF80
FFFFF800000000000000000FFFFF80
FFFFF800000000000000000FFFFF80
FFFFF800000000000000000FFFFF80
FFFFF800000000000000000FFFFF80
FFFFF800000000000000000FFFFF80
7FFFF800000000000000000FFFFF80
7FFFF800000000000000000FFFFF80
7FFFF800000000000000000FFFFF80
7FFFFE00000000000000000FFFFF80
7FFFFFFFFFFFFFFFFFFFFFFFFFFF80
7FFFFFFFFFFFFFFFFFFFFFFFFFFF80
7FFFFFFFFFFFFFFFFFFFFFFFFFFF80
3FFFFFFFFFFFFFFFFFFFFFFFFFFF80
3FFFFFFFFFFFFFFFFFFFFFFFFFFF80
1FFFFFFFFFFFFFFFFFFFFFFFFFFF80
1FFFFFFFFFFFFFFFFFFFFFFFFFFF80
0FFFFFFFFFFFFFFFFFFFFFFFFFFF80
0FFFFFFFFFFFFFFFFFFFFFFFFFFF80
07FFFFFFFFFFFFFFFFFFFFFFFFFF80
03FFFFFFFFFFFFFFFFFFFFFFFFFF80
03FFFFFFFFFFFFFFFFFFFFFFFFFF80
01FFFFFFFFFFFFFFFFFFFFFFFFFF80
00FFFFFFFFFFFFFFFFFFFFFFFFFF80
003FFFFFFFFFFFFFFFFFFFFFFFFF80
001FFFFFFFFFFFFFFFFFFFFFFFFF80
000FFFFFFFFFFFFFFFFFFFFFFFFF80
0003FFFFFFFFFFFFFFFFFFFFFFFF80
0000FFFFFFFFFFFFFFFFFFFFFFFF80
00000FFFFFFFFFFFFFFFFFFFFFFF80
00000000000000000000000FFFFF80
00000000000000000000000FFFFF80
00000000000000000000000FFFFF80
00000000000000000000000FFFFF80
00000000000000000000000FFFFF80
00000000000000000000000FFFFF80
00000000000000000000000FFFFF80
00000000000000000000000FFFFF80
00000000000000000000000FFFFF80
00000000000000000000000FFFFF80
00000000000000000000000FFFFF80
00000000000000000000000FFFFF80
00000000000000000000000FFFFF80
00000000000000000000000FFFFF80
00000000000000000000000FFFFF80
00000000000000000000000FFFFF80
00000000000000000000000FFFFF80
00000000000000000000000FFFFF80
00000000000000000000000FFFFF80
00000000000000000000000FFFFF80
00000000000000000000000FFFFF80
00000000000000000000000FFFFF80
00000000000000000000000FFFFF80
00000000000000000000000FFFFF80
00000000000000000000000FFFFF80
00000000000000000000000FFFFF80
00000000000000000000000FFFFF80
00000000000000000000000FFFFF80
00000000000000000000000FFFFF80
00000000000000000000000FFFFF80
00000000000000000000000FFFFF80
00000000000000000000000FFFFF80
00000000000000000000000FFFFF80
00000000000000000000000FFFFF80
00000000000000000000000FFFFF80
00000000000000000000000FFFFF80
00000000000000000000000FFFFF80
00000000000000000000000FFFFF80
00000000000000000000000FFFFF80
00000000000000000000000FFFFF80
00000000000000000000000FFFFF80
00000000000000000000000FFFFF80
00000000000000000000000FFFFF80
00000000000000000000000FFFFF80
00000000000000000000000FFFFF80
00000000000000000000000FFFFF80
00000000000000000000000FFFFF80
00000000000000000000000FFFFF80
00000000000000000000000FFFFF80
00000000000000000000000FFFFF80
00000000000000000000000FFFFF80
00000000000000000000000FFFFF80
00000000000000000000000FFFFF80
00000000000000000000000FFFFF80
00000000000000000000000FFFFF80
00000000000000000000000FFFFF80
00000000000000000000000FFFFF80
00000000000000000000000FFFFF80
00000000000000000000000FFFFF80
00000000000000000000000FFFFF80
00000000000000000000000FFFFF80
00000000000000000000000FFFFF80
00000000000000000000000FFFFF80
00000000000000000000000FFFFF80
00000000000000000000000FFFFF80
00000000000000000000000FFFFF80
00000000000000000000000FFFFF80
ENDCHAR
STARTCHAR 0035
ENCODING 53
SWIDTH 677 0
DWIDTH 122 0
BBX 114 154 4 -5
BITMAP
01FFFFFFFFFFFFFFFFFFFFFFFFFFC0
0FFFFFFFFFFFFFFFFFFFFFFFFFFFC0
1FFFFFFFFFFFFFFFFFFFFFFFFFFFC0
3FFFFFFFFFFFFFFFFFFFFFFFFFFFC0
3FFFFFFFFFFFFFFFFFFFFFFFFFFFC0
7FFFFFFFFFFFFFFFFFFFFFFFFFFFC0
7FFFFFFFFFFFFFFFFFFFFFFFFFFFC0
7FFFFFFFFFFFFFFFFFFFFFFFFFFFC0
7FFFFFFFFFFFFFFFFFFFFFFFFFFFC0
FFFFFFFFFFFFFFFFFFFFFFFFFFFFC0
FFFFFFFFFFFFFFFFFFFFFFFFFFFFC0
FFFFFFFFFFFFFFFFFFFFFFFFFFFFC0
FFFFFFFFFFFFFFFFFFFFFFFFFFFFC0
FFFFFFFFFFFFFFFFFFFFFFFFFFFFC0
FFFFFFFFFFFFFFFFFFFFFFFFFFFFC0
FFFFFFFFFFFFFFFFFFFFFFFFFFFFC0
FFFFFFFFFFFFFFFFFFFFFFFFFFFFC0
FFFFFFFFFFFFFFFFFFFFFFFFFFFFC0
FFFFFFFFFFFFFFFFFFFFFFFFFFFFC0
FFFFFFFFFFFFFFFFFFFFFFFFFFFFC0
FFFFF8000000000000000000000000
FFFFF8000000000000000000000000
FFFFF8000000000000000000000000
FFFFF8000000000000000000000000
FFFFF8000000000000000000000000
FFFFF8000000000000000000000000
FFFFF8000000000000000000000000
FFFFF8000000000000000000000000
FFFFF8000000000000000000000000
FFFFF8000000000000000000000000
FFFFF8000000000000000000000000
FFFFF8000000000000000000000000
FFFFF8000000000000000000000000
FFFFF8000000000000000000000000
FFFFF8000000000000000000000000
FFFFF8000000000000000000000000
FFFFF8000000000000000000000000
FFFFF8000000000000000000000000
FFFFF8000000000000000000000000
FFFFF8000000000000000000000000
FFFFF8000000000000000000000000
FFFFF8000000000000000000000000
FFFFF8000000000000000000000000
FFFFF8000000000000000000000000
FFFFF8000000000000000000000000
FFFFF8000000000000000000000000
FFFFF8000000000000000000000000
FFFFF8000000000000000000000000
FFFFF8000000000000000000000000
FFFFF8000000000000000000000000
FFFFF8000000000000000000000000
7FFFF8000000000000000000000000
7FFFF8000000000000000000000000
7FFFFC000000000000000000000000
7FFFFE000000000000000000000000
7FFFFF000000000000000000000000
7FFFFF800000000000000000000000
3FFFFFC00000000000000000000000
3FFFFFF00000000000000000000000
3FFFFFFC0000000000000000000000
1FFFFFFF8000000000000000000000
1FFFFFFFF000000000000000000000
1FFFFFFFFF00000000000000000000
0FFFFFFFFFF0000000000000000000
07FFFFFFFFFF000000000000000000
07FFFFFFFFFFF00000000000000000
03FFFFFFFFFFFF8000000000000000
01FFFFFFFFFFFFF800000000000000
00FFFFFFFFFFFFFF80000000000000
007FFFFFFFFFFFFFFC000000000000
003FFFFFFFFFFFFFFFC00000000000
001FFFFFFFFFFFFFFFFC0000000000
000FFFFFFFFFFFFFFFFFC000000000
0003FFFFFFFFFFFFFFFFFC00000000
0001FFFFFFFFFFFFFFFFFF80000000
00007FFFFFFFFFFFFFFFFFE0000000
00001FFFFFFFFFFFFFFFFFFC000000
000007FFFFFFFFFFFFFFFFFF000000
000001FFFFFFFFFFFFFFFFFF800000
0000003FFFFFFFFFFFFFFFFFE00000
00000007FFFFFFFFFFFFFFFFF00000
000000007FFFFFFFFFFFFFFFFC0000
0000000007FFFFFFFFFFFFFFFE0000
00000000007FFFFFFFFFFFFFFF0000
000000000003FFFFFFFFFFFFFF8000
0000000000003FFFFFFFFFFFFFC000
00000000000003FFFFFFFFFFFFE000
000000000000003FFFFFFFFFFFF000
0000000000000001FFFFFFFFFFF000
00000000000000001FFFFFFFFFF800
000000000000000001FFFFFFFFFC00
0000000000000000001FFFFFFFFC00
00000000000000000003FFFFFFFC00
000000000000000000007FFFFFFE00
000000000000000000000FFFFFFE00
0000000000000000000003FFFFFF00
0000000000000000000000FFFFFF00
00000000000000000000007FFFFF00
00000000000000000000003FFFFF00
00000000000000000000001FFFFF80
00000000000000000000000FFFFF80
000000000000000000000007FFFF80
000000000000000000000007FFFF80
000000000000000000000007FFFF80
000000000000000000000007FFFF80
000000000000000000000007FFFF80
000000000000000000000007FFFF80
000000000000000000000007FFFF80
000000000000000000000007FFFF80
000000000000000000000007FFFF80
000000000000000000000007FFFF80
000000000000000000000007FFFF80
000000000000000000000007FFFF80
000000000000000000000007FFFF80
000000000000000000000007FFFF80
000000000000000000000007FFFF80
000000000000000000000007FFFF80
000000000000000000000007FFFF80
000000000000000000000007FFFF80
000000000000000000000007FFFF80
000000000000000000000007FFFF80
000000000000000000000007FFFF80
000000000000000000000007FFFF80
000000000000000000000007FFFF80
000000000000000000000007FFFF80
000000000000000000000007FFFF80
000000000000000000000007FFFF80
000000000000000000000007FFFF80
000000000000000000000007FFFF80
000000000000000000000007FFFF80
000000000000000000000007FFFF80
000000000000000000000007FFFF80
000000000000000000000007FFFF80
00000000000000000000001FFFFF80
FFFFFFFFFFFFFFFFFFFFFFFFFFFF80
FFFFFFFFFFFFFFFFFFFFFFFFFFFF80
FFFFFFFFFFFFFFFFFFFFFFFFFFFF00
FFFFFFFFFFFFFFFFFFFFFFFFFFFF00
FFFFFFFFFFFFFFFFFFFFFFFFFFFF00
FFFFFFFFFFFFFFFFFFFFFFFFFFFE00
FFFFFFFFFFFFFFFFFFFFFFFFFFFE00
FFFFFFFFFFFFFFFFFFFFFFFFFFFC00
FFFFFFFFFFFFFFFFFFFFFFFFFFFC00
FFFFFFFFFFFFFFFFFFFFFFFFFFF800
FFFFFFFFFFFFFFFFFFFFFFFFFFF000
FFFFFFFFFFFFFFFFFFFFFFFFFFE000
FFFFFFFFFFFFFFFFFFFFFFFFFFC000
FFFFFFFFFFFFFFFFFFFFFFFFFF8000
FFFFFFFFFFFFFFFFFFFFFFFFFF0000
FFFFFFFFFFFFFFFFFFFFFFFFFE0000
FFFFFFFFFFFFFFFFFFFFFFFFF80000
FFFFFFFFFFFFFFFFFFFFFFFFF00000
FFFFFFFFFFFFFFFFFFFFFFFF800000
FFFFFFFFFFFFFFFFFFFFFFFC000000
ENDCHAR
STARTCHAR 0036
ENCODING 54
SWIDTH 672 0
DWIDTH 121 0
BBX 113 154 4 -5
BITMAP
00000FFFFFFFFFFFFFFFFFFFFFFF80
0000FFFFFFFFFFFFFFFFFFFFFFFF80
0003FFFFFFFFFFFFFFFFFFFFFFFF80
000FFFFFFFFFFFFFFFFFFFFFFFFF80
001FFFFFFFFFFFFFFFFFFFFFFFFF80
003FFFFFFFFFFFFFFFFFFFFFFFFF80
00FFFFFFFFFFFFFFFFFFFFFFFFFF80
01FFFFFFFFFFFFFFFFFFFFFFFFFF80
03FFFFFFFFFFFFFFFFFFFFFFFFFF80
03FFFFFFFFFFFFFFFFFFFFFFFFFF80
07FFFFFFFFFFFFFFFFFFFFFFFFFF80
0FFFFFFFFFFFFFFFFFFFFFFFFFFF80
0FFFFFFFFFFFFFFFFFFFFFFFFFFF80
1FFFFFFFFFFFFFFFFFFFFFFFFFFF80
1FFFFFFFFFFFFFFFFFFFFFFFFFFF80
3FFFFFFFFFFFFFFFFFFFFFFFFFFF80
3FFFFFFFFFFFFFFFFFFFFFFFFFFF80
7FFFFFFFFFFFFFFFFFFFFFFFFFFF80
7FFFFFFFFFFFFFFFFFFFFFFFFFFF80
7FFFFFFFFFFFFFFFFFFFFFFFFFFF80
7FFFFE000000000000000000000000
7FFFF8000000000000000000000000
7FFFF8000000000000000000000000
7FFFF8000000000000000000000000
FFFFF8000000000000000000000000
FFFFF8000000000000000000000000
FFFFF8000000000000000000000000
FFFFF8000000000000000000000000
FFFFF8000000000000000000000000
FFFFF8000000000000000000000000
FFFFF8000000000000000000000000
FFFFF8000000000000000000000000
FFFFF8000000000000000000000000
FFFFF8000000000000000000000000
FFFFF8000000000000000000000000
FFFFF8000000000000000000000000
FFFFF8000000000000000000000000
FFFFF8000000000000000000000000
FFFFF8000000000000000000000000
FFFFF8000000000000000000000000
FFFFF8000000000000000000000000
FFFFF8000000000000000000000000
FFFFF8000000000000000000000000
FFFFF8000000000000000000000000
FFFFF8000000000000000000000000
FFFFF8000000000000000000000000
FFFFF8000000000000000000000000
FFFFF8000000000000000000000000
FFFFF8000000000000000000000000
FFFFF8000000000000000000000000
FFFFF8000000000000000000000000
FFFFF8000000000000000000000000
FFFFF8000000000000000000000000
FFFFF8000000000000000000000000
FFFFF8000000000000000000000000
FFFFF8000000000000000000000000
FFFFF8000000000000000000000000
FFFFF8000000000000000000000000
FFFFF8000000000000000000000000
FFFFF8000000000000000000000000
FFFFF8000000000000000000000000
FFFFF8000000000000000000000000
FFFFF8000000000000000000000000
FFFFF8000000000000000000000000
FFFFF8000000000000000000000000
FFFFF8000000000000000000000000
FFFFF8000000000000000000000000
FFFFFFFFFFFFFFFFFFFFFFF8000000
FFFFFFFFFFFFFFFFFFFFFFFF800000
FFFFFFFFFFFFFFFFFFFFFFFFE00000
FFFFFFFFFFFFFFFFFFFFFFFFF80000
FFFFFFFFFFFFFFFFFFFFFFFFFC0000
FFFFFFFFFFFFFFFFFFFFFFFFFE0000
FFFFFFFFFFFFFFFFFFFFFFFFFF8000
FFFFFFFFFFFFFFFFFFFFFFFFFFC000
FFFFFFFFFFFFFFFFFFFFFFFFFFE000
FFFFFFFFFFFFFFFFFFFFFFFFFFE000
FFFFFFFFFFFFFFFFFFFFFFFFFFF000
FFFFFFFFFFFFFFFFFFFFFFFFFFF800
FFFFFFFFFFFFFFFFFFFFFFFFFFF800
FFFFFFFFFFFFFFFFFFFFFFFFFFFC00
FFFFFFFFFFFFFFFFFFFFFFFFFFFC00
FFFFFFFFFFFFFFFFFFFFFFFFFFFE00
FFFFFFFFFFFFFFFFFFFFFFFFFFFE00
FFFFFFFFFFFFFFFFFFFFFFFFFFFE00
FFFFFFFFFFFFFFFFFFFFFFFFFFFF00
FFFFFFFFFFFFFFFFFFFFFFFFFFFF00
FFFFF800000000000000003FFFFF00
FFFFF800000000000000000FFFFF00
FFFFF800000000000000000FFFFF00
FFFFF800000000000000000FFFFF00
FFFFF800000000000000000FFFFF00
FFFFF800000000000000000FFFFF80
FFFFF800000000000000000FFFFF80
FFFFF800000000000000000FFFFF80
FFFFF800000000000000000FFFFF80
FFFFF800000000000000000FFFFF80
FFFFF800000000000000000FFFFF80
FFFFF800000000000000000FFFFF80
FFFFF800000000000000000FFFFF80
FFFFF800000000000000000FFFFF80
FFFFF800000000000000000FFFFF80
FFFFF800000000000000000FFFFF80
FFFFF800000000000000000FFFFF80
FFFFF800000000000000000FFFFF80
FFFFF800000000000000000FFFFF80
FFFFF800000000000000000FFFFF80
FFFFF800000000000000000FFFFF80
FFFFF800000000000000000FFFFF80
FFFFF800000000000000000FFFFF80
FFFFF800000000000000000FFFFF80
FFFFF800000000000000000FFFFF80
FFFFF800000000000000000FFFFF80
FFFFF800000000000000000FFFFF80
FFFFF800000000000000000FFFFF80
FFFFF800000000000000000FFFFF80
FFFFF800000000000000000FFFFF80
FFFFF800000000000000000FFFFF80
FFFFF800000000000000000FFFFF80
FFFFF800000000000000000FFFFF80
FFFFF800000000000000000FFFFF80
FFFFF800000000000000000FFFFF80
FFFFF800000000000000000FFFFF80
FFFFF800000000000000000FFFFF80
FFFFF800000000000000000FFFFF80
FFFFF800000000000000000FFFFF80
FFFFF800000000000000000FFFFF80
FFFFF800000000000000000FFFFF80
FFFFF800000000000000000FFFFF80
FFFFF800000000000000000FFFFF00
7FFFF800000000000000000FFFFF00
7FFFF800000000000000000FFFFF00
7FFFF800000000000000000FFFFF00
7FFFFE00000000000000003FFFFF00
7FFFFFFFFFFFFFFFFFFFFFFFFFFF00
7FFFFFFFFFFFFFFFFFFFFFFFFFFF00
3FFFFFFFFFFFFFFFFFFFFFFFFFFE00
3FFFFFFFFFFFFFFFFFFFFFFFFFFE00
3FFFFFFFFFFFFFFFFFFFFFFFFFFE00
1FFFFFFFFFFFFFFFFFFFFFFFFFFC00
1FFFFFFFFFFFFFFFFFFFFFFFFFFC00
0FFFFFFFFFFFFFFFFFFFFFFFFFF800
0FFFFFFFFFFFFFFFFFFFFFFFFFF800
07FFFFFFFFFFFFFFFFFFFFFFFFF000
03FFFFFFFFFFFFFFFFFFFFFFFFE000
03FFFFFFFFFFFFFFFFFFFFFFFFE000
01FFFFFFFFFFFFFFFFFFFFFFFFC000
00FFFFFFFFFFFFFFFFFFFFFFFF8000
003FFFFFFFFFFFFFFFFFFFFFFF0000
001FFFFFFFFFFFFFFFFFFFFFFC0000
000FFFFFFFFFFFFFFFFFFFFFF80000
0003FFFFFFFFFFFFFFFFFFFFE00000
0000FFFFFFFFFFFFFFFFFFFF800000
00000FFFFFFFFFFFFFFFFFF8000000
ENDCHAR
STARTCHAR 0037
ENCODING 55
SWIDTH 672 0
DWIDTH 121 0
BBX 113 154 4 -5
BITMAP
FFFFFFFFFFFFFFFFFFFFFFF8000000
FFFFFFFFFFFFFFFFFFFFFFFF800000
FFFFFFFFFFFFFFFFFFFFFFFFE00000
FFFFFFFFFFFFFFFFFFFFFFFFF80000
FFFFFFFFFFFFFFFFFFFFFFFFFC0000
FFFFFFFFFFFFFFFFFFFFFFFFFE0000
FFFFFFFFFFFFFFFFFFFFFFFFFF8000
FFFFFFFFFFFFFFFFFFFFFFFFFFC000
FFFFFFFFFFFFFFFFFFFFFFFFFFE000
FFFFFFFFFFFFFFFFFFFFFFFFFFE000
FFFFFFFFFFFFFFFFFFFFFFFFFFF000
FFFFFFFFFFFFFFFFFFFFFFFFFFF800
FFFFFFFFFFFFFFFFFFFFFFFFFFF800
FFFFFFFFFFFFFFFFFFFFFFFFFFFC00
FFFFFFFFFFFFFFFFFFFFFFFFFFFC00
FFFFFFFFFFFFFFFFFFFFFFFFFFFE00
FFFFFFFFFFFFFFFFFFFFFFFFFFFE00
FFFFFFFFFFFFFFFFFFFFFFFFFFFE00
FFFFFFFFFFFFFFFFFFFFFFFFFFFF00
FFFFFFFFFFFFFFFFFFFFFFFFFFFF00
00000000000000000000003FFFFF00
00000000000000000000000FFFFF00
00000000000000000000000FFFFF00
00000000000000000000000FFFFF00
00000000000000000000000FFFFF00
00000000000000000000000FFFFF80
00000000000000000000000FFFFF80
00000000000000000000000FFFFF80
00000000000000000000000FFFFF80
00000000000000000000000FFFFF80
00000000000000000000000FFFFF80
00000000000000000000000FFFFF80
00000000000000000000000FFFFF80
00000000000000000000000FFFFF80
00000000000000000000000FFFFF80
00000000000000000000000FFFFF80
00000000000000000000000FFFFF80
00000000000000000000000FFFFF80
00000000000000000000000FFFFF80
00000000000000000000000FFFFF80
00000000000000000000000FFFFF80
00000000000000000000000FFFFF80
00000000000000000000000FFFFF80
00000000000000000000000FFFFF80
00000000000000000000000FFFFF80
00000000000000000000000FFFFF80
00000000000000000000000FFFFF80
00000000000000000000000FFFFF80
00000000000000000000000FFFFF80
00000000000000000000000FFFFF80
00000000000000000000000FFFFF00
00000000000000000000000FFFFF00
00000000000000000000000FFFFF00
00000000000000000000000FFFFF00
00000000000000000000001FFFFF00
00000000000000000000003FFFFF00
00000000000000000000007FFFFF00
0000000000000000000000FFFFFF00
0000000000000000000003FFFFFE00
000000000000000000000FFFFFFE00
000000000000000000003FFFFFFE00
00000000000000000001FFFFFFFC00
0000000000000000000FFFFFFFFC00
000000000000000000FFFFFFFFF800
000000000000000007FFFFFFFFF000
00000000000000001FFFFFFFFFF000
00000000000000007FFFFFFFFFE000
0000000000000001FFFFFFFFFFC000
0000000000000007FFFFFFFFFF8000
000000000000001FFFFFFFFFFF0000
000000000000003FFFFFFFFFFE0000
00000000000000FFFFFFFFFFFC0000
00000000000001FFFFFFFFFFF80000
00000000000003FFFFFFFFFFF00000
00000000000007FFFFFFFFFFC00000
0000000000000FFFFFFFFFFF000000
0000000000001FFFFFFFFFFE000000
0000000000003FFFFFFFFFF8000000
0000000000007FFFFFFFFFC0000000
0000000000007FFFFFFFFF00000000
000000000000FFFFFFFFF800000000
000000000001FFFFFFFFC000000000
000000000001FFFFFFFC0000000000
000000000001FFFFFFF00000000000
000000000003FFFFFF800000000000
000000000003FFFFFE000000000000
000000000007FFFFFC000000000000
000000000007FFFFF0000000000000
000000000007FFFFE0000000000000
000000000007FFFFC0000000000000
000000000007FFFFC0000000000000
000000000007FFFF80000000000000
000000000007FFFF80000000000000
00000000000FFFFF80000000000000
00000000000FFFFF80000000000000
00000000000FFFFF80000000000000
00000000000FFFFF80000000000000
00000000000FFFFF80000000000000
00000000000FFFFF80000000000000
00000000000FFFFF80000000000000
00000000000FFFFF80000000000000
00000000000FFFFF80000000000000
00000000000FFFFF80000000000000
00000000000FFFFF80000000000000
00000000000FFFFF80000000000000
00000000000FFFFF80000000000000
00000000000FFFFF80000000000000
00000000000FFFFF80000000000000
00000000000FFFFF80000000000000
00000000000FFFFF80000000000000
00000000000FFFFF80000000000000
00000000000FFFFF80000000000000
00000000000FFFFF80000000000000
00000000000FFFFF80000000000000
00000000000FFFFF80000000000000
00000000000FFFFF80000000000000
00000000000FFFFF80000000000000
00000000000FFFFF80000000000000
00000000000FFFFF80000000000000
00000000000FFFFF80000000000000
00000000000FFFFF80000000000000
00000000000FFFFF80000000000000
00000000000FFFFF80000000000000
00000000000FFFFF80000000000000
00000000000FFFFF80000000000000
00000000000FFFFF80000000000000
00000000000FFFFF80000000000000
00000000000FFFFF80000000000000
00000000000FFFFF80000000000000
00000000000FFFFF80000000000000
00000000000FFFFF80000000000000
00000000000FFFFF80000000000000
00000000000FFFFF80000000000000
00000000000FFFFF80000000000000
00000000000FFFFF80000000000000
00000000000FFFFF80000000000000
00000000000FFFFF80000000000000
00000000000FFFFF80000000000000
00000000000FFFFF80000000000000
00000000000FFFFF80000000000000
00000000000FFFFF80000000000000
00000000000FFFFF80000000000000
00000000000FFFFF80000000000000
00000000000FFFFF80000000000000
00000000000FFFFF80000000000000
00000000000FFFFF80000000000000
00000000000FFFFF80000000000000
00000000000FFFFF80000000000000
00000000000FFFFF80000000000000
00000000000FFFFF80000000000000
00000000000FFFFF80000000000000
00000000000FFFFF80000000000000
00000000000FFFFF80000000000000
00000000000FFFFF80000000000000
ENDCHAR
STARTCHAR 0038
ENCODING 56
SWIDTH 672 0
DWIDTH 121 0
BBX 113 154 4 -5
BITMAP
00000FFFFFFFFFFFFFFFFFF8000000
0000FFFFFFFFFFFFFFFFFFFF800000
0003FFFFFFFFFFFFFFFFFFFFE00000
000FFFFFFFFFFFFFFFFFFFFFF80000
001FFFFFFFFFFFFFFFFFFFFFFC0000
003FFFFFFFFFFFFFFFFFFFFFFE0000
00FFFFFFFFFFFFFFFFFFFFFFFF8000
01FFFFFFFFFFFFFFFFFFFFFFFFC000
03FFFFFFFFFFFFFFFFFFFFFFFFE000
03FFFFFFFFFFFFFFFFFFFFFFFFE000
07FFFFFFFFFFFFFFFFFFFFFFFFF000
0FFFFFFFFFFFFFFFFFFFFFFFFFF800
0FFFFFFFFFFFFFFFFFFFFFFFFFF800
1FFFFFFFFFFFFFFFFFFFFFFFFFFC00
1FFFFFFFFFFFFFFFFFFFFFFFFFFC00
3FFFFFFFFFFFFFFFFFFFFFFFFFFE00
3FFFFFFFFFFFFFFFFFFFFFFFFFFE00
7FFFFFFFFFFFFFFFFFFFFFFFFFFE00
7FFFFFFFFFFFFFFFFFFFFFFFFFFF00
7FFFFFFFFFFFFFFFFFFFFFFFFFFF00
7FFFFE00000000000000003FFFFF00
7FFFF800000000000000000FFFFF00
7FFFF800000000000000000FFFFF00
7FFFF800000000000000000FFFFF00
FFFFF800000000000000000FFFFF00
FFFFF800000000000000000FFFFF80
FFFFF800000000000000000FFFFF80
FFFFF800000000000000000FFFFF80
FFFFF800000000000000000FFFFF80
FFFFF800000000000000000FFFFF80
FFFFF800000000000000000FFFFF80
FFFFF800000000000000000FFFFF80
FFFFF800000000000000000FFFFF80
FFFFF800000000000000000FFFFF80
FFFFF800000000000000000FFFFF80
FFFFF800000000000000000FFFFF80
FFFFF800000000000000000FFFFF80
FFFFF800000000000000000FFFFF80
FFFFF800000000000000000FFFFF80
FFFFF800000000000000000FFFFF80
FFFFF800000000000000000FFFFF80
FFFFF800000000000000000FFFFF80
FFFFF800000000000000000FFFFF80
FFFFF800000000000000000FFFFF80
FFFFF800000000000000000FFFFF80
FFFFF800000000000000000FFFFF80
FFFFF800000000000000000FFFFF80
FFFFF800000000000000000FFFFF80
FFFFF800000000000000000FFFFF80
FFFFF800000000000000000FFFFF80
7FFFF800000000000000000FFFFF00
7FFFF800000000000000000FFFFF00
7FFFF800000000000000000FFFFF00
7FFFFC00000000000000001FFFFF00
7FFFFC00000000000000001FFFFF00
7FFFFE00000000000000003FFFFF00
7FFFFF00000000000000007FFFFF00
3FFFFF8000000000000001FFFFFE00
3FFFFFE000000000000003FFFFFE00
3FFFFFF80000000000000FFFFFFE00
1FFFFFFE0000000000003FFFFFFC00
1FFFFFFFC00000000001FFFFFFFC00
0FFFFFFFF8000000000FFFFFFFF800
0FFFFFFFFF00000000FFFFFFFFF800
07FFFFFFFFF800000FFFFFFFFFF000
03FFFFFFFFFF8001FFFFFFFFFFF000
03FFFFFFFFFFFC1FFFFFFFFFFFE000
01FFFFFFFFFFFFFFFFFFFFFFFFC000
00FFFFFFFFFFFFFFFFFFFFFFFF8000
007FFFFFFFFFFFFFFFFFFFFFFF0000
003FFFFFFFFFFFFFFFFFFFFFFE0000
001FFFFFFFFFFFFFFFFFFFFFFC0000
0007FFFFFFFFFFFFFFFFFFFFF80000
0003FFFFFFFFFFFFFFFFFFFFE00000
0001FFFFFFFFFFFFFFFFFFFFC00000
00007FFFFFFFFFFFFFFFFFFF000000
00001FFFFFFFFFFFFFFFFFFC000000
00001FFFFFFFFFFFFFFFFFFC000000
00007FFFFFFFFFFFFFFFFFFF000000
0001FFFFFFFFFFFFFFFFFFFFC00000
0003FFFFFFFFFFFFFFFFFFFFE00000
0007FFFFFFFFFFFFFFFFFFFFF80000
001FFFFFFFFFFFFFFFFFFFFFFC0000
003FFFFFFFFFFFFFFFFFFFFFFE0000
007FFFFFFFFFFFFFFFFFFFFFFF0000
00FFFFFFFFFFFFFFFFFFFFFFFF8000
01FFFFFFFFFFFFFFFFFFFFFFFFC000
03FFFFFFFFFFFC1FFFFFFFFFFFE000
03FFFFFFFFFF8001FFFFFFFFFFF000
07FFFFFFFFF800000FFFFFFFFFF000
0FFFFFFFFF80000000FFFFFFFFF800
0FFFFFFFF8000000000FFFFFFFF800
1FFFFFFFC00000000001FFFFFFFC00
1FFFFFFE0000000000007FFFFFFC00
3FFFFFF80000000000000FFFFFFE00
3FFFFFE000000000000003FFFFFE00
3FFFFFC000000000000001FFFFFE00
7FFFFF00000000000000007FFFFF00
7FFFFE00000000000000003FFFFF00
7FFFFC00000000000000001FFFFF00
7FFFFC00000000000000001FFFFF00
7FFFF800000000000000000FFFFF00
7FFFF800000000000000000FFFFF00
FFFFF800000000000000000FFFFF00
FFFFF800000000000000000FFFFF80
FFFFF800000000000000000FFFFF80
FFFFF800000000000000000FFFFF80
FFFFF800000000000000000FFFFF80
FFFFF800000000000000000FFFFF80
FFFFF800000000000000000FFFFF80
FFFFF800000000000000000FFFFF80
FFFFF800000000000000000FFFFF80
FFFFF800000000000000000FFFFF80
FFFFF800000000000000000FFFFF80
FFFFF800000000000000000FFFFF80
FFFFF800000000000000000FFFFF80
FFFFF800000000000000000FFFFF80
FFFFF800000000000000000FFFFF80
FFFFF800000000000000000FFFFF80
FFFFF800000000000000000FFFFF80
FFFFF800000000000000000FFFFF80
FFFFF800000000000000000FFFFF80
FFFFF800000000000000000FFFFF80
FFFFF800000000000000000FFFFF80
FFFFF800000000000000000FFFFF80
FFFFF800000000000000000FFFFF80
FFFFF800000000000000000FFFFF80
FFFFF800000000000000000FFFFF80
FFFFF800000000000000000FFFFF80
FFFFF800000000000000000FFFFF00
7FFFF800000000000000000FFFFF00
7FFFF800000000000000000FFFFF00
7FFFF800000000000000000FFFFF00
7FFFFE00000000000000003FFFFF00
7FFFFFFFFFFFFFFFFFFFFFFFFFFF00
7FFFFFFFFFFFFFFFFFFFFFFFFFFF00
3FFFFFFFFFFFFFFFFFFFFFFFFFFE00
3FFFFFFFFFFFFFFFFFFFFFFFFFFE00
3FFFFFFFFFFFFFFFFFFFFFFFFFFE00
1FFFFFFFFFFFFFFFFFFFFFFFFFFC00
1FFFFFFFFFFFFFFFFFFFFFFFFFFC00
0FFFFFFFFFFFFFFFFFFFFFFFFFF800
0FFFFFFFFFFFFFFFFFFFFFFFFFF800
07FFFFFFFFFFFFFFFFFFFFFFFFF000
03FFFFFFFFFFFFFFFFFFFFFFFFE000
03FFFFFFFFFFFFFFFFFFFFFFFFE000
01FFFFFFFFFFFFFFFFFFFFFFFFC000
00FFFFFFFFFFFFFFFFFFFFFFFF8000
003FFFFFFFFFFFFFFFFFFFFFFF0000
001FFFFFFFFFFFFFFFFFFFFFFC0000
000FFFFFFFFFFFFFFFFFFFFFF80000
0003FFFFFFFFFFFFFFFFFFFFE00000
0000FFFFFFFFFFFFFFFFFFFF800000
00000FFFFFFFFFFFFFFFFFF8000000
ENDCHAR
STARTCHAR 0039
ENCODING 57
SWIDTH 672 0
DWIDTH 121 0
BBX 113 154 4 -5
BITMAP
00000FFFFFFFFFFFFFFFFFF8000000
0000FFFFFFFFFFFFFFFFFFFF800000
0003FFFFFFFFFFFFFFFFFFFFE00000
000FFFFFFFFFFFFFFFFFFFFFF80000
001FFFFFFFFFFFFFFFFFFFFFFC0000
003FFFFFFFFFFFFFFFFFFFFFFE0000
00FFFFFFFFFFFFFFFFFFFFFFFF8000
01FFFFFFFFFFFFFFFFFFFFFFFFC000
03FFFFFFFFFFFFFFFFFFFFFFFFE000
03FFFFFFFFFFFFFFFFFFFFFFFFE000
07FFFFFFFFFFFFFFFFFFFFFFFFF000
0FFFFFFFFFFFFFFFFFFFFFFFFFF800
0FFFFFFFFFFFFFFFFFFFFFFFFFF800
1FFFFFFFFFFFFFFFFFFFFFFFFFFC00
1FFFFFFFFFFFFFFFFFFFFFFFFFFC00
3FFFFFFFFFFFFFFFFFFFFFFFFFFE00
3FFFFFFFFFFFFFFFFFFFFFFFFFFE00
7FFFFFFFFFFFFFFFFFFFFFFFFFFE00
7FFFFFFFFFFFFFFFFFFFFFFFFFFF00
7FFFFFFFFFFFFFFFFFFFFFFFFFFF00
7FFFFE00000000000000003FFFFF00
7FFFF800000000000000000FFFFF00
7FFFF800000000000000000FFFFF00
7FFFF800000000000000000FFFFF00
FFFFF800000000000000000FFFFF00
FFFFF800000000000000000FFFFF80
FFFFF800000000000000000FFFFF80
FFFFF800000000000000000FFFFF80
FFFFF800000000000000000FFFFF80
FFFFF800000000000000000FFFFF80
FFFFF800000000000000000FFFFF80
FFFFF800000000000000000FFFFF80
FFFFF800000000000000000FFFFF80
FFFFF800000000000000000FFFFF80
FFFFF800000000000000000FFFFF80
FFFFF800000000000000000FFFFF80
FFFFF800000000000000000FFFFF80
FFFFF800000000000000000FFFFF80
FFFFF800000000000000000FFFFF80
FFFFF800000000000000000FFFFF80
FFFFF800000000000000000FFFFF80
FFFFF800000000000000000FFFFF80
FFFFF800000000000000000FFFFF80
FFFFF800000000000000000FFFFF80
FFFFF800000000000000000FFFFF80
FFFFF800000000000000000FFFFF80
FFFFF800000000000000000FFFFF80
FFFFF800000000000000000FFFFF80
FFFFF800000000000000000FFFFF80
FFFFF800000000000000000FFFFF80
FFFFF800000000000000000FFFFF80
FFFFF800000000000000000FFFFF80
FFFFF800000000000000000FFFFF80
FFFFF800000000000000000FFFFF80
FFFFF800000000000000000FFFFF80
FFFFF800000000000000000FFFFF80
FFFFF800000000000000000FFFFF80
FFFFF800000000000000000FFFFF80
FFFFF800000000000000000FFFFF80
FFFFF800000000000000000FFFFF80
FFFFF800000000000000000FFFFF80
FFFFF800000000000000000FFFFF80
FFFFF800000000000000000FFFFF80
7FFFF800000000000000000FFFFF80
7FFFF800000000000000000FFFFF80
7FFFF800000000000000000FFFFF80
7FFFFE00000000000000000FFFFF80
7FFFFFFFFFFFFFFFFFFFFFFFFFFF80
7FFFFFFFFFFFFFFFFFFFFFFFFFFF80
7FFFFFFFFFFFFFFFFFFFFFFFFFFF80
3FFFFFFFFFFFFFFFFFFFFFFFFFFF80
3FFFFFFFFFFFFFFFFFFFFFFFFFFF80
1FFFFFFFFFFFFFFFFFFFFFFFFFFF80
1FFFFFFFFFFFFFFFFFFFFFFFFFFF80
0FFFFFFFFFFFFFFFFFFFFFFFFFFF80
0FFFFFFFFFFFFFFFFFFFFFFFFFFF80
07FFFFFFFFFFFFFFFFFFFFFFFFFF80
03FFFFFFFFFFFFFFFFFFFFFFFFFF80
03FFFFFFFFFFFFFFFFFFFFFFFFFF80
01FFFFFFFFFFFFFFFFFFFFFFFFFF80
00FFFFFFFFFFFFFFFFFFFFFFFFFF80
003FFFFFFFFFFFFFFFFFFFFFFFFF80
001FFFFFFFFFFFFFFFFFFFFFFFFF80
000FFFFFFFFFFFFFFFFFFFFFFFFF80
0003FFFFFFFFFFFFFFFFFFFFFFFF80
0000FFFFFFFFFFFFFFFFFFFFFFFF80
00000FFFFFFFFFFFFFFFFFFFFFFF80
00000000000000000000000FFFFF80
00000000000000000000000FFFFF80
00000000000000000000000FFFFF80
00000000000000000000000FFFFF80
00000000000000000000000FFFFF80
00000000000000000000000FFFFF80
00000000000000000000000FFFFF80
00000000000000000000000FFFFF80
00000000000000000000000FFFFF80
00000000000000000000000FFFFF80
00000000000000000000000FFFFF80
00000000000000000000000FFFFF80
00000000000000000000000FFFFF80
00000000000000000000000FFFFF80
00000000000000000000000FFFFF80
00000000000000000000000FFFFF80
00000000000000000000000FFFFF80
00000000000000000000000FFFFF80
00000000000000000000000FFFFF80
00000000000000000000000FFFFF80
00000000000000000000000FFFFF80
00000000000000000000000FFFFF80
00000000000000000000000FFFFF80
00000000000000000000000FFFFF80
00000000000000000000000FFFFF80
00000000000000000000000FFFFF80
00000000000000000000000FFFFF80
00000000000000000000000FFFFF80
00000000000000000000000FFFFF80
00000000000000000000000FFFFF80
00000000000000000000000FFFFF80
00000000000000000000000FFFFF80
00000000000000000000000FFFFF80
00000000000000000000000FFFFF80
00000000000000000000000FFFFF80
00000000000000000000000FFFFF80
00000000000000000000000FFFFF80
00000000000000000000000FFFFF80
00000000000000000000000FFFFF80
00000000000000000000000FFFFF80
00000000000000000000000FFFFF80
00000000000000000000000FFFFF80
00000000000000000000000FFFFF00
00000000000000000000000FFFFF00
00000000000000000000000FFFFF00
00000000000000000000000FFFFF00
00000000000000000000003FFFFF00
FFFFFFFFFFFFFFFFFFFFFFFFFFFF00
FFFFFFFFFFFFFFFFFFFFFFFFFFFF00
FFFFFFFFFFFFFFFFFFFFFFFFFFFE00
FFFFFFFFFFFFFFFFFFFFFFFFFFFE00
FFFFFFFFFFFFFFFFFFFFFFFFFFFE00
FFFFFFFFFFFFFFFFFFFFFFFFFFFC00
FFFFFFFFFFFFFFFFFFFFFFFFFFFC00
FFFFFFFFFFFFFFFFFFFFFFFFFFF800
FFFFFFFFFFFFFFFFFFFFFFFFFFF800
FFFFFFFFFFFFFFFFFFFFFFFFFFF000
FFFFFFFFFFFFFFFFFFFFFFFFFFE000
FFFFFFFFFFFFFFFFFFFFFFFFFFE000
FFFFFFFFFFFFFFFFFFFFFFFFFFC000
FFFFFFFFFFFFFFFFFFFFFFFFFF8000
FFFFFFFFFFFFFFFFFFFFFFFFFF0000
FFFFFFFFFFFFFFFFFFFFFFFFFC0000
FFFFFFFFFFFFFFFFFFFFFFFFF80000
FFFFFFFFFFFFFFFFFFFFFFFFE00000
FFFFFFFFFFFFFFFFFFFFFFFF800000
FFFFFFFFFFFFFFFFFFFFFFF8000000
ENDCHAR
STARTCHAR 003A
ENCODING 58
SWIDTH 161 0
DWIDTH 29 0
BBX 21 80 4 -5
BITMAP
FFFFF8
FFFFF8
FFFFF8
FFFFF8
FFFFF8
FFFFF8
FFFFF8
FFFFF8
FFFFF8
FFFFF8
FFFFF8
FFFFF8
FFFFF8
FFFFF8
FFFFF8
FFFFF8
FFFFF8
FFFFF8
FFFFF8
FFFFF8
FFFFF8
FFFFF8
000000
000000
000000
000000
000000
000000
000000
000000
000000
000000
000000
000000
000000
000000
000000
000000
000000
000000
000000
000000
000000
000000
000000
000000
000000
000000
000000
000000
000000
000000
000000
000000
000000
000000
000000
000000
FFFFF8
FFFFF8
FFFFF8
FFFFF8
FFFFF8
FFFFF8
FFFFF8
FFFFF8
FFFFF8
FFFFF8
FFFFF8
FFFFF8
FFFFF8
FFFFF8
FFFFF8
FFFFF8
FFFFF8
FFFFF8
FFFFF8
FFFFF8
FFFFF8
FFFFF8
ENDCHAR
STARTCHAR 003B
ENCODING 59
SWIDTH 161 0
DWIDTH 29 0
BBX 21 98 4 -23
BITMAP
FFFFF8
FFFFF8
FFFFF8
FFFFF8
FFFFF8
FFFFF8
FFFFF8
FFFFF8
FFFFF8
FFFFF8
FFFFF8
FFFFF8
FFFFF8
FFFFF8
FFFFF8
FFFFF8
FFFFF8
FFFFF8
FFFFF8
FFFFF8
FFFFF8
FFFFF8
000000
000000
000000
000000
000000
000000
000000
000000
000000
000000
000000
000000
000000
000000
000000
000000
000000
000000
000000
000000
000000
000000
000000
000000
000000
000000
000000
000000
000000
000000
000000
000000
000000
000000
000000
000000
FFFFF8
FFFFF8
FFFFF8
FFFFF8
FFFFF8
FFFFF8
FFFFF8
FFFFF8
FFFFF8
FFFFF8
FFFFF8
FFFFF8
FFFFF8
FFFFF8
FFFFF8
FFFFF8
FFFFF8
FFFFF8
FFFFF8
FFFFF8
FFFFF8
FFFFF8
FFFFF8
FFFFF8
FFFFF8
FFFFF8
FFFFF8
FFFFF8
FFFFF8
FFFFF8
FFFFF8
FFFFF8
FFFFF8
FFFFF8
FFFFF8
FFFFF8
FFFFF8
FFFFF8
FFFFF8
FFFFF8
ENDCHAR
STARTCHAR 003C
ENCODING 60
SWIDTH 488 0
DWIDTH 88 0
BBX 80 92 4 25
BITMAP
00000000000000000001
0000000000000000000F
0000000000000000003F
000000000000000000FF
000000000000000003FF
00000000000000000FFF
00000000000000003FFF
0000000000000000FFFF
0000000000000007FFFF
000000000000001FFFFF
000000000000007FFFFF
00000000000001FFFFFF
00000000000007FFFFFF
0000000000001FFFFFFF
000000000000FFFFFFFF
000000000003FFFFFFFF
00000000000FFFFFFFFF
00000000003FFFFFFFFF
0000000000FFFFFFFFFF
0000000003FFFFFFFFFF
000000001FFFFFFFFFFF
000000007FFFFFFFFFFF
00000001FFFFFFFFFFFF
00000007FFFFFFFFFFFE
0000001FFFFFFFFFFFF8
0000007FFFFFFFFFFFE0
000001FFFFFFFFFFFF00
00000FFFFFFFFFFFFC00
00003FFFFFFFFFFFF000
0000FFFFFFFFFFFFC000
0003FFFFFFFFFFFF0000
000FFFFFFFFFFFFC0000
003FFFFFFFFFFFF00000
01FFFFFFFFFFFF800000
07FFFFFFFFFFFE000000
1FFFFFFFFFFFF8000000
7FFFFFFFFFFFE0000000
FFFFFFFFFFFF80000000
FFFFFFFFFFFE00000000
FFFFFFFFFFF000000000
FFFFFFFFFFC000000000
FFFFFFFFFF0000000000
FFFFFFFFFC0000000000
FFFFFFFFF00000000000
FFFFFFFFC00000000000
FFFFFFFE000000000000
FFFFFFF8000000000000
FFFFFFFE000000000000
FFFFFFFF800000000000
FFFFFFFFE00000000000
FFFFFFFFFC0000000000
FFFFFFFFFF0000000000
FFFFFFFFFFC000000000
FFFFFFFFFFF000000000
FFFFFFFFFFFC00000000
7FFFFFFFFFFF00000000
1FFFFFFFFFFFE0000000
07FFFFFFFFFFF8000000
01FFFFFFFFFFFE000000
007FFFFFFFFFFF800000
001FFFFFFFFFFFE00000
0003FFFFFFFFFFF80000
0000FFFFFFFFFFFF0000
00003FFFFFFFFFFFC000
00000FFFFFFFFFFFF000
000003FFFFFFFFFFFC00
000000FFFFFFFFFFFF00
0000001FFFFFFFFFFFC0
00000007FFFFFFFFFFF8
00000001FFFFFFFFFFFE
000000007FFFFFFFFFFF
000000001FFFFFFFFFFF
0000000007FFFFFFFFFF
0000000000FFFFFFFFFF
00000000003FFFFFFFFF
00000000000FFFFFFFFF
000000000003FFFFFFFF
000000000000FFFFFFFF
0000000000003FFFFFFF
00000000000007FFFFFF
00000000000001FFFFFF
000000000000007FFFFF
000000000000001FFFFF
0000000000000007FFFF
0000000000000001FFFF
00000000000000003FFF
00000000000000000FFF
000000000000000003FF
000000000000000000FF
0000000000000000003F
0000000000000000000F
00000000000000000001
ENDCHAR
STARTCHAR 003D
ENCODING 61
SWIDTH 488 0
DWIDTH 88 0
BBX 79 56 4 44
BITMAP
FFFFFFFFFFFFFFFFFFFE
FFFFFFFFFFFFFFFFFFFE
FFFFFFFFFFFFFFFFFFFE
FFFFFFFFFFFFFFFFFFFE
FFFFFFFFFFFFFFFFFFFE
FFFFFFFFFFFFFFFFFFFE
FFFFFFFFFFFFFFFFFFFE
FFFFFFFFFFFFFFFFFFFE
FFFFFFFFFFFFFFFFFFFE
FFFFFFFFFFFFFFFFFFFE
FFFFFFFFFFFFFFFFFFFE
FFFFFFFFFFFFFFFFFFFE
FFFFFFFFFFFFFFFFFFFE
FFFFFFFFFFFFFFFFFFFE
FFFFFFFFFFFFFFFFFFFE
FFFFFFFFFFFFFFFFFFFE
FFFFFFFFFFFFFFFFFFFE
FFFFFFFFFFFFFFFFFFFE
FFFFFFFFFFFFFFFFFFFE
FFFFFFFFFFFFFFFFFFFE
00000000000000000000
00000000000000000000
00000000000000000000
00000000000000000000
00000000000000000000
00000000000000000000
00000000000000000000
00000000000000000000
00000000000000000000
00000000000000000000
00000000000000000000
00000000000000000000
00000000000000000000
00000000000000000000
00000000000000000000
00000000000000000000
FFFFFFFFFFFFFFFFFFFE
FFFFFFFFFFFFFFFFFFFE
FFFFFFFFFFFFFFFFFFFE
FFFFFFFFFFFFFFFFFFFE
FFFFFFFFFFFFFFFFFFFE
FFFFFFFFFFFFFFFFFFFE
FFFFFFFFFFFFFFFFFFFE
FFFFFFFFFFFFFFFFFFFE
FFFFFFFFFFFFFFFFFFFE
FFFFFFFFFFFFFFFFFFFE
FFFFFFFFFFFFFFFFFFFE
FFFFFFFFFFFFFFFFFFFE
FFFFFFFFFFFFFFFFFFFE
FFFFFFFFFFFFFFFFFFFE
FFFFFFFFFFFFFFFFFFFE
FFFFFFFFFFFFFFFFFFFE
FFFFFFFFFFFFFFFFFFFE
FFFFFFFFFFFFFFFFFFFE
FFFFFFFFFFFFFFFFFFFE
FFFFFFFFFFFFFFFFFFFE
ENDCHAR
STARTCHAR 003E
ENCODING 62
SWIDTH 488 0
DWIDTH 88 0
BBX 80 92 4 25
BITMAP
C0000000000000000000
F0000000000000000000
FC000000000000000000
FF000000000000000000
FFC00000000000000000
FFF00000000000000000
FFFE0000000000000000
FFFF8000000000000000
FFFFE000000000000000
FFFFF800000000000000
FFFFFE00000000000000
FFFFFF80000000000000
FFFFFFE0000000000000
FFFFFFFC000000000000
FFFFFFFF000000000000
FFFFFFFFC00000000000
FFFFFFFFF00000000000
FFFFFFFFFC0000000000
FFFFFFFFFF0000000000
FFFFFFFFFFE000000000
FFFFFFFFFFF800000000
FFFFFFFFFFFE00000000
7FFFFFFFFFFF80000000
0FFFFFFFFFFFE0000000
03FFFFFFFFFFF8000000
00FFFFFFFFFFFF000000
003FFFFFFFFFFFC00000
000FFFFFFFFFFFF00000
0003FFFFFFFFFFFC0000
00007FFFFFFFFFFF0000
00001FFFFFFFFFFFC000
000007FFFFFFFFFFF000
000001FFFFFFFFFFFE00
0000007FFFFFFFFFFF80
0000001FFFFFFFFFFFE0
00000003FFFFFFFFFFF8
00000000FFFFFFFFFFFE
000000003FFFFFFFFFFF
000000000FFFFFFFFFFF
0000000003FFFFFFFFFF
0000000000FFFFFFFFFF
00000000003FFFFFFFFF
000000000007FFFFFFFF
000000000001FFFFFFFF
0000000000007FFFFFFF
0000000000001FFFFFFF
0000000000007FFFFFFF
000000000001FFFFFFFF
000000000007FFFFFFFF
00000000003FFFFFFFFF
0000000000FFFFFFFFFF
0000000003FFFFFFFFFF
000000000FFFFFFFFFFF
000000003FFFFFFFFFFF
00000000FFFFFFFFFFFF
00000007FFFFFFFFFFFF
0000001FFFFFFFFFFFF8
0000007FFFFFFFFFFFE0
000001FFFFFFFFFFFF80
000007FFFFFFFFFFFE00
00001FFFFFFFFFFFF800
0000FFFFFFFFFFFFE000
0003FFFFFFFFFFFF0000
000FFFFFFFFFFFFC0000
003FFFFFFFFFFFF00000
00FFFFFFFFFFFFC00000
03FFFFFFFFFFFF000000
1FFFFFFFFFFFFC000000
7FFFFFFFFFFFE0000000
FFFFFFFFFFFF80000000
FFFFFFFFFFFE00000000
FFFFFFFFFFF800000000
FFFFFFFFFFE000000000
FFFFFFFFFF8000000000
FFFFFFFFFC0000000000
FFFFFFFFF00000000000
FFFFFFFFC00000000000
FFFFFFFF000000000000
FFFFFFFC000000000000
FFFFFFF0000000000000
FFFFFF80000000000000
FFFFFE00000000000000
FFFFF800000000000000
FFFFE000000000000000
FFFF8000000000000000
FFFE0000000000000000
FFF00000000000000000
FFC00000000000000000
FF000000000000000000
FC000000000000000000
F0000000000000000000
C0000000000000000000
ENDCHAR
STARTCHAR 003F
ENCODING 63
SWIDTH 661 0
DWIDTH 119 0
BBX 112 152 3 -4
BITMAP
00001FFFFFFFFFFFFFFFFFF00000
0000FFFFFFFFFFFFFFFFFFFF0000
0003FFFFFFFFFFFFFFFFFFFFC000
000FFFFFFFFFFFFFFFFFFFFFF000
003FFFFFFFFFFFFFFFFFFFFFFC00
007FFFFFFFFFFFFFFFFFFFFFFE00
00FFFFFFFFFFFFFFFFFFFFFFFF00
01FFFFFFFFFFFFFFFFFFFFFFFF80
03FFFFFFFFFFFFFFFFFFFFFFFFC0
07FFFFFFFFFFFFFFFFFFFFFFFFE0
0FFFFFFFFFFFFFFFFFFFFFFFFFF0
0FFFFFFFFFFFFFFFFFFFFFFFFFF0
1FFFFFFFFFFFFFFFFFFFFFFFFFF8
1FFFFFFFFFFFFFFFFFFFFFFFFFF8
3FFFFFFFFFFFFFFFFFFFFFFFFFFC
3FFFFFFFFFFFFFFFFFFFFFFFFFFC
7FFFFFFFFFFFFFFFFFFFFFFFFFFE
7FFFFFFFFFFFFFFFFFFFFFFFFFFE
7FFFFFFFFFFFFFFFFFFFFFFFFFFE
FFFFFFFFFFFFFFFFFFFFFFFFFFFE
FFFFFC00000000000000003FFFFF
FFFFF800000000000000001FFFFF
FFFFF000000000000000000FFFFF
FFFFF000000000000000000FFFFF
FFFFF000000000000000000FFFFF
FFFFF000000000000000000FFFFF
FFFFF000000000000000000FFFFF
FFFFF000000000000000000FFFFF
FFFFF000000000000000000FFFFF
FFFFF000000000000000000FFFFF
FFFFF000000000000000000FFFFF
FFFFF000000000000000000FFFFF
FFFFF000000000000000000FFFFF
FFFFF000000000000000000FFFFF
FFFFF000000000000000000FFFFF
FFFFF000000000000000000FFFFF
FFFFF000000000000000000FFFFF
FFFFF000000000000000000FFFFF
FFFFF000000000000000000FFFFF
FFFFF000000000000000000FFFFF
FFFFF000000000000000000FFFFF
FFFFF000000000000000000FFFFF
FFFFF000000000000000000FFFFF
FFFFF000000000000000000FFFFF
FFFFF000000000000000000FFFFF
FFFFF000000000000000000FFFFF
00000000000000000000000FFFFF
00000000000000000000000FFFFF
00000000000000000000000FFFFF
00000000000000000000000FFFFF
00000000000000000000000FFFFF
00000000000000000000000FFFFF
00000000000000000000001FFFFF
00000000000000000000001FFFFF
00000000000000000000003FFFFF
00000000000000000000007FFFFE
0000000000000000000000FFFFFE
0000000000000000000001FFFFFE
0000000000000000000007FFFFFE
000000000000000000001FFFFFFC
00000000000000000000FFFFFFFC
00000000000000000003FFFFFFF8
0000000000000000003FFFFFFFF8
000000000000000001FFFFFFFFF0
00000000000000000FFFFFFFFFF0
00000000000000003FFFFFFFFFE0
0000000000000000FFFFFFFFFFC0
0000000000000003FFFFFFFFFF80
000000000000000FFFFFFFFFFF80
000000000000003FFFFFFFFFFF00
000000000000007FFFFFFFFFFC00
00000000000000FFFFFFFFFFF800
00000000000003FFFFFFFFFFF000
00000000000007FFFFFFFFFFE000
0000000000000FFFFFFFFFFF8000
0000000000001FFFFFFFFFFE0000
0000000000001FFFFFFFFFF80000
0000000000003FFFFFFFFFE00000
0000000000007FFFFFFFFF800000
0000000000007FFFFFFFFE000000
000000000000FFFFFFFFE0000000
000000000000FFFFFFFF00000000
000000000001FFFFFFF800000000
000000000001FFFFFFE000000000
000000000003FFFFFF0000000000
000000000003FFFFFE0000000000
000000000003FFFFF80000000000
000000000003FFFFF00000000000
000000000007FFFFE00000000000
000000000007FFFFC00000000000
000000000007FFFFC00000000000
000000000007FFFF800000000000
000000000007FFFF800000000000
00000000000FFFFF800000000000
00000000000FFFFF800000000000
00000000000FFFFF800000000000
00000000000FFFFF800000000000
00000000000FFFFF800000000000
00000000000FFFFF800000000000
00000000000FFFFF800000000000
00000000000FFFFF800000000000
00000000000FFFFF800000000000
00000000000FFFFF800000000000
00000000000FFFFF800000000000
00000000000FFFFF800000000000
00000000000FFFFF800000000000
00000000000FFFFF800000000000
00000000000FFFFF800000000000
00000000000FFFFF800000000000
00000000000FFFFF800000000000
00000000000FFFFF800000000000
00000000000FFFFF800000000000
00000000000FFFFF800000000000
00000000000FFFFF800000000000
00000000000FFFFF800000000000
00000000000FFFFF800000000000
00000000000FFFFF800000000000
000000000007FFFF800000000000
000000000007FFFF800000000000
000000000007FFFF800000000000
000000000007FFFF800000000000
000000000007FFFF800000000000
000000000007FFFF800000000000
000000000007FFFF800000000000
000000000007FFFF800000000000
000000000007FFFF800000000000
0000000000000000000000000000
0000000000000000000000000000
0000000000000000000000000000
0000000000000000000000000000
0000000000000000000000000000
0000000000000000000000000000
0000000000000000000000000000
000000000007FFFF800000000000
000000000007FFFF800000000000
000000000007FFFF800000000000
000000000007FFFF800000000000
000000000007FFFF800000000000
000000000007FFFF800000000000
000000000007FFFF800000000000
000000000007FFFF800000000000
000000000007FFFF800000000000
000000000007FFFF800000000000
000000000007FFFF800000000000
000000000007FFFF800000000000
000000000007FFFF800000000000
000000000007FFFF800000000000
000000000007FFFF800000000000
000000000007FFFF800000000000
000000000007FFFF800000000000
000000000007FFFF800000000000
000000000007FFFF800000000000
ENDCHAR
STARTCHAR 0040
ENCODING 64
SWIDTH 822 0
DWIDTH 148 0
BBX 130 144 9 0
BITMAP
0000FFFFFFFFFFFFFFFFFFFFFFFFE00000
000FFFFFFFFFFFFFFFFFFFFFFFFFFC0000
003FFFFFFFFFFFFFFFFFFFFFFFFFFF0000
007FFFFFFFFFFFFFFFFFFFFFFFFFFFC000
00FFFFFFFFFFFFFFFFFFFFFFFFFFFFE000
03FFFFFFFFFFFFFFFFFFFFFFFFFFFFF000
07FFFFFFFFFFFFFFFFFFFFFFFFFFFFF800
0FFFFFFFFFFFFFFFFFFFFFFFFFFFFFFC00
0FFFFFFFFFFFFFFFFFFFFFFFFFFFFFFE00
1FFFFFFFFFFFFFFFFFFFFFFFFFFFFFFE00
3FFFFFFFFFFFFFFFFFFFFFFFFFFFFFFF00
3FFF8000000000000000000000007FFF00
7FFE0000000000000000000000001FFF80
7FFC0000000000000000000000000FFF80
7FF800000000000000000000000007FF80
7FF000000000000000000000000003FFC0
FFF000000000000000000000000003FFC0
FFE000000000000000000000000001FFC0
FFE000000000000000000000000001FFC0
FFE000000000000000000000000001FFC0
FFE000000000000000000000000001FFC0
FFE000000000000000000000000001FFC0
FFE000000000000000000000000001FFC0
FFE000000000000000000000000001FFC0
FFE000000000000000000000000001FFC0
FFE000000000000000000000000001FFC0
FFE00FFFFFFFFFFFFFFFFFFF000001FFC0
FFE00FFFFFFFFFFFFFFFFFFFF00001FFC0
FFE00FFFFFFFFFFFFFFFFFFFFC0001FFC0
FFE00FFFFFFFFFFFFFFFFFFFFE0001FFC0
FFE00FFFFFFFFFFFFFFFFFFFFF0001FFC0
FFE00FFFFFFFFFFFFFFFFFFFFFC001FFC0
FFE00FFFFFFFFFFFFFFFFFFFFFE001FFC0
FFE00FFFFFFFFFFFFFFFFFFFFFE001FFC0
FFE00FFFFFFFFFFFFFFFFFFFFFF001FFC0
FFE00FFFFFFFFFFFFFFFFFFFFFF801FFC0
FFE00FFFFFFFFFFFFFFFFFFFFFFC01FFC0
FFE000000000000000000001FFFC01FFC0
FFE0000000000000000000007FFE01FFC0
FFE0000000000000000000003FFE01FFC0
FFE0000000000000000000001FFE01FFC0
FFE0000000000000000000000FFE01FFC0
FFE0000000000000000000000FFF01FFC0
FFE00000000000000000000007FF01FFC0
FFE00000000000000000000007FF01FFC0
FFE00000000000000000000007FF01FFC0
FFE00000000000000000000007FF01FFC0
FFE00000000000000000000007FF01FFC0
FFE00000000000000000000007FF01FFC0
FFE00000000000000000000007FF01FFC0
FFE0000000000000000000000FFF01FFC0
FFE0000000000000000000000FFF01FFC0
FFE0000000000000000000001FFF01FFC0
FFE0000000000000000000003FFF01FFC0
FFE0000000000000000000007FFF01FFC0
FFE000000000000000000000FFFF01FFC0
FFE000000000000000000001FFFF01FFC0
FFE000000000000000000003FFFF01FFC0
FFE00000000000000000000FFFFF01FFC0
FFE00000000000000000003FFFFF01FFC0
FFE0000000000000000000FFFFFF01FFC0
FFE0000000000000000003FFFFFF01FFC0
FFE000000000000000000FFFFFFF01FFC0
FFE000000000000000007FFFFFFF01FFC0
FFE00000000000000003FFFFFFFF01FFC0
FFE0000000000000001FFFFFFFFF01FFC0
FFE000000000000000FFFFFFFFFF01FFC0
FFE000000000000007FFFFFFF7FF01FFC0
FFE00000000000007FFFFFFFC7FF01FFC0
FFE0000000000003FFFFFFFF07FF01FFC0
FFE000000000001FFFFFFFFC07FF01FFC0
FFE00000000000FFFFFFFFE007FF01FFC0
FFE00000000007FFFFFFFF0007FF01FFC0
FFE0000000007FFFFFFFF80007FF01FFC0
FFE000000003FFFFFFFFC00007FF01FFC0
FFE00000001FFFFFFFFE000007FF01FFC0
FFE0000000FFFFFFFFE0000007FF01FFC0
FFE0000003FFFFFFFF00000007FF01FFC0
FFE000001FFFFFFFF000000007FF01FFC0
FFE000003FFFFFFF0000000007FF01FFC0
FFE00000FFFFFFF80000000007FF01FFC0
FFE00003FFFFFFC00000000007FF01FFC0
FFE00007FFFFFE000000000007FF01FFC0
FFE0000FFFFFF0000000000007FF01FFC0
FFE0001FFFFFC0000000000007FF01FFC0
FFE0003FFFFF00000000000007FF01FFC0
FFE0007FFFF800000000000007FF01FFC0
FFE000FFFFE000000000000007FF01FFC0
FFE000FFFF8000000000000007FF01FFC0
FFE001FFFE0000000000000007FF01FFC0
FFE003FFFC0000000000000007FF01FFC0
FFE003FFF00000000000000007FF01FFC0
FFE003FFE00000000000000007FF01FFC0
FFE007FFC00000000000000007FF01FFC0
FFE007FF800000000000000007FF01FFC0
FFE007FF800000000000000007FF01FFC0
FFE00FFF000000000000000007FF01FFC0
FFE00FFF000000000000000007FF01FFC0
FFE00FFE000000000000000007FF01FFC0
FFE00FFE000000000000000007FF01FFC0
FFE00FFE000000000000000007FF01FFC0
FFE00FFE000000000000000007FF01FFC0
FFE00FFE000000000000000007FF01FFC0
FFE00FFE000000000000000007FF01FFC0
FFE00FFE000000000000000007FF01FFC0
FFE00FFE000000000000000007FF01FFC0
FFE00FFE000000000000000007FF03FFC0
FFE00FFE000000000000000007FF83FFC0
FFE00FFE000000000000000007FF87FFC0
FFE00FFF00000000000000000FFFFFFFC0
FFE00FFF00000000000000000FFFFFFFC0
FFE007FF80000000000000001FFFFFFF80
FFE007FFC0000000000000003FFFFFFF80
FFE007FFE0000000000000007FFFFFFF80
FFE003FFF800000000000001FFFFFFFF00
FFE003FFFFFFFFFFFFFFFFFFFFFFFFFF00
FFE001FFFFFFFFFFFFFFFFFFFFFFFFFE00
FFE000FFFFFFFFFFFFFFFFFFFFFFFFFC00
FFE000FFFFFFFFFFFFFFFFFFFFFFFFF000
FFE0007FFFFFFFFFFFFFFFFFFFEFFFE000
FFE0003FFFFFFFFFFFFFFFFFFFC7FF8000
FFE0001FFFFFFFFFFFFFFFFFFF83FC0000
FFE00007FFFFFFFFFFFFFFFFFE00000000
FFE00003FFFFFFFFFFFFFFFFFC00000000
FFE00000FFFFFFFFFFFFFFFFF000000000
FFE000000FFFFFFFFFFFFFFF8000000000
FFE0000000000000000000000000000000
FFF0000000000000000000000000000000
7FF0000000000000000000000000000000
7FF8000000000000000000000000000000
7FFC000000000000000000000000000000
7FFE000000000000000000000000000000
3FFF800000000000000000000000000000
3FFFFFFFFFFFFFFFFFFFFFFFFFFFFFF800
1FFFFFFFFFFFFFFFFFFFFFFFFFFFFFF800
0FFFFFFFFFFFFFFFFFFFFFFFFFFFFFF800
0FFFFFFFFFFFFFFFFFFFFFFFFFFFFFF800
07FFFFFFFFFFFFFFFFFFFFFFFFFFFFF800
03FFFFFFFFFFFFFFFFFFFFFFFFFFFFF800
01FFFFFFFFFFFFFFFFFFFFFFFFFFFFF800
007FFFFFFFFFFFFFFFFFFFFFFFFFFFF800
003FFFFFFFFFFFFFFFFFFFFFFFFFFFF800
000FFFFFFFFFFFFFFFFFFFFFFFFFFFF800
0000FFFFFFFFFFFFFFFFFFFFFFFFFFF800
ENDCHAR
STARTCHAR 0041
ENCODING 65
SWIDTH 677 0
DWIDTH 122 0
BBX 114 154 4 -5
BITMAP
00000FFFFFFFFFFFFFFFFFFC000000
00007FFFFFFFFFFFFFFFFFFF800000
0003FFFFFFFFFFFFFFFFFFFFF00000
000FFFFFFFFFFFFFFFFFFFFFFC0000
001FFFFFFFFFFFFFFFFFFFFFFE0000
003FFFFFFFFFFFFFFFFFFFFFFF0000
007FFFFFFFFFFFFFFFFFFFFFFFC000
01FFFFFFFFFFFFFFFFFFFFFFFFE000
01FFFFFFFFFFFFFFFFFFFFFFFFE000
03FFFFFFFFFFFFFFFFFFFFFFFFF000
07FFFFFFFFFFFFFFFFFFFFFFFFF800
0FFFFFFFFFFFFFFFFFFFFFFFFFFC00
0FFFFFFFFFFFFFFFFFFFFFFFFFFC00
1FFFFFFFFFFFFFFFFFFFFFFFFFFE00
1FFFFFFFFFFFFFFFFFFFFFFFFFFE00
3FFFFFFFFFFFFFFFFFFFFFFFFFFF00
3FFFFFFFFFFFFFFFFFFFFFFFFFFF00
3FFFFFFFFFFFFFFFFFFFFFFFFFFF00
7FFFFFFFFFFFFFFFFFFFFFFFFFFF80
7FFFFFFFFFFFFFFFFFFFFFFFFFFF80
7FFFFE00000000000000001FFFFF80
7FFFF8000000000000000007FFFF80
7FFFF8000000000000000007FFFF80
7FFFF8000000000000000007FFFF80
FFFFF8000000000000000007FFFF80
FFFFF8000000000000000007FFFFC0
FFFFF8000000000000000007FFFFC0
FFFFF8000000000000000007FFFFC0
FFFFF8000000000000000007FFFFC0
FFFFF8000000000000000007FFFFC0
FFFFF8000000000000000007FFFFC0
FFFFF8000000000000000007FFFFC0
FFFFF8000000000000000007FFFFC0
FFFFF8000000000000000007FFFFC0
FFFFF8000000000000000007FFFFC0
FFFFF8000000000000000007FFFFC0
FFFFF8000000000000000007FFFFC0
FFFFF8000000000000000007FFFFC0
FFFFF8000000000000000007FFFFC0
FFFFF8000000000000000007FFFFC0
FFFFF8000000000000000007FFFFC0
FFFFF8000000000000000007FFFFC0
FFFFF8000000000000000007FFFFC0
FFFFF8000000000000000007FFFFC0
FFFFF8000000000000000007FFFFC0
FFFFF8000000000000000007FFFFC0
FFFFF8000000000000000007FFFFC0
FFFFF8000000000000000007FFFFC0
FFFFF8000000000000000007FFFFC0
FFFFF8000000000000000007FFFFC0
FFFFF8000000000000000007FFFFC0
FFFFF8000000000000000007FFFFC0
FFFFF8000000000000000007FFFFC0
FFFFF8000000000000000007FFFFC0
FFFFF8000000000000000007FFFFC0
FFFFF8000000000000000007FFFFC0
FFFFF8000000000000000007FFFFC0
FFFFF8000000000000000007FFFFC0
FFFFF8000000000000000007FFFFC0
FFFFF8000000000000000007FFFFC0
FFFFF8000000000000000007FFFFC0
FFFFF8000000000000000007FFFFC0
FFFFF8000000000000000007FFFFC0
FFFFF8000000000000000007FFFFC0
FFFFF8000000000000000007FFFFC0
FFFFF8000000000000000007FFFFC0
FFFFF8000000000000000007FFFFC0
FFFFFFFFFFFFFFFFFFFFFFFFFFFFC0
FFFFFFFFFFFFFFFFFFFFFFFFFFFFC0
FFFFFFFFFFFFFFFFFFFFFFFFFFFFC0
FFFFFFFFFFFFFFFFFFFFFFFFFFFFC0
FFFFFFFFFFFFFFFFFFFFFFFFFFFFC0
FFFFFFFFFFFFFFFFFFFFFFFFFFFFC0
FFFFFFFFFFFFFFFFFFFFFFFFFFFFC0
FFFFFFFFFFFFFFFFFFFFFFFFFFFFC0
FFFFFFFFFFFFFFFFFFFFFFFFFFFFC0
FFFFFFFFFFFFFFFFFFFFFFFFFFFFC0
FFFFFFFFFFFFFFFFFFFFFFFFFFFFC0
FFFFFFFFFFFFFFFFFFFFFFFFFFFFC0
FFFFFFFFFFFFFFFFFFFFFFFFFFFFC0
FFFFFFFFFFFFFFFFFFFFFFFFFFFFC0
FFFFFFFFFFFFFFFFFFFFFFFFFFFFC0
FFFFFFFFFFFFFFFFFFFFFFFFFFFFC0
FFFFFFFFFFFFFFFFFFFFFFFFFFFFC0
FFFFFFFFFFFFFFFFFFFFFFFFFFFFC0
FFFFFFFFFFFFFFFFFFFFFFFFFFFFC0
FFFFFFFFFFFFFFFFFFFFFFFFFFFFC0
FFFFF8000000000000000007FFFFC0
FFFFF8000000000000000007FFFFC0
FFFFF8000000000000000007FFFFC0
FFFFF8000000000000000007FFFFC0
FFFFF8000000000000000007FFFFC0
FFFFF8000000000000000007FFFFC0
FFFFF8000000000000000007FFFFC0
FFFFF8000000000000000007FFFFC0
FFFFF8000000000000000007FFFFC0
FFFFF8000000000000000007FFFFC0
FFFFF8000000000000000007FFFFC0
FFFFF8000000000000000007FFFFC0
FFFFF8000000000000000007FFFFC0
FFFFF8000000000000000007FFFFC0
FFFFF8000000000000000007FFFFC0
FFFFF8000000000000000007FFFFC0
FFFFF8000000000000000007FFFFC0
FFFFF8000000000000000007FFFFC0
FFFFF8000000000000000007FFFFC0
FFFFF8000000000000000007FFFFC0
FFFFF8000000000000000007FFFFC0
FFFFF8000000000000000007FFFFC0
FFFFF8000000000000000007FFFFC0
FFFFF8000000000000000007FFFFC0
FFFFF8000000000000000007FFFFC0
FFFFF8000000000000000007FFFFC0
FFFFF8000000000000000007FFFFC0
FFFFF8000000000000000007FFFFC0
FFFFF8000000000000000007FFFFC0
FFFFF8000000000000000007FFFFC0
FFFFF8000000000000000007FFFFC0
FFFFF8000000000000000007FFFFC0
FFFFF8000000000000000007FFFFC0
FFFFF8000000000000000007FFFFC0
FFFFF8000000000000000007FFFFC0
FFFFF8000000000000000007FFFFC0
FFFFF8000000000000000007FFFFC0
FFFFF8000000000000000007FFFFC0
FFFFF8000000000000000007FFFFC0
FFFFF8000000000000000007FFFFC0
FFFFF8000000000000000007FFFFC0
FFFFF8000000000000000007FFFFC0
FFFFF8000000000000000007FFFFC0
FFFFF8000000000000000007FFFFC0
FFFFF8000000000000000007FFFFC0
FFFFF8000000000000000007FFFFC0
FFFFF8000000000000000007FFFFC0
FFFFF8000000000000000007FFFFC0
FFFFF8000000000000000007FFFFC0
FFFFF8000000000000000007FFFFC0
FFFFF8000000000000000007FFFFC0
FFFFF8000000000000000007FFFFC0
FFFFF8000000000000000007FFFFC0
FFFFF8000000000000000007FFFFC0
FFFFF8000000000000000007FFFFC0
FFFFF8000000000000000007FFFFC0
FFFFF8000000000000000007FFFFC0
FFFFF8000000000000000007FFFFC0
FFFFF8000000000000000007FFFFC0
FFFFF8000000000000000007FFFFC0
FFFFF8000000000000000007FFFFC0
FFFFF8000000000000000007FFFFC0
FFFFF8000000000000000007FFFFC0
FFFFF8000000000000000007FFFFC0
FFFFF8000000000000000007FFFFC0
FFFFF8000000000000000007FFFFC0
FFFFF8000000000000000007FFFFC0
ENDCHAR
STARTCHAR 0042
ENCODING 66
SWIDTH 672 0
DWIDTH 121 0
BBX 113 154 4 -5
BITMAP
FFFFFFFFFFFFFFFFFFFFFFF8000000
FFFFFFFFFFFFFFFFFFFFFFFF800000
FFFFFFFFFFFFFFFFFFFFFFFFE00000
FFFFFFFFFFFFFFFFFFFFFFFFF80000
FFFFFFFFFFFFFFFFFFFFFFFFFC0000
FFFFFFFFFFFFFFFFFFFFFFFFFE0000
FFFFFFFFFFFFFFFFFFFFFFFFFF8000
FFFFFFFFFFFFFFFFFFFFFFFFFFC000
FFFFFFFFFFFFFFFFFFFFFFFFFFE000
FFFFFFFFFFFFFFFFFFFFFFFFFFE000
FFFFFFFFFFFFFFFFFFFFFFFFFFF000
FFFFFFFFFFFFFFFFFFFFFFFFFFF800
FFFFFFFFFFFFFFFFFFFFFFFFFFF800
FFFFFFFFFFFFFFFFFFFFFFFFFFFC00
FFFFFFFFFFFFFFFFFFFFFFFFFFFC00
FFFFFFFFFFFFFFFFFFFFFFFFFFFE00
FFFFFFFFFFFFFFFFFFFFFFFFFFFE00
FFFFFFFFFFFFFFFFFFFFFFFFFFFE00
FFFFFFFFFFFFFFFFFFFFFFFFFFFF00
FFFFFFFFFFFFFFFFFFFFFFFFFFFF00
FFFFF800000000000000003FFFFF00
FFFFF800000000000000000FFFFF00
FFFFF800000000000000000FFFFF00
FFFFF800000000000000000FFFFF00
FFFFF800000000000000000FFFFF00
FFFFF800000000000000000FFFFF80
FFFFF800000000000000000FFFFF80
FFFFF800000000000000000FFFFF80
FFFFF800000000000000000FFFFF80
FFFFF800000000000000000FFFFF80
FFFFF800000000000000000FFFFF80
FFFFF800000000000000000FFFFF80
FFFFF800000000000000000FFFFF80
FFFFF800000000000000000FFFFF80
FFFFF800000000000000000FFFFF80
FFFFF800000000000000000FFFFF80
FFFFF800000000000000000FFFFF80
FFFFF800000000000000000FFFFF80
FFFFF800000000000000000FFFFF80
FFFFF800000000000000000FFFFF80
FFFFF800000000000000000FFFFF80
FFFFF800000000000000000FFFFF80
FFFFF800000000000000000FFFFF80
FFFFF800000000000000000FFFFF80
FFFFF800000000000000000FFFFF80
FFFFF800000000000000000FFFFF80
FFFFF800000000000000000FFFFF80
FFFFF800000000000000000FFFFF80
FFFFF800000000000000000FFFFF80
FFFFF800000000000000000FFFFF80
FFFFF800000000000000000FFFFF80
FFFFF800000000000000000FFFFF80
FFFFF800000000000000000FFFFF80
FFFFF800000000000000000FFFFF80
FFFFF800000000000000000FFFFF80
FFFFF800000000000000000FFFFF80
FFFFF800000000000000000FFFFF80
FFFFF800000000000000000FFFFF80
FFFFF800000000000000000FFFFF80
FFFFF800000000000000000FFFFF80
FFFFF800000000000000000FFFFF80
FFFFF800000000000000000FFFFF80
FFFFF800000000000000000FFFFF00
FFFFF800000000000000000FFFFF00
FFFFF800000000000000000FFFFF00
FFFFF800000000000000000FFFFF00
FFFFF800000000000000003FFFFF00
FFFFFFFFFFFFFFFFFFFFFFFFFFFF00
FFFFFFFFFFFFFFFFFFFFFFFFFFFF00
FFFFFFFFFFFFFFFFFFFFFFFFFFFF00
FFFFFFFFFFFFFFFFFFFFFFFFFFFE00
FFFFFFFFFFFFFFFFFFFFFFFFFFFE00
FFFFFFFFFFFFFFFFFFFFFFFFFFFC00
FFFFFFFFFFFFFFFFFFFFFFFFFFFC00
FFFFFFFFFFFFFFFFFFFFFFFFFFFC00
FFFFFFFFFFFFFFFFFFFFFFFFFFF800
FFFFFFFFFFFFFFFFFFFFFFFFFFF000
FFFFFFFFFFFFFFFFFFFFFFFFFFF000
FFFFFFFFFFFFFFFFFFFFFFFFFFF800
FFFFFFFFFFFFFFFFFFFFFFFFFFF800
FFFFFFFFFFFFFFFFFFFFFFFFFFFC00
FFFFFFFFFFFFFFFFFFFFFFFFFFFC00
FFFFFFFFFFFFFFFFFFFFFFFFFFFE00
FFFFFFFFFFFFFFFFFFFFFFFFFFFE00
FFFFFFFFFFFFFFFFFFFFFFFFFFFF00
FFFFFFFFFFFFFFFFFFFFFFFFFFFF00
FFFFFFFFFFFFFFFFFFFFFFFFFFFF00
FFFFF800000000000000003FFFFF00
FFFFF800000000000000000FFFFF00
FFFFF800000000000000000FFFFF00
FFFFF800000000000000000FFFFF00
FFFFF800000000000000000FFFFF00
FFFFF800000000000000000FFFFF80
FFFFF800000000000000000FFFFF80
FFFFF800000000000000000FFFFF80
FFFFF800000000000000000FFFFF80
FFFFF800000000000000000FFFFF80
FFFFF800000000000000000FFFFF80
FFFFF800000000000000000FFFFF80
FFFFF800000000000000000FFFFF80
FFFFF800000000000000000FFFFF80
FFFFF800000000000000000FFFFF80
FFFFF800000000000000000FFFFF80
FFFFF800000000000000000FFFFF80
FFFFF800000000000000000FFFFF80
FFFFF800000000000000000FFFFF80
FFFFF800000000000000000FFFFF80
FFFFF800000000000000000FFFFF80
FFFFF800000000000000000FFFFF80
FFFFF800000000000000000FFFFF80
FFFFF800000000000000000FFFFF80
FFFFF800000000000000000FFFFF80
FFFFF800000000000000000FFFFF80
FFFFF800000000000000000FFFFF80
FFFFF800000000000000000FFFFF80
FFFFF800000000000000000FFFFF80
FFFFF800000000000000000FFFFF80
FFFFF800000000000000000FFFFF80
FFFFF800000000000000000FFFFF80
FFFFF800000000000000000FFFFF80
FFFFF800000000000000000FFFFF80
FFFFF800000000000000000FFFFF80
FFFFF800000000000000000FFFFF80
FFFFF800000000000000000FFFFF80
FFFFF800000000000000000FFFFF80
FFFFF800000000000000000FFFFF80
FFFFF800000000000000000FFFFF80
FFFFF800000000000000000FFFFF80
FFFFF800000000000000000FFFFF80
FFFFF800000000000000000FFFFF00
FFFFF800000000000000000FFFFF00
FFFFF800000000000000000FFFFF00
FFFFF800000000000000000FFFFF00
FFFFF800000000000000003FFFFF00
FFFFFFFFFFFFFFFFFFFFFFFFFFFF00
FFFFFFFFFFFFFFFFFFFFFFFFFFFF00
FFFFFFFFFFFFFFFFFFFFFFFFFFFE00
FFFFFFFFFFFFFFFFFFFFFFFFFFFE00
FFFFFFFFFFFFFFFFFFFFFFFFFFFE00
FFFFFFFFFFFFFFFFFFFFFFFFFFFC00
FFFFFFFFFFFFFFFFFFFFFFFFFFFC00
FFFFFFFFFFFFFFFFFFFFFFFFFFF800
FFFFFFFFFFFFFFFFFFFFFFFFFFF800
FFFFFFFFFFFFFFFFFFFFFFFFFFF000
FFFFFFFFFFFFFFFFFFFFFFFFFFE000
FFFFFFFFFFFFFFFFFFFFFFFFFFE000
FFFFFFFFFFFFFFFFFFFFFFFFFFC000
FFFFFFFFFFFFFFFFFFFFFFFFFF8000
FFFFFFFFFFFFFFFFFFFFFFFFFF0000
FFFFFFFFFFFFFFFFFFFFFFFFFC0000
FFFFFFFFFFFFFFFFFFFFFFFFF80000
FFFFFFFFFFFFFFFFFFFFFFFFE00000
FFFFFFFFFFFFFFFFFFFFFFFF800000
FFFFFFFFFFFFFFFFFFFFFFF8000000
ENDCHAR
STARTCHAR 0043
ENCODING 67
SWIDTH 672 0
DWIDTH 121 0
BBX 113 154 4 -5
BITMAP
00000FFFFFFFFFFFFFFFFFFFFFFF80
00007FFFFFFFFFFFFFFFFFFFFFFF80
0003FFFFFFFFFFFFFFFFFFFFFFFF80
000FFFFFFFFFFFFFFFFFFFFFFFFF80
001FFFFFFFFFFFFFFFFFFFFFFFFF80
003FFFFFFFFFFFFFFFFFFFFFFFFF80
00FFFFFFFFFFFFFFFFFFFFFFFFFF80
01FFFFFFFFFFFFFFFFFFFFFFFFFF80
01FFFFFFFFFFFFFFFFFFFFFFFFFF80
03FFFFFFFFFFFFFFFFFFFFFFFFFF80
07FFFFFFFFFFFFFFFFFFFFFFFFFF80
0FFFFFFFFFFFFFFFFFFFFFFFFFFF80
0FFFFFFFFFFFFFFFFFFFFFFFFFFF80
1FFFFFFFFFFFFFFFFFFFFFFFFFFF80
1FFFFFFFFFFFFFFFFFFFFFFFFFFF80
3FFFFFFFFFFFFFFFFFFFFFFFFFFF80
3FFFFFFFFFFFFFFFFFFFFFFFFFFF80
3FFFFFFFFFFFFFFFFFFFFFFFFFFF80
7FFFFFFFFFFFFFFFFFFFFFFFFFFF80
7FFFFFFFFFFFFFFFFFFFFFFFFFFF80
7FFFFE000000000000000000000000
7FFFF8000000000000000000000000
7FFFF8000000000000000000000000
7FFFF8000000000000000000000000
FFFFF8000000000000000000000000
FFFFF8000000000000000000000000
FFFFF8000000000000000000000000
FFFFF8000000000000000000000000
FFFFF8000000000000000000000000
FFFFF8000000000000000000000000
FFFFF8000000000000000000000000
FFFFF8000000000000000000000000
FFFFF8000000000000000000000000
FFFFF8000000000000000000000000
FFFFF8000000000000000000000000
FFFFF8000000000000000000000000
FFFFF8000000000000000000000000
FFFFF8000000000000000000000000
FFFFF8000000000000000000000000
FFFFF8000000000000000000000000
FFFFF8000000000000000000000000
FFFFF8000000000000000000000000
FFFFF8000000000000000000000000
FFFFF8000000000000000000000000
FFFFF8000000000000000000000000
FFFFF8000000000000000000000000
FFFFF8000000000000000000000000
FFFFF8000000000000000000000000
FFFFF8000000000000000000000000
FFFFF8000000000000000000000000
FFFFF8000000000000000000000000
FFFFF8000000000000000000000000
FFFFF8000000000000000000000000
FFFFF8000000000000000000000000
FFFFF8000000000000000000000000
FFFFF8000000000000000000000000
FFFFF8000000000000000000000000
FFFFF8000000000000000000000000
FFFFF8000000000000000000000000
FFFFF8000000000000000000000000
FFFFF8000000000000000000000000
FFFFF8000000000000000000000000
FFFFF8000000000000000000000000
FFFFF8000000000000000000000000
FFFFF8000000000000000000000000
FFFFF8000000000000000000000000
FFFFF8000000000000000000000000
FFFFF8000000000000000000000000
FFFFF8000000000000000000000000
FFFFF8000000000000000000000000
FFFFF8000000000000000000000000
FFFFF8000000000000000000000000
FFFFF8000000000000000000000000
FFFFF8000000000000000000000000
FFFFF8000000000000000000000000
FFFFF8000000000000000000000000
FFFFF8000000000000000000000000
FFFFF8000000000000000000000000
FFFFF8000000000000000000000000
FFFFF8000000000000000000000000
FFFFF8000000000000000000000000
FFFFF8000000000000000000000000
FFFFF8000000000000000000000000
FFFFF8000000000000000000000000
FFFFF8000000000000000000000000
FFFFF8000000000000000000000000
FFFFF8000000000000000000000000
FFFFF8000000000000000000000000
FFFFF8000000000000000000000000
FFFFF8000000000000000000000000
FFFFF8000000000000000000000000
FFFFF8000000000000000000000000
FFFFF8000000000000000000000000
FFFFF8000000000000000000000000
FFFFF8000000000000000000000000
FFFFF8000000000000000000000000
FFFFF8000000000000000000000000
FFFFF8000000000000000000000000
FFFFF8000000000000000000000000
FFFFF8000000000000000000000000
FFFFF8000000000000000000000000
FFFFF8000000000000000000000000
FFFFF8000000000000000000000000
FFFFF8000000000000000000000000
FFFFF8000000000000000000000000
FFFFF8000000000000000000000000
FFFFF8000000000000000000000000
FFFFF8000000000000000000000000
FFFFF8000000000000000000000000
FFFFF8000000000000000000000000
FFFFF8000000000000000000000000
FFFFF8000000000000000000000000
FFFFF8000000000000000000000000
FFFFF8000000000000000000000000
FFFFF8000000000000000000000000
FFFFF8000000000000000000000000
FFFFF8000000000000000000000000
FFFFF8000000000000000000000000
FFFFF8000000000000000000000000
FFFFF8000000000000000000000000
FFFFF8000000000000000000000000
FFFFF8000000000000000000000000
FFFFF8000000000000000000000000
FFFFF8000000000000000000000000
FFFFF8000000000000000000000000
FFFFF8000000000000000000000000
FFFFF8000000000000000000000000
FFFFF8000000000000000000000000
FFFFF8000000000000000000000000
FFFFF8000000000000000000000000
7FFFF8000000000000000000000000
7FFFF8000000000000000000000000
7FFFF8000000000000000000000000
7FFFFE000000000000000000000000
7FFFFFFFFFFFFFFFFFFFFFFFFFFF80
7FFFFFFFFFFFFFFFFFFFFFFFFFFF80
3FFFFFFFFFFFFFFFFFFFFFFFFFFF80
3FFFFFFFFFFFFFFFFFFFFFFFFFFF80
3FFFFFFFFFFFFFFFFFFFFFFFFFFF80
1FFFFFFFFFFFFFFFFFFFFFFFFFFF80
1FFFFFFFFFFFFFFFFFFFFFFFFFFF80
0FFFFFFFFFFFFFFFFFFFFFFFFFFF80
0FFFFFFFFFFFFFFFFFFFFFFFFFFF80
07FFFFFFFFFFFFFFFFFFFFFFFFFF80
03FFFFFFFFFFFFFFFFFFFFFFFFFF80
01FFFFFFFFFFFFFFFFFFFFFFFFFF80
01FFFFFFFFFFFFFFFFFFFFFFFFFF80
00FFFFFFFFFFFFFFFFFFFFFFFFFF80
003FFFFFFFFFFFFFFFFFFFFFFFFF80
001FFFFFFFFFFFFFFFFFFFFFFFFF80
000FFFFFFFFFFFFFFFFFFFFFFFFF80
0003FFFFFFFFFFFFFFFFFFFFFFFF80
0000FFFFFFFFFFFFFFFFFFFFFFFF80
00000FFFFFFFFFFFFFFFFFFFFFFF80
ENDCHAR
STARTCHAR 0044
ENCODING 68
SWIDTH 672 0
DWIDTH 121 0
BBX 113 154 4 -5
BITMAP
FFFFFFFFFFFFFFFFFFFFFFF8000000
FFFFFFFFFFFFFFFFFFFFFFFF800000
FFFFFFFFFFFFFFFFFFFFFFFFE00000
FFFFFFFFFFFFFFFFFFFFFFFFF80000
FFFFFFFFFFFFFFFFFFFFFFFFFC0000
FFFFFFFFFFFFFFFFFFFFFFFFFE0000
FFFFFFFFFFFFFFFFFFFFFFFFFF8000
FFFFFFFFFFFFFFFFFFFFFFFFFFC000
FFFFFFFFFFFFFFFFFFFFFFFFFFE000
FFFFFFFFFFFFFFFFFFFFFFFFFFE000
FFFFFFFFFFFFFFFFFFFFFFFFFFF000
FFFFFFFFFFFFFFFFFFFFFFFFFFF800
FFFFFFFFFFFFFFFFFFFFFFFFFFF800
FFFFFFFFFFFFFFFFFFFFFFFFFFFC00
FFFFFFFFFFFFFFFFFFFFFFFFFFFC00
FFFFFFFFFFFFFFFFFFFFFFFFFFFE00
FFFFFFFFFFFFFFFFFFFFFFFFFFFE00
FFFFFFFFFFFFFFFFFFFFFFFFFFFE00
FFFFFFFFFFFFFFFFFFFFFFFFFFFF00
FFFFFFFFFFFFFFFFFFFFFFFFFFFF00
FFFFF800000000000000003FFFFF00
FFFFF800000000000000000FFFFF00
FFFFF800000000000000000FFFFF00
FFFFF800000000000000000FFFFF00
FFFFF800000000000000000FFFFF00
FFFFF800000000000000000FFFFF80
FFFFF800000000000000000FFFFF80
FFFFF800000000000000000FFFFF80
FFFFF800000000000000000FFFFF80
FFFFF800000000000000000FFFFF80
FFFFF800000000000000000FFFFF80
FFFFF800000000000000000FFFFF80
FFFFF800000000000000000FFFFF80
FFFFF800000000000000000FFFFF80
FFFFF800000000000000000FFFFF80
FFFFF800000000000000000FFFFF80
FFFFF800000000000000000FFFFF80
FFFFF800000000000000000FFFFF80
FFFFF800000000000000000FFFFF80
FFFFF800000000000000000FFFFF80
FFFFF800000000000000000FFFFF80
FFFFF800000000000000000FFFFF80
FFFFF800000000000000000FFFFF80
FFFFF800000000000000000FFFFF80
FFFFF800000000000000000FFFFF80
FFFFF800000000000000000FFFFF80
FFFFF800000000000000000FFFFF80
FFFFF800000000000000000FFFFF80
FFFFF800000000000000000FFFFF80
FFFFF800000000000000000FFFFF80
FFFFF800000000000000000FFFFF80
FFFFF800000000000000000FFFFF80
FFFFF800000000000000000FFFFF80
FFFFF800000000000000000FFFFF80
FFFFF800000000000000000FFFFF80
FFFFF800000000000000000FFFFF80
FFFFF800000000000000000FFFFF80
FFFFF800000000000000000FFFFF80
FFFFF800000000000000000FFFFF80
FFFFF800000000000000000FFFFF80
FFFFF800000000000000000FFFFF80
FFFFF800000000000000000FFFFF80
FFFFF800000000000000000FFFFF80
FFFFF800000000000000000FFFFF80
FFFFF800000000000000000FFFFF80
FFFFF800000000000000000FFFFF80
FFFFF800000000000000000FFFFF80
FFFFF800000000000000000FFFFF80
FFFFF800000000000000000FFFFF80
FFFFF800000000000000000FFFFF80
FFFFF800000000000000000FFFFF80
FFFFF800000000000000000FFFFF80
FFFFF800000000000000000FFFFF80
FFFFF800000000000000000FFFFF80
FFFFF800000000000000000FFFFF80
FFFFF800000000000000000FFFFF80
FFFFF800000000000000000FFFFF80
FFFFF800000000000000000FFFFF80
FFFFF800000000000000000FFFFF80
FFFFF800000000000000000FFFFF80
FFFFF800000000000000000FFFFF80
FFFFF800000000000000000FFFFF80
FFFFF800000000000000000FFFFF80
FFFFF800000000000000000FFFFF80
FFFFF800000000000000000FFFFF80
FFFFF800000000000000000FFFFF80
FFFFF800000000000000000FFFFF80
FFFFF800000000000000000FFFFF80
FFFFF800000000000000000FFFFF80
FFFFF800000000000000000FFFFF80
FFFFF800000000000000000FFFFF80
FFFFF800000000000000000FFFFF80
FFFFF800000000000000000FFFFF80
FFFFF800000000000000000FFFFF80
FFFFF800000000000000000FFFFF80
FFFFF800000000000000000FFFFF80
FFFFF800000000000000000FFFFF80
FFFFF800000000000000000FFFFF80
FFFFF800000000000000000FFFFF80
FFFFF800000000000000000FFFFF80
FFFFF800000000000000000FFFFF80
FFFFF800000000000000000FFFFF80
FFFFF800000000000000000FFFFF80
FFFFF800000000000000000FFFFF80
FFFFF800000000000000000FFFFF80
FFFFF800000000000000000FFFFF80
FFFFF800000000000000000FFFFF80
FFFFF800000000000000000FFFFF80
FFFFF800000000000000000FFFFF80
FFFFF800000000000000000FFFFF80
FFFFF800000000000000000FFFFF80
FFFFF800000000000000000FFFFF80
FFFFF800000000000000000FFFFF80
FFFFF800000000000000000FFFFF80
FFFFF800000000000000000FFFFF80
FFFFF800000000000000000FFFFF80
FFFFF800000000000000000FFFFF80
FFFFF800000000000000000FFFFF80
FFFFF800000000000000000FFFFF80
FFFFF800000000000000000FFFFF80
FFFFF800000000000000000FFFFF80
FFFFF800000000000000000FFFFF80
FFFFF800000000000000000FFFFF80
FFFFF800000000000000000FFFFF80
FFFFF800000000000000000FFFFF80
FFFFF800000000000000000FFFFF80
FFFFF800000000000000000FFFFF80
FFFFF800000000000000000FFFFF80
FFFFF800000000000000000FFFFF80
FFFFF800000000000000000FFFFF00
FFFFF800000000000000000FFFFF00
FFFFF800000000000000000FFFFF00
FFFFF800000000000000000FFFFF00
FFFFF800000000000000003FFFFF00
FFFFFFFFFFFFFFFFFFFFFFFFFFFF00
FFFFFFFFFFFFFFFFFFFFFFFFFFFF00
FFFFFFFFFFFFFFFFFFFFFFFFFFFE00
FFFFFFFFFFFFFFFFFFFFFFFFFFFE00
FFFFFFFFFFFFFFFFFFFFFFFFFFFE00
FFFFFFFFFFFFFFFFFFFFFFFFFFFC00
FFFFFFFFFFFFFFFFFFFFFFFFFFFC00
FFFFFFFFFFFFFFFFFFFFFFFFFFF800
FFFFFFFFFFFFFFFFFFFFFFFFFFF800
FFFFFFFFFFFFFFFFFFFFFFFFFFF000
FFFFFFFFFFFFFFFFFFFFFFFFFFE000
FFFFFFFFFFFFFFFFFFFFFFFFFFE000
FFFFFFFFFFFFFFFFFFFFFFFFFFC000
FFFFFFFFFFFFFFFFFFFFFFFFFF8000
FFFFFFFFFFFFFFFFFFFFFFFFFF0000
FFFFFFFFFFFFFFFFFFFFFFFFFC0000
FFFFFFFFFFFFFFFFFFFFFFFFF80000
FFFFFFFFFFFFFFFFFFFFFFFFE00000
FFFFFFFFFFFFFFFFFFFFFFFF800000
FFFFFFFFFFFFFFFFFFFFFFF8000000
ENDCHAR
STARTCHAR 0045
ENCODING 69
SWIDTH 672 0
DWIDTH 121 0
BBX 113 154 4 -5
BITMAP
00000FFFFFFFFFFFFFFFFFFFFFFF80
00007FFFFFFFFFFFFFFFFFFFFFFF80
0003FFFFFFFFFFFFFFFFFFFFFFFF80
000FFFFFFFFFFFFFFFFFFFFFFFFF80
001FFFFFFFFFFFFFFFFFFFFFFFFF80
003FFFFFFFFFFFFFFFFFFFFFFFFF80
00FFFFFFFFFFFFFFFFFFFFFFFFFF80
01FFFFFFFFFFFFFFFFFFFFFFFFFF80
01FFFFFFFFFFFFFFFFFFFFFFFFFF80
03FFFFFFFFFFFFFFFFFFFFFFFFFF80
07FFFFFFFFFFFFFFFFFFFFFFFFFF80
0FFFFFFFFFFFFFFFFFFFFFFFFFFF80
0FFFFFFFFFFFFFFFFFFFFFFFFFFF80
1FFFFFFFFFFFFFFFFFFFFFFFFFFF80
1FFFFFFFFFFFFFFFFFFFFFFFFFFF80
3FFFFFFFFFFFFFFFFFFFFFFFFFFF80
3FFFFFFFFFFFFFFFFFFFFFFFFFFF80
3FFFFFFFFFFFFFFFFFFFFFFFFFFF80
7FFFFFFFFFFFFFFFFFFFFFFFFFFF80
7FFFFFFFFFFFFFFFFFFFFFFFFFFF80
7FFFFE000000000000000000000000
7FFFF8000000000000000000000000
7FFFF8000000000000000000000000
7FFFF8000000000000000000000000
FFFFF8000000000000000000000000
FFFFF8000000000000000000000000
FFFFF8000000000000000000000000
FFFFF8000000000000000000000000
FFFFF8000000000000000000000000
FFFFF8000000000000000000000000
FFFFF8000000000000000000000000
FFFFF8000000000000000000000000
FFFFF8000000000000000000000000
FFFFF8000000000000000000000000
FFFFF8000000000000000000000000
FFFFF8000000000000000000000000
FFFFF8000000000000000000000000
FFFFF8000000000000000000000000
FFFFF8000000000000000000000000
FFFFF8000000000000000000000000
FFFFF8000000000000000000000000
FFFFF8000000000000000000000000
FFFFF8000000000000000000000000
FFFFF8000000000000000000000000
FFFFF8000000000000000000000000
FFFFF8000000000000000000000000
FFFFF8000000000000000000000000
FFFFF8000000000000000000000000
FFFFF8000000000000000000000000
FFFFF8000000000000000000000000
FFFFF8000000000000000000000000
FFFFF8000000000000000000000000
FFFFF8000000000000000000000000
FFFFF8000000000000000000000000
FFFFF8000000000000000000000000
FFFFF8000000000000000000000000
FFFFF8000000000000000000000000
FFFFF8000000000000000000000000
FFFFF8000000000000000000000000
FFFFF8000000000000000000000000
FFFFF8000000000000000000000000
FFFFF8000000000000000000000000
FFFFF8000000000000000000000000
FFFFF8000000000000000000000000
FFFFF8000000000000000000000000
FFFFF8000000000000000000000000
FFFFF8000000000000000000000000
FFFFFFFFFFFFFFFFFFFFFFFFFFFF80
FFFFFFFFFFFFFFFFFFFFFFFFFFFF80
FFFFFFFFFFFFFFFFFFFFFFFFFFFF80
FFFFFFFFFFFFFFFFFFFFFFFFFFFF80
FFFFFFFFFFFFFFFFFFFFFFFFFFFF80
FFFFFFFFFFFFFFFFFFFFFFFFFFFF80
FFFFFFFFFFFFFFFFFFFFFFFFFFFF80
FFFFFFFFFFFFFFFFFFFFFFFFFFFF80
FFFFFFFFFFFFFFFFFFFFFFFFFFFF80
FFFFFFFFFFFFFFFFFFFFFFFFFFFF80
FFFFFFFFFFFFFFFFFFFFFFFFFFFF80
FFFFFFFFFFFFFFFFFFFFFFFFFFFF80
FFFFFFFFFFFFFFFFFFFFFFFFFFFF80
FFFFFFFFFFFFFFFFFFFFFFFFFFFF80
FFFFFFFFFFFFFFFFFFFFFFFFFFFF80
FFFFFFFFFFFFFFFFFFFFFFFFFFFF80
FFFFFFFFFFFFFFFFFFFFFFFFFFFF80
FFFFFFFFFFFFFFFFFFFFFFFFFFFF80
FFFFFFFFFFFFFFFFFFFFFFFFFFFF80
FFFFFFFFFFFFFFFFFFFFFFFFFFFF80
FFFFF8000000000000000000000000
FFFFF8000000000000000000000000
FFFFF8000000000000000000000000
FFFFF8000000000000000000000000
FFFFF8000000000000000000000000
FFFFF8000000000000000000000000
FFFFF8000000000000000000000000
FFFFF8000000000000000000000000
FFFFF8000000000000000000000000
FFFFF8000000000000000000000000
FFFFF8000000000000000000000000
FFFFF8000000000000000000000000
FFFFF8000000000000000000000000
FFFFF8000000000000000000000000
FFFFF8000000000000000000000000
FFFFF8000000000000000000000000
FFFFF8000000000000000000000000
FFFFF8000000000000000000000000
FFFFF8000000000000000000000000
FFFFF8000000000000000000000000
FFFFF8000000000000000000000000
FFFFF8000000000000000000000000
FFFFF8000000000000000000000000
FFFFF8000000000000000000000000
FFFFF8000000000000000000000000
FFFFF8000000000000000000000000
FFFFF8000000000000000000000000
FFFFF8000000000000000000000000
FFFFF8000000000000000000000000
FFFFF8000000000000000000000000
FFFFF8000000000000000000000000
FFFFF8000000000000000000000000
FFFFF8000000000000000000000000
FFFFF8000000000000000000000000
FFFFF8000000000000000000000000
FFFFF8000000000000000000000000
FFFFF8000000000000000000000000
FFFFF8000000000000000000000000
FFFFF8000000000000000000000000
FFFFF8000000000000000000000000
FFFFF8000000000000000000000000
FFFFF8000000000000000000000000
FFFFF8000000000000000000000000
7FFFF8000000000000000000000000
7FFFF8000000000000000000000000
7FFFF8000000000000000000000000
7FFFFE000000000000000000000000
7FFFFFFFFFFFFFFFFFFFFFFFFFFF80
7FFFFFFFFFFFFFFFFFFFFFFFFFFF80
3FFFFFFFFFFFFFFFFFFFFFFFFFFF80
3FFFFFFFFFFFFFFFFFFFFFFFFFFF80
3FFFFFFFFFFFFFFFFFFFFFFFFFFF80
1FFFFFFFFFFFFFFFFFFFFFFFFFFF80
1FFFFFFFFFFFFFFFFFFFFFFFFFFF80
0FFFFFFFFFFFFFFFFFFFFFFFFFFF80
0FFFFFFFFFFFFFFFFFFFFFFFFFFF80
07FFFFFFFFFFFFFFFFFFFFFFFFFF80
03FFFFFFFFFFFFFFFFFFFFFFFFFF80
01FFFFFFFFFFFFFFFFFFFFFFFFFF80
01FFFFFFFFFFFFFFFFFFFFFFFFFF80
00FFFFFFFFFFFFFFFFFFFFFFFFFF80
003FFFFFFFFFFFFFFFFFFFFFFFFF80
001FFFFFFFFFFFFFFFFFFFFFFFFF80
000FFFFFFFFFFFFFFFFFFFFFFFFF80
0003FFFFFFFFFFFFFFFFFFFFFFFF80
0000FFFFFFFFFFFFFFFFFFFFFFFF80
00000FFFFFFFFFFFFFFFFFFFFFFF80
ENDCHAR
STARTCHAR 0046
ENCODING 70
SWIDTH 672 0
DWIDTH 121 0
BBX 113 154 4 -5
BITMAP
00000FFFFFFFFFFFFFFFFFFFFFFF80
00007FFFFFFFFFFFFFFFFFFFFFFF80
0003FFFFFFFFFFFFFFFFFFFFFFFF80
000FFFFFFFFFFFFFFFFFFFFFFFFF80
001FFFFFFFFFFFFFFFFFFFFFFFFF80
003FFFFFFFFFFFFFFFFFFFFFFFFF80
00FFFFFFFFFFFFFFFFFFFFFFFFFF80
01FFFFFFFFFFFFFFFFFFFFFFFFFF80
01FFFFFFFFFFFFFFFFFFFFFFFFFF80
03FFFFFFFFFFFFFFFFFFFFFFFFFF80
07FFFFFFFFFFFFFFFFFFFFFFFFFF80
0FFFFFFFFFFFFFFFFFFFFFFFFFFF80
0FFFFFFFFFFFFFFFFFFFFFFFFFFF80
1FFFFFFFFFFFFFFFFFFFFFFFFFFF80
1FFFFFFFFFFFFFFFFFFFFFFFFFFF80
3FFFFFFFFFFFFFFFFFFFFFFFFFFF80
3FFFFFFFFFFFFFFFFFFFFFFFFFFF80
3FFFFFFFFFFFFFFFFFFFFFFFFFFF80
7FFFFFFFFFFFFFFFFFFFFFFFFFFF80
7FFFFFFFFFFFFFFFFFFFFFFFFFFF80
7FFFFE000000000000000000000000
7FFFF8000000000000000000000000
7FFFF8000000000000000000000000
7FFFF8000000000000000000000000
FFFFF8000000000000000000000000
FFFFF8000000000000000000000000
FFFFF8000000000000000000000000
FFFFF8000000000000000000000000
FFFFF8000000000000000000000000
FFFFF8000000000000000000000000
FFFFF8000000000000000000000000
FFFFF8000000000000000000000000
FFFFF8000000000000000000000000
FFFFF8000000000000000000000000
FFFFF8000000000000000000000000
FFFFF8000000000000000000000000
FFFFF8000000000000000000000000
FFFFF8000000000000000000000000
FFFFF8000000000000000000000000
FFFFF8000000000000000000000000
FFFFF8000000000000000000000000
FFFFF8000000000000000000000000
FFFFF8000000000000000000000000
FFFFF8000000000000000000000000
FFFFF8000000000000000000000000
FFFFF8000000000000000000000000
FFFFF8000000000000000000000000
FFFFF8000000000000000000000000
FFFFF8000000000000000000000000
FFFFF8000000000000000000000000
FFFFF8000000000000000000000000
FFFFF8000000000000000000000000
FFFFF8000000000000000000000000
FFFFF8000000000000000000000000
FFFFF8000000000000000000000000
FFFFF8000000000000000000000000
FFFFF8000000000000000000000000
FFFFF8000000000000000000000000
FFFFF8000000000000000000000000
FFFFF8000000000000000000000000
FFFFF8000000000000000000000000
FFFFF8000000000000000000000000
FFFFF8000000000000000000000000
FFFFF8000000000000000000000000
FFFFF8000000000000000000000000
FFFFF8000000000000000000000000
FFFFF8000000000000000000000000
FFFFFFFFFFFFFFFFFFFFFFFFFFFF80
FFFFFFFFFFFFFFFFFFFFFFFFFFFF80
FFFFFFFFFFFFFFFFFFFFFFFFFFFF80
FFFFFFFFFFFFFFFFFFFFFFFFFFFF80
FFFFFFFFFFFFFFFFFFFFFFFFFFFF80
FFFFFFFFFFFFFFFFFFFFFFFFFFFF80
FFFFFFFFFFFFFFFFFFFFFFFFFFFF80
FFFFFFFFFFFFFFFFFFFFFFFFFFFF80
FFFFFFFFFFFFFFFFFFFFFFFFFFFF80
FFFFFFFFFFFFFFFFFFFFFFFFFFFF80
FFFFFFFFFFFFFFFFFFFFFFFFFFFF80
FFFFFFFFFFFFFFFFFFFFFFFFFFFF80
FFFFFFFFFFFFFFFFFFFFFFFFFFFF80
FFFFFFFFFFFFFFFFFFFFFFFFFFFF80
FFFFFFFFFFFFFFFFFFFFFFFFFFFF80
FFFFFFFFFFFFFFFFFFFFFFFFFFFF80
FFFFFFFFFFFFFFFFFFFFFFFFFFFF80
FFFFFFFFFFFFFFFFFFFFFFFFFFFF80
FFFFFFFFFFFFFFFFFFFFFFFFFFFF80
FFFFFFFFFFFFFFFFFFFFFFFFFFFF80
FFFFF8000000000000000000000000
FFFFF8000000000000000000000000
FFFFF8000000000000000000000000
FFFFF8000000000000000000000000
FFFFF8000000000000000000000000
FFFFF8000000000000000000000000
FFFFF8000000000000000000000000
FFFFF8000000000000000000000000
FFFFF8000000000000000000000000
FFFFF8000000000000000000000000
FFFFF8000000000000000000000000
FFFFF8000000000000000000000000
FFFFF8000000000000000000000000
FFFFF8000000000000000000000000
FFFFF8000000000000000000000000
FFFFF8000000000000000000000000
FFFFF8000000000000000000000000
FFFFF8000000000000000000000000
FFFFF8000000000000000000000000
FFFFF8000000000000000000000000
FFFFF8000000000000000000000000
FFFFF8000000000000000000000000
FFFFF8000000000000000000000000
FFFFF8000000000000000000000000
FFFFF8000000000000000000000000
FFFFF8000000000000000000000000
FFFFF8000000000000000000000000
FFFFF8000000000000000000000000
FFFFF8000000000000000000000000
FFFFF8000000000000000000000000
FFFFF8000000000000000000000000
FFFFF8000000000000000000000000
FFFFF8000000000000000000000000
FFFFF8000000000000000000000000
FFFFF8000000000000000000000000
FFFFF8000000000000000000000000
FFFFF8000000000000000000000000
FFFFF8000000000000000000000000
FFFFF8000000000000000000000000
FFFFF8000000000000000000000000
FFFFF8000000000000000000000000
FFFFF8000000000000000000000000
FFFFF8000000000000000000000000
FFFFF8000000000000000000000000
FFFFF8000000000000000000000000
FFFFF8000000000000000000000000
FFFFF8000000000000000000000000
FFFFF8000000000000000000000000
FFFFF8000000000000000000000000
FFFFF8000000000000000000000000
FFFFF8000000000000000000000000
FFFFF8000000000000000000000000
FFFFF8000000000000000000000000
FFFFF8000000000000000000000000
FFFFF8000000000000000000000000
FFFFF8000000000000000000000000
FFFFF8000000000000000000000000
FFFFF8000000000000000000000000
FFFFF8000000000000000000000000
FFFFF8000000000000000000000000
FFFFF8000000000000000000000000
FFFFF8000000000000000000000000
FFFFF8000000000000000000000000
FFFFF8000000000000000000000000
FFFFF8000000000000000000000000
FFFFF8000000000000000000000000
FFFFF8000000000000000000000000
ENDCHAR
STARTCHAR 0047
ENCODING 71
SWIDTH 677 0
DWIDTH 122 0
BBX 113 154 4 -5
BITMAP
00000FFFFFFFFFFFFFFFFFFFFFFF80
0000FFFFFFFFFFFFFFFFFFFFFFFF80
0003FFFFFFFFFFFFFFFFFFFFFFFF80
000FFFFFFFFFFFFFFFFFFFFFFFFF80
001FFFFFFFFFFFFFFFFFFFFFFFFF80
003FFFFFFFFFFFFFFFFFFFFFFFFF80
00FFFFFFFFFFFFFFFFFFFFFFFFFF80
01FFFFFFFFFFFFFFFFFFFFFFFFFF80
03FFFFFFFFFFFFFFFFFFFFFFFFFF80
03FFFFFFFFFFFFFFFFFFFFFFFFFF80
07FFFFFFFFFFFFFFFFFFFFFFFFFF80
0FFFFFFFFFFFFFFFFFFFFFFFFFFF80
0FFFFFFFFFFFFFFFFFFFFFFFFFFF80
1FFFFFFFFFFFFFFFFFFFFFFFFFFF80
1FFFFFFFFFFFFFFFFFFFFFFFFFFF80
3FFFFFFFFFFFFFFFFFFFFFFFFFFF80
3FFFFFFFFFFFFFFFFFFFFFFFFFFF80
7FFFFFFFFFFFFFFFFFFFFFFFFFFF80
7FFFFFFFFFFFFFFFFFFFFFFFFFFF80
7FFFFFFFFFFFFFFFFFFFFFFFFFFF80
7FFFFE000000000000000000000000
7FFFF8000000000000000000000000
7FFFF8000000000000000000000000
7FFFF8000000000000000000000000
FFFFF8000000000000000000000000
FFFFF8000000000000000000000000
FFFFF8000000000000000000000000
FFFFF8000000000000000000000000
FFFFF8000000000000000000000000
FFFFF8000000000000000000000000
FFFFF8000000000000000000000000
FFFFF8000000000000000000000000
FFFFF8000000000000000000000000
FFFFF8000000000000000000000000
FFFFF8000000000000000000000000
FFFFF8000000000000000000000000
FFFFF8000000000000000000000000
FFFFF8000000000000000000000000
FFFFF8000000000000000000000000
FFFFF8000000000000000000000000
FFFFF8000000000000000000000000
FFFFF8000000000000000000000000
FFFFF8000000000000000000000000
FFFFF8000000000000000000000000
FFFFF8000000000000000000000000
FFFFF8000000000000000000000000
FFFFF8000000000000000000000000
FFFFF8000000000000000000000000
FFFFF8000000000000000000000000
FFFFF8000000000000000000000000
FFFFF8000000000000000000000000
FFFFF8000000000000000000000000
FFFFF8000000000000000000000000
FFFFF8000000000000000000000000
FFFFF8000000000000000000000000
FFFFF8000000000000000000000000
FFFFF8000000000000000000000000
FFFFF8000000000000000000000000
FFFFF8000000000000000000000000
FFFFF8000000000000000000000000
FFFFF8000000000000000000000000
FFFFF8000000000000000000000000
FFFFF8000000000000000000000000
FFFFF8000000000000000000000000
FFFFF8000000000000000000000000
FFFFF8000000000000000000000000
FFFFF8000000000000000000000000
FFFFF8000001FFFFFFFFFFFFFF8000
FFFFF8000001FFFFFFFFFFFFFFE000
FFFFF8000001FFFFFFFFFFFFFFF800
FFFFF8000001FFFFFFFFFFFFFFFC00
FFFFF8000001FFFFFFFFFFFFFFFE00
FFFFF8000001FFFFFFFFFFFFFFFE00
FFFFF8000001FFFFFFFFFFFFFFFF00
FFFFF8000001FFFFFFFFFFFFFFFF00
FFFFF8000001FFFFFFFFFFFFFFFF00
FFFFF8000001FFFFFFFFFFFFFFFF00
FFFFF8000001FFFFFFFFFFFFFFFF80
FFFFF8000001FFFFFFFFFFFFFFFF80
FFFFF8000001FFFFFFFFFFFFFFFF80
FFFFF8000001FFFFFFFFFFFFFFFF80
FFFFF8000001FFFFFFFFFFFFFFFF80
FFFFF8000001FFFFFFFFFFFFFFFF80
FFFFF8000001FFFFFFFFFFFFFFFF80
FFFFF8000001FFFFFFFFFFFFFFFF80
FFFFF8000001FFFFFFFFFFFFFFFF80
FFFFF8000001FFFFFFFFFFFFFFFF80
FFFFF800000000000000000FFFFF80
FFFFF800000000000000000FFFFF80
FFFFF800000000000000000FFFFF80
FFFFF800000000000000000FFFFF80
FFFFF800000000000000000FFFFF80
FFFFF800000000000000000FFFFF80
FFFFF800000000000000000FFFFF80
FFFFF800000000000000000FFFFF80
FFFFF800000000000000000FFFFF80
FFFFF800000000000000000FFFFF80
FFFFF800000000000000000FFFFF80
FFFFF800000000000000000FFFFF80
FFFFF800000000000000000FFFFF80
FFFFF800000000000000000FFFFF80
FFFFF800000000000000000FFFFF80
FFFFF800000000000000000FFFFF80
FFFFF800000000000000000FFFFF80
FFFFF800000000000000000FFFFF80
FFFFF800000000000000000FFFFF80
FFFFF800000000000000000FFFFF80
FFFFF800000000000000000FFFFF80
FFFFF800000000000000000FFFFF80
FFFFF800000000000000000FFFFF80
FFFFF800000000000000000FFFFF80
FFFFF800000000000000000FFFFF80
FFFFF800000000000000000FFFFF80
FFFFF800000000000000000FFFFF80
FFFFF800000000000000000FFFFF80
FFFFF800000000000000000FFFFF80
FFFFF800000000000000000FFFFF80
FFFFF800000000000000000FFFFF80
FFFFF800000000000000000FFFFF80
FFFFF800000000000000000FFFFF80
FFFFF800000000000000000FFFFF80
FFFFF800000000000000000FFFFF80
FFFFF800000000000000000FFFFF80
FFFFF800000000000000000FFFFF80
FFFFF800000000000000000FFFFF80
FFFFF800000000000000000FFFFF80
FFFFF800000000000000000FFFFF80
FFFFF800000000000000000FFFFF80
FFFFF800000000000000000FFFFF80
FFFFF800000000000000000FFFFF00
7FFFF800000000000000000FFFFF00
7FFFF800000000000000000FFFFF00
7FFFF800000000000000000FFFFF00
7FFFFE00000000000000003FFFFF00
7FFFFFFFFFFFFFFFFFFFFFFFFFFF00
7FFFFFFFFFFFFFFFFFFFFFFFFFFF00
3FFFFFFFFFFFFFFFFFFFFFFFFFFE00
3FFFFFFFFFFFFFFFFFFFFFFFFFFE00
3FFFFFFFFFFFFFFFFFFFFFFFFFFE00
1FFFFFFFFFFFFFFFFFFFFFFFFFFC00
1FFFFFFFFFFFFFFFFFFFFFFFFFFC00
0FFFFFFFFFFFFFFFFFFFFFFFFFF800
0FFFFFFFFFFFFFFFFFFFFFFFFFF800
07FFFFFFFFFFFFFFFFFFFFFFFFF000
03FFFFFFFFFFFFFFFFFFFFFFFFE000
03FFFFFFFFFFFFFFFFFFFFFFFFE000
01FFFFFFFFFFFFFFFFFFFFFFFFC000
00FFFFFFFFFFFFFFFFFFFFFFFF8000
003FFFFFFFFFFFFFFFFFFFFFFF0000
001FFFFFFFFFFFFFFFFFFFFFFC0000
000FFFFFFFFFFFFFFFFFFFFFF80000
0003FFFFFFFFFFFFFFFFFFFFE00000
0000FFFFFFFFFFFFFFFFFFFF800000
00000FFFFFFFFFFFFFFFFFF8000000
ENDCHAR
STARTCHAR 0048
ENCODING 72
SWIDTH 672 0
DWIDTH 121 0
BBX 113 154 4 -5
BITMAP
FFFFF800000000000000000FFFFF80
FFFFF800000000000000000FFFFF80
FFFFF800000000000000000FFFFF80
FFFFF800000000000000000FFFFF80
FFFFF800000000000000000FFFFF80
FFFFF800000000000000000FFFFF80
FFFFF800000000000000000FFFFF80
FFFFF800000000000000000FFFFF80
FFFFF800000000000000000FFFFF80
FFFFF800000000000000000FFFFF80
FFFFF800000000000000000FFFFF80
FFFFF800000000000000000FFFFF80
FFFFF800000000000000000FFFFF80
FFFFF800000000000000000FFFFF80
FFFFF800000000000000000FFFFF80
FFFFF800000000000000000FFFFF80
FFFFF800000000000000000FFFFF80
FFFFF800000000000000000FFFFF80
FFFFF800000000000000000FFFFF80
FFFFF800000000000000000FFFFF80
FFFFF800000000000000000FFFFF80
FFFFF800000000000000000FFFFF80
FFFFF800000000000000000FFFFF80
FFFFF800000000000000000FFFFF80
FFFFF800000000000000000FFFFF80
FFFFF800000000000000000FFFFF80
FFFFF800000000000000000FFFFF80
FFFFF800000000000000000FFFFF80
FFFFF800000000000000000FFFFF80
FFFFF800000000000000000FFFFF80
FFFFF800000000000000000FFFFF80
FFFFF800000000000000000FFFFF80
FFFFF800000000000000000FFFFF80
FFFFF800000000000000000FFFFF80
FFFFF800000000000000000FFFFF80
FFFFF800000000000000000FFFFF80
FFFFF800000000000000000FFFFF80
FFFFF800000000000000000FFFFF80
FFFFF800000000000000000FFFFF80
FFFFF800000000000000000FFFFF80
FFFFF800000000000000000FFFFF80
FFFFF800000000000000000FFFFF80
FFFFF800000000000000000FFFFF80
FFFFF800000000000000000FFFFF80
FFFFF800000000000000000FFFFF80
FFFFF800000000000000000FFFFF80
FFFFF800000000000000000FFFFF80
FFFFF800000000000000000FFFFF80
FFFFF800000000000000000FFFFF80
FFFFF800000000000000000FFFFF80
FFFFF800000000000000000FFFFF80
FFFFF800000000000000000FFFFF80
FFFFF800000000000000000FFFFF80
FFFFF800000000000000000FFFFF80
FFFFF800000000000000000FFFFF80
FFFFF800000000000000000FFFFF80
FFFFF800000000000000000FFFFF80
FFFFF800000000000000000FFFFF80
FFFFF800000000000000000FFFFF80
FFFFF800000000000000000FFFFF80
FFFFF800000000000000000FFFFF80
FFFFF800000000000000000FFFFF80
FFFFF800000000000000000FFFFF80
FFFFF800000000000000000FFFFF80
FFFFF800000000000000000FFFFF80
FFFFF800000000000000000FFFFF80
FFFFF800000000000000000FFFFF80
FFFFFFFFFFFFFFFFFFFFFFFFFFFF80
FFFFFFFFFFFFFFFFFFFFFFFFFFFF80
FFFFFFFFFFFFFFFFFFFFFFFFFFFF80
FFFFFFFFFFFFFFFFFFFFFFFFFFFF80
FFFFFFFFFFFFFFFFFFFFFFFFFFFF80
FFFFFFFFFFFFFFFFFFFFFFFFFFFF80
FFFFFFFFFFFFFFFFFFFFFFFFFFFF80
FFFFFFFFFFFFFFFFFFFFFFFFFFFF80
FFFFFFFFFFFFFFFFFFFFFFFFFFFF80
FFFFFFFFFFFFFFFFFFFFFFFFFFFF80
FFFFFFFFFFFFFFFFFFFFFFFFFFFF80
FFFFFFFFFFFFFFFFFFFFFFFFFFFF80
FFFFFFFFFFFFFFFFFFFFFFFFFFFF80
FFFFFFFFFFFFFFFFFFFFFFFFFFFF80
FFFFFFFFFFFFFFFFFFFFFFFFFFFF80
FFFFFFFFFFFFFFFFFFFFFFFFFFFF80
FFFFFFFFFFFFFFFFFFFFFFFFFFFF80
FFFFFFFFFFFFFFFFFFFFFFFFFFFF80
FFFFFFFFFFFFFFFFFFFFFFFFFFFF80
FFFFFFFFFFFFFFFFFFFFFFFFFFFF80
FFFFF800000000000000000FFFFF80
FFFFF800000000000000000FFFFF80
FFFFF800000000000000000FFFFF80
FFFFF800000000000000000FFFFF80
FFFFF800000000000000000FFFFF80
FFFFF800000000000000000FFFFF80
FFFFF800000000000000000FFFFF80
FFFFF800000000000000000FFFFF80
FFFFF800000000000000000FFFFF80
FFFFF800000000000000000FFFFF80
FFFFF800000000000000000FFFFF80
FFFFF800000000000000000FFFFF80
FFFFF800000000000000000FFFFF80
FFFFF800000000000000000FFFFF80
FFFFF800000000000000000FFFFF80
FFFFF800000000000000000FFFFF80
FFFFF800000000000000000FFFFF80
FFFFF800000000000000000FFFFF80
FFFFF800000000000000000FFFFF80
FFFFF800000000000000000FFFFF80
FFFFF800000000000000000FFFFF80
FFFFF800000000000000000FFFFF80
FFFFF800000000000000000FFFFF80
FFFFF800000000000000000FFFFF80
FFFFF800000000000000000FFFFF80
FFFFF800000000000000000FFFFF80
FFFFF800000000000000000FFFFF80
FFFFF800000000000000000FFFFF80
FFFFF800000000000000000FFFFF80
FFFFF800000000000000000FFFFF80
FFFFF800000000000000000FFFFF80
FFFFF800000000000000000FFFFF80
FFFFF800000000000000000FFFFF80
FFFFF800000000000000000FFFFF80
FFFFF800000000000000000FFFFF80
FFFFF800000000000000000FFFFF80
FFFFF800000000000000000FFFFF80
FFFFF800000000000000000FFFFF80
FFFFF800000000000000000FFFFF80
FFFFF800000000000000000FFFFF80
FFFFF800000000000000000FFFFF80
FFFFF800000000000000000FFFFF80
FFFFF800000000000000000FFFFF80
FFFFF800000000000000000FFFFF80
FFFFF800000000000000000FFFFF80
FFFFF800000000000000000FFFFF80
FFFFF800000000000000000FFFFF80
FFFFF800000000000000000FFFFF80
FFFFF800000000000000000FFFFF80
FFFFF800000000000000000FFFFF80
FFFFF800000000000000000FFFFF80
FFFFF800000000000000000FFFFF80
FFFFF800000000000000000FFFFF80
FFFFF800000000000000000FFFFF80
FFFFF800000000000000000FFFFF80
FFFFF800000000000000000FFFFF80
FFFFF800000000000000000FFFFF80
FFFFF800000000000000000FFFFF80
FFFFF800000000000000000FFFFF80
FFFFF800000000000000000FFFFF80
FFFFF800000000000000000FFFFF80
FFFFF800000000000000000FFFFF80
FFFFF800000000000000000FFFFF80
FFFFF800000000000000000FFFFF80
FFFFF800000000000000000FFFFF80
FFFFF800000000000000000FFFFF80
FFFFF800000000000000000FFFFF80
ENDCHAR
STARTCHAR 0049
ENCODING 73
SWIDTH 161 0
DWIDTH 29 0
BBX 21 154 4 -5
BITMAP
FFFFF8
FFFFF8
FFFFF8
FFFFF8
FFFFF8
FFFFF8
FFFFF8
FFFFF8
FFFFF8
FFFFF8
FFFFF8
FFFFF8
FFFFF8
FFFFF8
FFFFF8
FFFFF8
FFFFF8
FFFFF8
FFFFF8
FFFFF8
FFFFF8
FFFFF8
FFFFF8
FFFFF8
FFFFF8
FFFFF8
FFFFF8
FFFFF8
FFFFF8
FFFFF8
FFFFF8
FFFFF8
FFFFF8
FFFFF8
FFFFF8
FFFFF8
FFFFF8
FFFFF8
FFFFF8
FFFFF8
FFFFF8
FFFFF8
FFFFF8
FFFFF8
FFFFF8
FFFFF8
FFFFF8
FFFFF8
FFFFF8
FFFFF8
FFFFF8
FFFFF8
FFFFF8
FFFFF8
FFFFF8
FFFFF8
FFFFF8
FFFFF8
FFFFF8
FFFFF8
FFFFF8
FFFFF8
FFFFF8
FFFFF8
FFFFF8
FFFFF8
FFFFF8
FFFFF8
FFFFF8
FFFFF8
FFFFF8
FFFFF8
FFFFF8
FFFFF8
FFFFF8
FFFFF8
FFFFF8
FFFFF8
FFFFF8
FFFFF8
FFFFF8
FFFFF8
FFFFF8
FFFFF8
FFFFF8
FFFFF8
FFFFF8
FFFFF8
FFFFF8
FFFFF8
FFFFF8
FFFFF8
FFFFF8
FFFFF8
FFFFF8
FFFFF8
FFFFF8
FFFFF8
FFFFF8
FFFFF8
FFFFF8
FFFFF8
FFFFF8
FFFFF8
FFFFF8
FFFFF8
FFFFF8
FFFFF8
FFFFF8
FFFFF8
FFFFF8
FFFFF8
FFFFF8
FFFFF8
FFFFF8
FFFFF8
FFFFF8
FFFFF8
FFFFF8
FFFFF8
FFFFF8
FFFFF8
FFFFF8
FFFFF8
FFFFF8
FFFFF8
FFFFF8
FFFFF8
FFFFF8
FFFFF8
FFFFF8
FFFFF8
FFFFF8
FFFFF8
FFFFF8
FFFFF8
FFFFF8
FFFFF8
FFFFF8
FFFFF8
FFFFF8
FFFFF8
FFFFF8
FFFFF8
FFFFF8
FFFFF8
FFFFF8
FFFFF8
FFFFF8
FFFFF8
FFFFF8
FFFFF8
FFFFF8
FFFFF8
ENDCHAR
STARTCHAR 004A
ENCODING 74
SWIDTH 672 0
DWIDTH 121 0
BBX 113 154 4 -5
BITMAP
00000000000000000000000FFFFF80
00000000000000000000000FFFFF80
00000000000000000000000FFFFF80
00000000000000000000000FFFFF80
00000000000000000000000FFFFF80
00000000000000000000000FFFFF80
00000000000000000000000FFFFF80
00000000000000000000000FFFFF80
00000000000000000000000FFFFF80
00000000000000000000000FFFFF80
00000000000000000000000FFFFF80
00000000000000000000000FFFFF80
00000000000000000000000FFFFF80
00000000000000000000000FFFFF80
00000000000000000000000FFFFF80
00000000000000000000000FFFFF80
00000000000000000000000FFFFF80
00000000000000000000000FFFFF80
00000000000000000000000FFFFF80
00000000000000000000000FFFFF80
00000000000000000000000FFFFF80
00000000000000000000000FFFFF80
00000000000000000000000FFFFF80
00000000000000000000000FFFFF80
00000000000000000000000FFFFF80
00000000000000000000000FFFFF80
00000000000000000000000FFFFF80
00000000000000000000000FFFFF80
00000000000000000000000FFFFF80
00000000000000000000000FFFFF80
00000000000000000000000FFFFF80
00000000000000000000000FFFFF80
00000000000000000000000FFFFF80
00000000000000000000000FFFFF80
00000000000000000000000FFFFF80
00000000000000000000000FFFFF80
00000000000000000000000FFFFF80
00000000000000000000000FFFFF80
00000000000000000000000FFFFF80
00000000000000000000000FFFFF80
00000000000000000000000FFFFF80
00000000000000000000000FFFFF80
00000000000000000000000FFFFF80
00000000000000000000000FFFFF80
00000000000000000000000FFFFF80
00000000000000000000000FFFFF80
00000000000000000000000FFFFF80
00000000000000000000000FFFFF80
00000000000000000000000FFFFF80
00000000000000000000000FFFFF80
00000000000000000000000FFFFF80
00000000000000000000000FFFFF80
00000000000000000000000FFFFF80
00000000000000000000000FFFFF80
00000000000000000000000FFFFF80
00000000000000000000000FFFFF80
00000000000000000000000FFFFF80
00000000000000000000000FFFFF80
00000000000000000000000FFFFF80
00000000000000000000000FFFFF80
00000000000000000000000FFFFF80
00000000000000000000000FFFFF80
00000000000000000000000FFFFF80
00000000000000000000000FFFFF80
00000000000000000000000FFFFF80
00000000000000000000000FFFFF80
00000000000000000000000FFFFF80
00000000000000000000000FFFFF80
00000000000000000000000FFFFF80
00000000000000000000000FFFFF80
00000000000000000000000FFFFF80
00000000000000000000000FFFFF80
00000000000000000000000FFFFF80
00000000000000000000000FFFFF80
00000000000000000000000FFFFF80
00000000000000000000000FFFFF80
00000000000000000000000FFFFF80
00000000000000000000000FFFFF80
00000000000000000000000FFFFF80
00000000000000000000000FFFFF80
00000000000000000000000FFFFF80
00000000000000000000000FFFFF80
00000000000000000000000FFFFF80
00000000000000000000000FFFFF80
00000000000000000000000FFFFF80
00000000000000000000000FFFFF80
00000000000000000000000FFFFF80
00000000000000000000000FFFFF80
00000000000000000000000FFFFF80
00000000000000000000000FFFFF80
00000000000000000000000FFFFF80
00000000000000000000000FFFFF80
00000000000000000000000FFFFF80
00000000000000000000000FFFFF80
00000000000000000000000FFFFF80
00000000000000000000000FFFFF80
00000000000000000000000FFFFF80
00000000000000000000000FFFFF80
00000000000000000000000FFFFF80
00000000000000000000000FFFFF80
00000000000000000000000FFFFF80
00000000000000000000000FFFFF80
00000000000000000000000FFFFF80
00000000000000000000000FFFFF80
00000000000000000000000FFFFF80
00000000000000000000000FFFFF80
00000000000000000000000FFFFF80
00000000000000000000000FFFFF80
00000000000000000000000FFFFF80
00000000000000000000000FFFFF80
00000000000000000000000FFFFF80
00000000000000000000000FFFFF80
00000000000000000000000FFFFF80
00000000000000000000000FFFFF80
00000000000000000000000FFFFF80
00000000000000000000000FFFFF80
00000000000000000000000FFFFF80
00000000000000000000000FFFFF80
00000000000000000000000FFFFF80
00000000000000000000000FFFFF80
00000000000000000000000FFFFF80
00000000000000000000000FFFFF80
00000000000000000000000FFFFF80
00000000000000000000000FFFFF80
00000000000000000000000FFFFF80
00000000000000000000000FFFFF80
00000000000000000000000FFFFF80
00000000000000000000000FFFFF80
00000000000000000000000FFFFF80
00000000000000000000000FFFFF00
00000000000000000000000FFFFF00
00000000000000000000000FFFFF00
00000000000000000000000FFFFF00
00000000000000000000003FFFFF00
FFFFFFFFFFFFFFFFFFFFFFFFFFFF00
FFFFFFFFFFFFFFFFFFFFFFFFFFFF00
FFFFFFFFFFFFFFFFFFFFFFFFFFFE00
FFFFFFFFFFFFFFFFFFFFFFFFFFFE00
FFFFFFFFFFFFFFFFFFFFFFFFFFFE00
FFFFFFFFFFFFFFFFFFFFFFFFFFFC00
FFFFFFFFFFFFFFFFFFFFFFFFFFFC00
FFFFFFFFFFFFFFFFFFFFFFFFFFF800
FFFFFFFFFFFFFFFFFFFFFFFFFFF800
FFFFFFFFFFFFFFFFFFFFFFFFFFF000
FFFFFFFFFFFFFFFFFFFFFFFFFFE000
FFFFFFFFFFFFFFFFFFFFFFFFFFE000
FFFFFFFFFFFFFFFFFFFFFFFFFFC000
FFFFFFFFFFFFFFFFFFFFFFFFFF8000
FFFFFFFFFFFFFFFFFFFFFFFFFF0000
FFFFFFFFFFFFFFFFFFFFFFFFFC0000
FFFFFFFFFFFFFFFFFFFFFFFFF80000
FFFFFFFFFFFFFFFFFFFFFFFFE00000
FFFFFFFFFFFFFFFFFFFFFFFF800000
FFFFFFFFFFFFFFFFFFFFFFF8000000
ENDCHAR
STARTCHAR 004B
ENCODING 75
SWIDTH 677 0
DWIDTH 122 0
BBX 114 154 4 -5
BITMAP
FFFFF8000000000000000007FFFFC0
FFFFF8000000000000000007FFFFC0
FFFFF8000000000000000007FFFFC0
FFFFF8000000000000000007FFFFC0
FFFFF8000000000000000007FFFFC0
FFFFF8000000000000000007FFFFC0
FFFFF8000000000000000007FFFFC0
FFFFF8000000000000000007FFFFC0
FFFFF8000000000000000007FFFFC0
FFFFF8000000000000000007FFFFC0
FFFFF8000000000000000007FFFFC0
FFFFF8000000000000000007FFFFC0
FFFFF8000000000000000007FFFFC0
FFFFF8000000000000000007FFFFC0
FFFFF8000000000000000007FFFFC0
FFFFF8000000000000000007FFFFC0
FFFFF8000000000000000007FFFFC0
FFFFF8000000000000000007FFFFC0
FFFFF8000000000000000007FFFFC0
FFFFF8000000000000000007FFFFC0
FFFFF8000000000000000007FFFFC0
FFFFF8000000000000000007FFFFC0
FFFFF8000000000000000007FFFFC0
FFFFF8000000000000000007FFFFC0
FFFFF8000000000000000007FFFFC0
FFFFF8000000000000000007FFFFC0
FFFFF8000000000000000007FFFFC0
FFFFF8000000000000000007FFFFC0
FFFFF8000000000000000007FFFFC0
FFFFF8000000000000000007FFFFC0
FFFFF8000000000000000007FFFFC0
FFFFF8000000000000000007FFFFC0
FFFFF8000000000000000007FFFFC0
FFFFF8000000000000000007FFFFC0
FFFFF8000000000000000007FFFFC0
FFFFF8000000000000000007FFFFC0
FFFFF8000000000000000007FFFFC0
FFFFF8000000000000000007FFFFC0
FFFFF8000000000000000007FFFFC0
FFFFF8000000000000000007FFFFC0
FFFFF8000000000000000007FFFFC0
FFFFF8000000000000000007FFFFC0
FFFFF8000000000000000007FFFFC0
FFFFF8000000000000000007FFFFC0
FFFFF8000000000000000007FFFFC0
FFFFF8000000000000000007FFFF80
FFFFF8000000000000000007FFFF80
FFFFF8000000000000000007FFFF80
FFFFF8000000000000000007FFFF80
FFFFF8000000000000000007FFFF80
FFFFF8000000000000000007FFFF80
FFFFF800000000000000000FFFFF80
FFFFF800000000000000000FFFFF80
FFFFF800000000000000003FFFFF00
FFFFF80000000000000000FFFFFF00
FFFFF80000000000000007FFFFFF00
FFFFF8000000000000007FFFFFFE00
FFFFF800000000000007FFFFFFFE00
FFFFF80000000000007FFFFFFFFC00
FFFFF8000000000007FFFFFFFFFC00
FFFFF800000000003FFFFFFFFFF800
FFFFF80000000003FFFFFFFFFFF800
FFFFF8000000003FFFFFFFFFFFF000
FFFFF800000003FFFFFFFFFFFFE000
FFFFF80000003FFFFFFFFFFFFFC000
FFFFF8000003FFFFFFFFFFFFFF8000
FFFFF800001FFFFFFFFFFFFFFF0000
FFFFF80001FFFFFFFFFFFFFFFE0000
FFFFF8001FFFFFFFFFFFFFFFFC0000
FFFFF801FFFFFFFFFFFFFFFFF80000
FFFFF81FFFFFFFFFFFFFFFFFE00000
FFFFF8FFFFFFFFFFFFFFFFFFC00000
FFFFFFFFFFFFFFFFFFFFFFFF000000
FFFFFFFFFFFFFFFFFFFFFFF8000000
FFFFFFFFFFFFFFFFFFFFFFC0000000
FFFFFFFFFFFFFFFFFFFFFFF0000000
FFFFFFFFFFFFFFFFFFFFFFFE000000
FFFFFFFFFFFFFFFFFFFFFFFF800000
FFFFFFFFFFFFFFFFFFFFFFFFE00000
FFFFFFFFFFFFFFFFFFFFFFFFF00000
FFFFFFFFFFFFFFFFFFFFFFFFF80000
FFFFFFFFFFFFFFFFFFFFFFFFFE0000
FFFFFFFFFFFFFFFFFFFFFFFFFF0000
FFFFFFFFFFFFFFFFFFFFFFFFFF8000
FFFFFFFFFFFFFFFFFFFFFFFFFFC000
FFFFFFFFFFFF87FFFFFFFFFFFFE000
FFFFFFFFFFF8003FFFFFFFFFFFE000
FFFFFFFFFFC00001FFFFFFFFFFF000
FFFFFFFFFC0000000FFFFFFFFFF800
FFFFFFFFC0000000007FFFFFFFF800
FFFFFFFC000000000007FFFFFFFC00
FFFFFFC00000000000007FFFFFFE00
FFFFFC000000000000001FFFFFFE00
FFFFF80000000000000003FFFFFE00
FFFFF80000000000000000FFFFFF00
FFFFF800000000000000007FFFFF00
FFFFF800000000000000001FFFFF00
FFFFF800000000000000000FFFFF80
FFFFF800000000000000000FFFFF80
FFFFF8000000000000000007FFFF80
FFFFF8000000000000000007FFFF80
FFFFF8000000000000000007FFFF80
FFFFF8000000000000000007FFFF80
FFFFF8000000000000000007FFFF80
FFFFF8000000000000000007FFFF80
FFFFF8000000000000000007FFFFC0
FFFFF8000000000000000007FFFFC0
FFFFF8000000000000000007FFFFC0
FFFFF8000000000000000007FFFFC0
FFFFF8000000000000000007FFFFC0
FFFFF8000000000000000007FFFFC0
FFFFF8000000000000000007FFFFC0
FFFFF8000000000000000007FFFFC0
FFFFF8000000000000000007FFFFC0
FFFFF8000000000000000007FFFFC0
FFFFF8000000000000000007FFFFC0
FFFFF8000000000000000007FFFFC0
FFFFF8000000000000000007FFFFC0
FFFFF8000000000000000007FFFFC0
FFFFF8000000000000000007FFFFC0
FFFFF8000000000000000007FFFFC0
FFFFF8000000000000000007FFFFC0
FFFFF8000000000000000007FFFFC0
FFFFF8000000000000000007FFFFC0
FFFFF8000000000000000007FFFFC0
FFFFF8000000000000000007FFFFC0
FFFFF8000000000000000007FFFFC0
FFFFF8000000000000000007FFFFC0
FFFFF8000000000000000007FFFFC0
FFFFF8000000000000000007FFFFC0
FFFFF8000000000000000007FFFFC0
FFFFF8000000000000000007FFFFC0
FFFFF8000000000000000007FFFFC0
FFFFF8000000000000000007FFFFC0
FFFFF8000000000000000007FFFFC0
FFFFF8000000000000000007FFFFC0
FFFFF8000000000000000007FFFFC0
FFFFF8000000000000000007FFFFC0
FFFFF8000000000000000007FFFFC0
FFFFF8000000000000000007FFFFC0
FFFFF8000000000000000007FFFFC0
FFFFF8000000000000000007FFFFC0
FFFFF8000000000000000007FFFFC0
FFFFF8000000000000000007FFFFC0
FFFFF8000000000000000007FFFFC0
FFFFF8000000000000000007FFFFC0
FFFFF8000000000000000007FFFFC0
FFFFF8000000000000000007FFFFC0
FFFFF8000000000000000007FFFFC0
FFFFF8000000000000000007FFFFC0
FFFFF8000000000000000007FFFFC0
FFFFF8000000000000000007FFFFC0
FFFFF8000000000000000007FFFFC0
FFFFF8000000000000000007FFFFC0
ENDCHAR
STARTCHAR 004C
ENCODING 76
SWIDTH 672 0
DWIDTH 121 0
BBX 113 154 4 -5
BITMAP
FFFFF8000000000000000000000000
FFFFF8000000000000000000000000
FFFFF8000000000000000000000000
FFFFF8000000000000000000000000
FFFFF8000000000000000000000000
FFFFF8000000000000000000000000
FFFFF8000000000000000000000000
FFFFF8000000000000000000000000
FFFFF8000000000000000000000000
FFFFF8000000000000000000000000
FFFFF8000000000000000000000000
FFFFF8000000000000000000000000
FFFFF8000000000000000000000000
FFFFF8000000000000000000000000
FFFFF8000000000000000000000000
FFFFF8000000000000000000000000
FFFFF8000000000000000000000000
FFFFF8000000000000000000000000
FFFFF8000000000000000000000000
FFFFF8000000000000000000000000
FFFFF8000000000000000000000000
FFFFF8000000000000000000000000
FFFFF8000000000000000000000000
FFFFF8000000000000000000000000
FFFFF8000000000000000000000000
FFFFF8000000000000000000000000
FFFFF8000000000000000000000000
FFFFF8000000000000000000000000
FFFFF8000000000000000000000000
FFFFF8000000000000000000000000
FFFFF8000000000000000000000000
FFFFF8000000000000000000000000
FFFFF8000000000000000000000000
FFFFF8000000000000000000000000
FFFFF8000000000000000000000000
FFFFF8000000000000000000000000
FFFFF8000000000000000000000000
FFFFF8000000000000000000000000
FFFFF8000000000000000000000000
FFFFF8000000000000000000000000
FFFFF8000000000000000000000000
FFFFF8000000000000000000000000
FFFFF8000000000000000000000000
FFFFF8000000000000000000000000
FFFFF8000000000000000000000000
FFFFF8000000000000000000000000
FFFFF8000000000000000000000000
FFFFF8000000000000000000000000
FFFFF8000000000000000000000000
FFFFF8000000000000000000000000
FFFFF8000000000000000000000000
FFFFF8000000000000000000000000
FFFFF8000000000000000000000000
FFFFF8000000000000000000000000
FFFFF8000000000000000000000000
FFFFF8000000000000000000000000
FFFFF8000000000000000000000000
FFFFF8000000000000000000000000
FFFFF8000000000000000000000000
FFFFF8000000000000000000000000
FFFFF8000000000000000000000000
FFFFF8000000000000000000000000
FFFFF8000000000000000000000000
FFFFF8000000000000000000000000
FFFFF8000000000000000000000000
FFFFF8000000000000000000000000
FFFFF8000000000000000000000000
FFFFF8000000000000000000000000
FFFFF8000000000000000000000000
FFFFF8000000000000000000000000
FFFFF8000000000000000000000000
FFFFF8000000000000000000000000
FFFFF8000000000000000000000000
FFFFF8000000000000000000000000
FFFFF8000000000000000000000000
FFFFF8000000000000000000000000
FFFFF8000000000000000000000000
FFFFF8000000000000000000000000
FFFFF8000000000000000000000000
FFFFF8000000000000000000000000
FFFFF8000000000000000000000000
FFFFF8000000000000000000000000
FFFFF8000000000000000000000000
FFFFF8000000000000000000000000
FFFFF8000000000000000000000000
FFFFF8000000000000000000000000
FFFFF8000000000000000000000000
FFFFF8000000000000000000000000
FFFFF8000000000000000000000000
FFFFF8000000000000000000000000
FFFFF8000000000000000000000000
FFFFF8000000000000000000000000
FFFFF8000000000000000000000000
FFFFF8000000000000000000000000
FFFFF8000000000000000000000000
FFFFF8000000000000000000000000
FFFFF8000000000000000000000000
FFFFF8000000000000000000000000
FFFFF8000000000000000000000000
FFFFF8000000000000000000000000
FFFFF8000000000000000000000000
FFFFF8000000000000000000000000
FFFFF8000000000000000000000000
FFFFF8000000000000000000000000
FFFFF8000000000000000000000000
FFFFF8000000000000000000000000
FFFFF8000000000000000000000000
FFFFF8000000000000000000000000
FFFFF8000000000000000000000000
FFFFF8000000000000000000000000
FFFFF8000000000000000000000000
FFFFF8000000000000000000000000
FFFFF8000000000000000000000000
FFFFF8000000000000000000000000
FFFFF8000000000000000000000000
FFFFF8000000000000000000000000
FFFFF8000000000000000000000000
FFFFF8000000000000000000000000
FFFFF8000000000000000000000000
FFFFF8000000000000000000000000
FFFFF8000000000000000000000000
FFFFF8000000000000000000000000
FFFFF8000000000000000000000000
FFFFF8000000000000000000000000
FFFFF8000000000000000000000000
FFFFF8000000000000000000000000
FFFFF8000000000000000000000000
FFFFF8000000000000000000000000
FFFFF8000000000000000000000000
FFFFF8000000000000000000000000
FFFFF8000000000000000000000000
FFFFF8000000000000000000000000
FFFFF8000000000000000000000000
FFFFF8000000000000000000000000
FFFFFFFFFFFFFFFFFFFFFFFFFFFF80
FFFFFFFFFFFFFFFFFFFFFFFFFFFF80
FFFFFFFFFFFFFFFFFFFFFFFFFFFF80
FFFFFFFFFFFFFFFFFFFFFFFFFFFF80
FFFFFFFFFFFFFFFFFFFFFFFFFFFF80
FFFFFFFFFFFFFFFFFFFFFFFFFFFF80
FFFFFFFFFFFFFFFFFFFFFFFFFFFF80
FFFFFFFFFFFFFFFFFFFFFFFFFFFF80
FFFFFFFFFFFFFFFFFFFFFFFFFFFF80
FFFFFFFFFFFFFFFFFFFFFFFFFFFF80
FFFFFFFFFFFFFFFFFFFFFFFFFFFF80
FFFFFFFFFFFFFFFFFFFFFFFFFFFF80
FFFFFFFFFFFFFFFFFFFFFFFFFFFF80
FFFFFFFFFFFFFFFFFFFFFFFFFFFF80
FFFFFFFFFFFFFFFFFFFFFFFFFFFF80
FFFFFFFFFFFFFFFFFFFFFFFFFFFF80
FFFFFFFFFFFFFFFFFFFFFFFFFFFF80
FFFFFFFFFFFFFFFFFFFFFFFFFFFF80
FFFFFFFFFFFFFFFFFFFFFFFFFFFF80
FFFFFFFFFFFFFFFFFFFFFFFFFFFF80
ENDCHAR
STARTCHAR 004D
ENCODING 77
SWIDTH 900 0
DWIDTH 162 0
BBX 153 154 4 -5
BITMAP
00000FFFFFFFFFFFFFFFFFFFFFFFFFFFF8000000
0000FFFFFFFFFFFFFFFFFFFFFFFFFFFFFF800000
0003FFFFFFFFFFFFFFFFFFFFFFFFFFFFFFE00000
000FFFFFFFFFFFFFFFFFFFFFFFFFFFFFFFF80000
001FFFFFFFFFFFFFFFFFFFFFFFFFFFFFFFFC0000
003FFFFFFFFFFFFFFFFFFFFFFFFFFFFFFFFE0000
00FFFFFFFFFFFFFFFFFFFFFFFFFFFFFFFFFF8000
01FFFFFFFFFFFFFFFFFFFFFFFFFFFFFFFFFFC000
03FFFFFFFFFFFFFFFFFFFFFFFFFFFFFFFFFFC000
03FFFFFFFFFFFFFFFFFFFFFFFFFFFFFFFFFFE000
07FFFFFFFFFFFFFFFFFFFFFFFFFFFFFFFFFFF000
0FFFFFFFFFFFFFFFFFFFFFFFFFFFFFFFFFFFF800
0FFFFFFFFFFFFFFFFFFFFFFFFFFFFFFFFFFFF800
1FFFFFFFFFFFFFFFFFFFFFFFFFFFFFFFFFFFFC00
1FFFFFFFFFFFFFFFFFFFFFFFFFFFFFFFFFFFFC00
3FFFFFFFFFFFFFFFFFFFFFFFFFFFFFFFFFFFFE00
3FFFFFFFFFFFFFFFFFFFFFFFFFFFFFFFFFFFFE00
7FFFFFFFFFFFFFFFFFFFFFFFFFFFFFFFFFFFFE00
7FFFFFFFFFFFFFFFFFFFFFFFFFFFFFFFFFFFFF00
7FFFFFFFFFFFFFFFFFFFFFFFFFFFFFFFFFFFFF00
7FFFFE00000000003FFFFE00000000003FFFFF00
7FFFF800000000003FFFFE00000000000FFFFF00
7FFFF800000000003FFFFE00000000000FFFFF00
7FFFF800000000003FFFFE00000000000FFFFF00
FFFFF800000000003FFFFE00000000000FFFFF00
FFFFF800000000003FFFFE00000000000FFFFF80
FFFFF800000000003FFFFE00000000000FFFFF80
FFFFF800000000003FFFFE00000000000FFFFF80
FFFFF800000000003FFFFE00000000000FFFFF80
FFFFF800000000003FFFFE00000000000FFFFF80
FFFFF800000000003FFFFE00000000000FFFFF80
FFFFF800000000003FFFFE00000000000FFFFF80
FFFFF800000000003FFFFE00000000000FFFFF80
FFFFF800000000003FFFFE00000000000FFFFF80
FFFFF800000000003FFFFE00000000000FFFFF80
FFFFF800000000003FFFFE00000000000FFFFF80
FFFFF800000000003FFFFE00000000000FFFFF80
FFFFF800000000003FFFFE00000000000FFFFF80
FFFFF800000000003FFFFE00000000000FFFFF80
FFFFF800000000003FFFFE00000000000FFFFF80
FFFFF800000000003FFFFE00000000000FFFFF80
FFFFF800000000003FFFFE00000000000FFFFF80
FFFFF800000000003FFFFE00000000000FFFFF80
FFFFF800000000003FFFFE00000000000FFFFF80
FFFFF800000000003FFFFE00000000000FFFFF80
FFFFF800000000003FFFFE00000000000FFFFF80
FFFFF800000000003FFFFE00000000000FFFFF80
FFFFF800000000003FFFFE00000000000FFFFF80
FFFFF800000000003FFFFE00000000000FFFFF80
FFFFF800000000003FFFFE00000000000FFFFF80
FFFFF800000000003FFFFE00000000000FFFFF80
FFFFF800000000003FFFFE00000000000FFFFF80
FFFFF800000000003FFFFE00000000000FFFFF80
FFFFF800000000003FFFFE00000000000FFFFF80
FFFFF800000000003FFFFE00000000000FFFFF80
FFFFF800000000003FFFFE00000000000FFFFF80
FFFFF800000000003FFFFE00000000000FFFFF80
FFFFF800000000003FFFFE00000000000FFFFF80
FFFFF800000000003FFFFE00000000000FFFFF80
FFFFF800000000003FFFFE00000000000FFFFF80
FFFFF800000000003FFFFE00000000000FFFFF80
FFFFF800000000003FFFFE00000000000FFFFF80
FFFFF800000000003FFFFE00000000000FFFFF80
FFFFF800000000003FFFFE00000000000FFFFF80
FFFFF800000000003FFFFE00000000000FFFFF80
FFFFF800000000003FFFFE00000000000FFFFF80
FFFFF800000000003FFFFE00000000000FFFFF80
FFFFF800000000003FFFFE00000000000FFFFF80
FFFFF800000000003FFFFE00000000000FFFFF80
FFFFF800000000003FFFFE00000000000FFFFF80
FFFFF800000000003FFFFE00000000000FFFFF80
FFFFF800000000003FFFFE00000000000FFFFF80
FFFFF800000000003FFFFE00000000000FFFFF80
FFFFF800000000003FFFFE00000000000FFFFF80
FFFFF800000000003FFFFE00000000000FFFFF80
FFFFF800000000003FFFFE00000000000FFFFF80
FFFFF800000000003FFFFE00000000000FFFFF80
FFFFF800000000003FFFFE00000000000FFFFF80
FFFFF800000000003FFFFE00000000000FFFFF80
FFFFF800000000003FFFFE00000000000FFFFF80
FFFFF800000000003FFFFE00000000000FFFFF80
FFFFF800000000003FFFFE00000000000FFFFF80
FFFFF800000000003FFFFE00000000000FFFFF80
FFFFF800000000003FFFFE00000000000FFFFF80
FFFFF800000000003FFFFE00000000000FFFFF80
FFFFF800000000003FFFFE00000000000FFFFF80
FFFFF800000000003FFFFE00000000000FFFFF80
FFFFF800000000003FFFFE00000000000FFFFF80
FFFFF800000000003FFFFE00000000000FFFFF80
FFFFF800000000003FFFFE00000000000FFFFF80
FFFFF800000000003FFFFE00000000000FFFFF80
FFFFF800000000003FFFFE00000000000FFFFF80
FFFFF800000000003FFFFE00000000000FFFFF80
FFFFF800000000003FFFFE00000000000FFFFF80
FFFFF800000000003FFFFE00000000000FFFFF80
FFFFF800000000003FFFFE00000000000FFFFF80
FFFFF800000000003FFFFE00000000000FFFFF80
FFFFF800000000003FFFFE00000000000FFFFF80
FFFFF800000000003FFFFE00000000000FFFFF80
FFFFF800000000003FFFFE00000000000FFFFF80
FFFFF800000000003FFFFE00000000000FFFFF80
FFFFF800000000003FFFFE00000000000FFFFF80
FFFFF800000000003FFFFE00000000000FFFFF80
FFFFF800000000003FFFFE00000000000FFFFF80
FFFFF800000000003FFFFE00000000000FFFFF80
FFFFF800000000003FFFFE00000000000FFFFF80
FFFFF800000000003FFFFE00000000000FFFFF80
FFFFF800000000003FFFFE00000000000FFFFF80
FFFFF800000000003FFFFE00000000000FFFFF80
FFFFF800000000003FFFFE00000000000FFFFF80
FFFFF800000000003FFFFE00000000000FFFFF80
FFFFF800000000003FFFFE00000000000FFFFF80
FFFFF800000000003FFFFE00000000000FFFFF80
FFFFF800000000003FFFFE00000000000FFFFF80
FFFFF800000000003FFFFE00000000000FFFFF80
FFFFF800000000003FFFFE00000000000FFFFF80
FFFFF800000000003FFFFE00000000000FFFFF80
FFFFF800000000003FFFFE00000000000FFFFF80
FFFFF800000000003FFFFE00000000000FFFFF80
FFFFF800000000003FFFFE00000000000FFFFF80
FFFFF800000000003FFFFE00000000000FFFFF80
FFFFF800000000003FFFFE00000000000FFFFF80
FFFFF800000000003FFFFE00000000000FFFFF80
FFFFF800000000003FFFFE00000000000FFFFF80
FFFFF800000000003FFFFE00000000000FFFFF80
FFFFF800000000003FFFFE00000000000FFFFF80
FFFFF800000000003FFFFE00000000000FFFFF80
FFFFF800000000003FFFFE00000000000FFFFF80
FFFFF800000000003FFFFE00000000000FFFFF80
FFFFF800000000003FFFFE00000000000FFFFF80
FFFFF800000000003FFFFE00000000000FFFFF80
FFFFF800000000003FFFFE00000000000FFFFF80
FFFFF800000000003FFFFE00000000000FFFFF80
FFFFF800000000003FFFFE00000000000FFFFF80
FFFFF800000000003FFFFE00000000000FFFFF80
FFFFF800000000003FFFFE00000000000FFFFF80
FFFFF800000000003FFFFE00000000000FFFFF80
FFFFF800000000003FFFFE00000000000FFFFF80
FFFFF800000000003FFFFE00000000000FFFFF80
FFFFF800000000003FFFFE00000000000FFFFF80
FFFFF800000000003FFFFE00000000000FFFFF80
FFFFF800000000003FFFFE00000000000FFFFF80
FFFFF800000000003FFFFE00000000000FFFFF80
FFFFF800000000003FFFFE00000000000FFFFF80
FFFFF800000000003FFFFE00000000000FFFFF80
FFFFF800000000003FFFFE00000000000FFFFF80
FFFFF800000000003FFFFE00000000000FFFFF80
FFFFF800000000003FFFFE00000000000FFFFF80
FFFFF800000000003FFFFE00000000000FFFFF80
FFFFF800000000003FFFFE00000000000FFFFF80
FFFFF800000000003FFFFE00000000000FFFFF80
FFFFF800000000003FFFFE00000000000FFFFF80
FFFFF800000000003FFFFE00000000000FFFFF80
FFFFF800000000003FFFFE00000000000FFFFF80
ENDCHAR
STARTCHAR 004E
ENCODING 78
SWIDTH 677 0
DWIDTH 122 0
BBX 114 154 4 -5
BITMAP
00000FFFFFFFFFFFFFFFFFFC000000
00007FFFFFFFFFFFFFFFFFFF800000
0003FFFFFFFFFFFFFFFFFFFFF00000
000FFFFFFFFFFFFFFFFFFFFFFC0000
001FFFFFFFFFFFFFFFFFFFFFFE0000
003FFFFFFFFFFFFFFFFFFFFFFF0000
007FFFFFFFFFFFFFFFFFFFFFFFC000
01FFFFFFFFFFFFFFFFFFFFFFFFE000
01FFFFFFFFFFFFFFFFFFFFFFFFE000
03FFFFFFFFFFFFFFFFFFFFFFFFF000
07FFFFFFFFFFFFFFFFFFFFFFFFF800
0FFFFFFFFFFFFFFFFFFFFFFFFFFC00
0FFFFFFFFFFFFFFFFFFFFFFFFFFC00
1FFFFFFFFFFFFFFFFFFFFFFFFFFE00
1FFFFFFFFFFFFFFFFFFFFFFFFFFE00
3FFFFFFFFFFFFFFFFFFFFFFFFFFF00
3FFFFFFFFFFFFFFFFFFFFFFFFFFF00
3FFFFFFFFFFFFFFFFFFFFFFFFFFF00
7FFFFFFFFFFFFFFFFFFFFFFFFFFF80
7FFFFFFFFFFFFFFFFFFFFFFFFFFF80
7FFFFE00000000000000001FFFFF80
7FFFF8000000000000000007FFFF80
7FFFF8000000000000000007FFFF80
7FFFF8000000000000000007FFFF80
FFFFF8000000000000000007FFFF80
FFFFF8000000000000000007FFFFC0
FFFFF8000000000000000007FFFFC0
FFFFF8000000000000000007FFFFC0
FFFFF8000000000000000007FFFFC0
FFFFF8000000000000000007FFFFC0
FFFFF8000000000000000007FFFFC0
FFFFF8000000000000000007FFFFC0
FFFFF8000000000000000007FFFFC0
FFFFF8000000000000000007FFFFC0
FFFFF8000000000000000007FFFFC0
FFFFF8000000000000000007FFFFC0
FFFFF8000000000000000007FFFFC0
FFFFF8000000000000000007FFFFC0
FFFFF8000000000000000007FFFFC0
FFFFF8000000000000000007FFFFC0
FFFFF8000000000000000007FFFFC0
FFFFF8000000000000000007FFFFC0
FFFFF8000000000000000007FFFFC0
FFFFF8000000000000000007FFFFC0
FFFFF8000000000000000007FFFFC0
FFFFF8000000000000000007FFFFC0
FFFFF8000000000000000007FFFFC0
FFFFF8000000000000000007FFFFC0
FFFFF8000000000000000007FFFFC0
FFFFF8000000000000000007FFFFC0
FFFFF8000000000000000007FFFFC0
FFFFF8000000000000000007FFFFC0
FFFFF8000000000000000007FFFFC0
FFFFF8000000000000000007FFFFC0
FFFFF8000000000000000007FFFFC0
FFFFF8000000000000000007FFFFC0
FFFFF8000000000000000007FFFFC0
FFFFF8000000000000000007FFFFC0
FFFFF8000000000000000007FFFFC0
FFFFF8000000000000000007FFFFC0
FFFFF8000000000000000007FFFFC0
FFFFF8000000000000000007FFFFC0
FFFFF8000000000000000007FFFFC0
FFFFF8000000000000000007FFFFC0
FFFFF8000000000000000007FFFFC0
FFFFF8000000000000000007FFFFC0
FFFFF8000000000000000007FFFFC0
FFFFF8000000000000000007FFFFC0
FFFFF8000000000000000007FFFFC0
FFFFF8000000000000000007FFFFC0
FFFFF8000000000000000007FFFFC0
FFFFF8000000000000000007FFFFC0
FFFFF8000000000000000007FFFFC0
FFFFF8000000000000000007FFFFC0
FFFFF8000000000000000007FFFFC0
FFFFF8000000000000000007FFFFC0
FFFFF8000000000000000007FFFFC0
FFFFF8000000000000000007FFFFC0
FFFFF8000000000000000007FFFFC0
FFFFF8000000000000000007FFFFC0
FFFFF8000000000000000007FFFFC0
FFFFF8000000000000000007FFFFC0
FFFFF8000000000000000007FFFFC0
FFFFF8000000000000000007FFFFC0
FFFFF8000000000000000007FFFFC0
FFFFF8000000000000000007FFFFC0
FFFFF8000000000000000007FFFFC0
FFFFF8000000000000000007FFFFC0
FFFFF8000000000000000007FFFFC0
FFFFF8000000000000000007FFFFC0
FFFFF8000000000000000007FFFFC0
FFFFF8000000000000000007FFFFC0
FFFFF8000000000000000007FFFFC0
FFFFF8000000000000000007FFFFC0
FFFFF8000000000000000007FFFFC0
FFFFF8000000000000000007FFFFC0
FFFFF8000000000000000007FFFFC0
FFFFF8000000000000000007FFFFC0
FFFFF8000000000000000007FFFFC0
FFFFF8000000000000000007FFFFC0
FFFFF8000000000000000007FFFFC0
FFFFF8000000000000000007FFFFC0
FFFFF8000000000000000007FFFFC0
FFFFF8000000000000000007FFFFC0
FFFFF8000000000000000007FFFFC0
FFFFF8000000000000000007FFFFC0
FFFFF8000000000000000007FFFFC0
FFFFF8000000000000000007FFFFC0
FFFFF8000000000000000007FFFFC0
FFFFF8000000000000000007FFFFC0
FFFFF8000000000000000007FFFFC0
FFFFF8000000000000000007FFFFC0
FFFFF8000000000000000007FFFFC0
FFFFF8000000000000000007FFFFC0
FFFFF8000000000000000007FFFFC0
FFFFF8000000000000000007FFFFC0
FFFFF8000000000000000007FFFFC0
FFFFF8000000000000000007FFFFC0
FFFFF8000000000000000007FFFFC0
FFFFF8000000000000000007FFFFC0
FFFFF8000000000000000007FFFFC0
FFFFF8000000000000000007FFFFC0
FFFFF8000000000000000007FFFFC0
FFFFF8000000000000000007FFFFC0
FFFFF8000000000000000007FFFFC0
FFFFF8000000000000000007FFFFC0
FFFFF8000000000000000007FFFFC0
FFFFF8000000000000000007FFFFC0
FFFFF8000000000000000007FFFFC0
FFFFF8000000000000000007FFFFC0
FFFFF8000000000000000007FFFFC0
FFFFF8000000000000000007FFFFC0
FFFFF8000000000000000007FFFFC0
FFFFF8000000000000000007FFFFC0
FFFFF8000000000000000007FFFFC0
FFFFF8000000000000000007FFFFC0
FFFFF8000000000000000007FFFFC0
FFFFF8000000000000000007FFFFC0
FFFFF8000000000000000007FFFFC0
FFFFF8000000000000000007FFFFC0
FFFFF8000000000000000007FFFFC0
FFFFF8000000000000000007FFFFC0
FFFFF8000000000000000007FFFFC0
FFFFF8000000000000000007FFFFC0
FFFFF8000000000000000007FFFFC0
FFFFF8000000000000000007FFFFC0
FFFFF8000000000000000007FFFFC0
FFFFF8000000000000000007FFFFC0
FFFFF8000000000000000007FFFFC0
FFFFF8000000000000000007FFFFC0
FFFFF8000000000000000007FFFFC0
FFFFF8000000000000000007FFFFC0
FFFFF8000000000000000007FFFFC0
FFFFF8000000000000000007FFFFC0
ENDCHAR
STARTCHAR 004F
ENCODING 79
SWIDTH 672 0
DWIDTH 121 0
BBX 113 154 4 -5
BITMAP
00000FFFFFFFFFFFFFFFFFF8000000
0000FFFFFFFFFFFFFFFFFFFF800000
0003FFFFFFFFFFFFFFFFFFFFE00000
000FFFFFFFFFFFFFFFFFFFFFF80000
001FFFFFFFFFFFFFFFFFFFFFFC0000
003FFFFFFFFFFFFFFFFFFFFFFE0000
00FFFFFFFFFFFFFFFFFFFFFFFF8000
01FFFFFFFFFFFFFFFFFFFFFFFFC000
03FFFFFFFFFFFFFFFFFFFFFFFFE000
03FFFFFFFFFFFFFFFFFFFFFFFFE000
07FFFFFFFFFFFFFFFFFFFFFFFFF000
0FFFFFFFFFFFFFFFFFFFFFFFFFF800
0FFFFFFFFFFFFFFFFFFFFFFFFFF800
1FFFFFFFFFFFFFFFFFFFFFFFFFFC00
1FFFFFFFFFFFFFFFFFFFFFFFFFFC00
3FFFFFFFFFFFFFFFFFFFFFFFFFFE00
3FFFFFFFFFFFFFFFFFFFFFFFFFFE00
7FFFFFFFFFFFFFFFFFFFFFFFFFFE00
7FFFFFFFFFFFFFFFFFFFFFFFFFFF00
7FFFFFFFFFFFFFFFFFFFFFFFFFFF00
7FFFFE00000000000000003FFFFF00
7FFFF800000000000000000FFFFF00
7FFFF800000000000000000FFFFF00
7FFFF800000000000000000FFFFF00
FFFFF800000000000000000FFFFF00
FFFFF800000000000000000FFFFF80
FFFFF800000000000000000FFFFF80
FFFFF800000000000000000FFFFF80
FFFFF800000000000000000FFFFF80
FFFFF800000000000000000FFFFF80
FFFFF800000000000000000FFFFF80
FFFFF800000000000000000FFFFF80
FFFFF800000000000000000FFFFF80
FFFFF800000000000000000FFFFF80
FFFFF800000000000000000FFFFF80
FFFFF800000000000000000FFFFF80
FFFFF800000000000000000FFFFF80
FFFFF800000000000000000FFFFF80
FFFFF800000000000000000FFFFF80
FFFFF800000000000000000FFFFF80
FFFFF800000000000000000FFFFF80
FFFFF800000000000000000FFFFF80
FFFFF800000000000000000FFFFF80
FFFFF800000000000000000FFFFF80
FFFFF800000000000000000FFFFF80
FFFFF800000000000000000FFFFF80
FFFFF800000000000000000FFFFF80
FFFFF800000000000000000FFFFF80
FFFFF800000000000000000FFFFF80
FFFFF800000000000000000FFFFF80
FFFFF800000000000000000FFFFF80
FFFFF800000000000000000FFFFF80
FFFFF800000000000000000FFFFF80
FFFFF800000000000000000FFFFF80
FFFFF800000000000000000FFFFF80
FFFFF800000000000000000FFFFF80
FFFFF800000000000000000FFFFF80
FFFFF800000000000000000FFFFF80
FFFFF800000000000000000FFFFF80
FFFFF800000000000000000FFFFF80
FFFFF800000000000000000FFFFF80
FFFFF800000000000000000FFFFF80
FFFFF800000000000000000FFFFF80
FFFFF800000000000000000FFFFF80
FFFFF800000000000000000FFFFF80
FFFFF800000000000000000FFFFF80
FFFFF800000000000000000FFFFF80
FFFFF800000000000000000FFFFF80
FFFFF800000000000000000FFFFF80
FFFFF800000000000000000FFFFF80
FFFFF800000000000000000FFFFF80
FFFFF800000000000000000FFFFF80
FFFFF800000000000000000FFFFF80
FFFFF800000000000000000FFFFF80
FFFFF800000000000000000FFFFF80
FFFFF800000000000000000FFFFF80
FFFFF800000000000000000FFFFF80
FFFFF800000000000000000FFFFF80
FFFFF800000000000000000FFFFF80
FFFFF800000000000000000FFFFF80
FFFFF800000000000000000FFFFF80
FFFFF800000000000000000FFFFF80
FFFFF800000000000000000FFFFF80
FFFFF800000000000000000FFFFF80
FFFFF800000000000000000FFFFF80
FFFFF800000000000000000FFFFF80
FFFFF800000000000000000FFFFF80
FFFFF800000000000000000FFFFF80
FFFFF800000000000000000FFFFF80
FFFFF800000000000000000FFFFF80
FFFFF800000000000000000FFFFF80
FFFFF800000000000000000FFFFF80
FFFFF800000000000000000FFFFF80
FFFFF800000000000000000FFFFF80
FFFFF800000000000000000FFFFF80
FFFFF800000000000000000FFFFF80
FFFFF800000000000000000FFFFF80
FFFFF800000000000000000FFFFF80
FFFFF800000000000000000FFFFF80
FFFFF800000000000000000FFFFF80
FFFFF800000000000000000FFFFF80
FFFFF800000000000000000FFFFF80
FFFFF800000000000000000FFFFF80
FFFFF800000000000000000FFFFF80
FFFFF800000000000000000FFFFF80
FFFFF800000000000000000FFFFF80
FFFFF800000000000000000FFFFF80
FFFFF800000000000000000FFFFF80
FFFFF800000000000000000FFFFF80
FFFFF800000000000000000FFFFF80
FFFFF800000000000000000FFFFF80
FFFFF800000000000000000FFFFF80
FFFFF800000000000000000FFFFF80
FFFFF800000000000000000FFFFF80
FFFFF800000000000000000FFFFF80
FFFFF800000000000000000FFFFF80
FFFFF800000000000000000FFFFF80
FFFFF800000000000000000FFFFF80
FFFFF800000000000000000FFFFF80
FFFFF800000000000000000FFFFF80
FFFFF800000000000000000FFFFF80
FFFFF800000000000000000FFFFF80
FFFFF800000000000000000FFFFF80
FFFFF800000000000000000FFFFF80
FFFFF800000000000000000FFFFF80
FFFFF800000000000000000FFFFF80
FFFFF800000000000000000FFFFF80
FFFFF800000000000000000FFFFF80
FFFFF800000000000000000FFFFF80
FFFFF800000000000000000FFFFF00
7FFFF800000000000000000FFFFF00
7FFFF800000000000000000FFFFF00
7FFFF800000000000000000FFFFF00
7FFFFE00000000000000003FFFFF00
7FFFFFFFFFFFFFFFFFFFFFFFFFFF00
7FFFFFFFFFFFFFFFFFFFFFFFFFFF00
3FFFFFFFFFFFFFFFFFFFFFFFFFFE00
3FFFFFFFFFFFFFFFFFFFFFFFFFFE00
3FFFFFFFFFFFFFFFFFFFFFFFFFFE00
1FFFFFFFFFFFFFFFFFFFFFFFFFFC00
1FFFFFFFFFFFFFFFFFFFFFFFFFFC00
0FFFFFFFFFFFFFFFFFFFFFFFFFF800
0FFFFFFFFFFFFFFFFFFFFFFFFFF800
07FFFFFFFFFFFFFFFFFFFFFFFFF000
03FFFFFFFFFFFFFFFFFFFFFFFFE000
03FFFFFFFFFFFFFFFFFFFFFFFFE000
01FFFFFFFFFFFFFFFFFFFFFFFFC000
00FFFFFFFFFFFFFFFFFFFFFFFF8000
003FFFFFFFFFFFFFFFFFFFFFFF0000
001FFFFFFFFFFFFFFFFFFFFFFC0000
000FFFFFFFFFFFFFFFFFFFFFF80000
0003FFFFFFFFFFFFFFFFFFFFE00000
0000FFFFFFFFFFFFFFFFFFFF800000
00000FFFFFFFFFFFFFFFFFF8000000
ENDCHAR
STARTCHAR 0050
ENCODING 80
SWIDTH 672 0
DWIDTH 121 0
BBX 113 154 4 -5
BITMAP
00000FFFFFFFFFFFFFFFFFF8000000
0000FFFFFFFFFFFFFFFFFFFF000000
0003FFFFFFFFFFFFFFFFFFFFE00000
000FFFFFFFFFFFFFFFFFFFFFF80000
001FFFFFFFFFFFFFFFFFFFFFFC0000
007FFFFFFFFFFFFFFFFFFFFFFE0000
00FFFFFFFFFFFFFFFFFFFFFFFF8000
01FFFFFFFFFFFFFFFFFFFFFFFFC000
03FFFFFFFFFFFFFFFFFFFFFFFFC000
03FFFFFFFFFFFFFFFFFFFFFFFFE000
07FFFFFFFFFFFFFFFFFFFFFFFFF000
0FFFFFFFFFFFFFFFFFFFFFFFFFF800
0FFFFFFFFFFFFFFFFFFFFFFFFFF800
1FFFFFFFFFFFFFFFFFFFFFFFFFFC00
1FFFFFFFFFFFFFFFFFFFFFFFFFFC00
3FFFFFFFFFFFFFFFFFFFFFFFFFFE00
3FFFFFFFFFFFFFFFFFFFFFFFFFFE00
7FFFFFFFFFFFFFFFFFFFFFFFFFFE00
7FFFFFFFFFFFFFFFFFFFFFFFFFFF00
7FFFFFFFFFFFFFFFFFFFFFFFFFFF00
7FFFFE00000000000000003FFFFF00
7FFFF800000000000000000FFFFF00
7FFFF800000000000000000FFFFF00
7FFFF800000000000000000FFFFF00
FFFFF800000000000000000FFFFF00
FFFFF800000000000000000FFFFF80
FFFFF800000000000000000FFFFF80
FFFFF800000000000000000FFFFF80
FFFFF800000000000000000FFFFF80
FFFFF800000000000000000FFFFF80
FFFFF800000000000000000FFFFF80
FFFFF800000000000000000FFFFF80
FFFFF800000000000000000FFFFF80
FFFFF800000000000000000FFFFF80
FFFFF800000000000000000FFFFF80
FFFFF800000000000000000FFFFF80
FFFFF800000000000000000FFFFF80
FFFFF800000000000000000FFFFF80
FFFFF800000000000000000FFFFF80
FFFFF800000000000000000FFFFF80
FFFFF800000000000000000FFFFF80
FFFFF800000000000000000FFFFF80
FFFFF800000000000000000FFFFF80
FFFFF800000000000000000FFFFF80
FFFFF800000000000000000FFFFF80
FFFFF800000000000000000FFFFF80
FFFFF800000000000000000FFFFF80
FFFFF800000000000000000FFFFF80
FFFFF800000000000000000FFFFF80
FFFFF800000000000000000FFFFF80
FFFFF800000000000000000FFFFF00
FFFFF800000000000000000FFFFF00
FFFFF800000000000000000FFFFF00
FFFFF800000000000000001FFFFF00
FFFFF800000000000000001FFFFF00
FFFFF800000000000000003FFFFF00
FFFFF800000000000000007FFFFF00
FFFFF80000000000000000FFFFFE00
FFFFF80000000000000003FFFFFE00
FFFFF8000000000000000FFFFFFE00
FFFFF8000000000000003FFFFFFC00
FFFFF800000000000001FFFFFFFC00
FFFFF80000000000001FFFFFFFF800
FFFFF8000000000001FFFFFFFFF800
FFFFF800000000003FFFFFFFFFF000
FFFFF80000000003FFFFFFFFFFF000
FFFFF8000000007FFFFFFFFFFFE000
FFFFF800000007FFFFFFFFFFFFC000
FFFFF8000000FFFFFFFFFFFFFF8000
FFFFF800001FFFFFFFFFFFFFFF0000
FFFFF80001FFFFFFFFFFFFFFFE0000
FFFFF8001FFFFFFFFFFFFFFFFC0000
FFFFF800FFFFFFFFFFFFFFFFF80000
FFFFF807FFFFFFFFFFFFFFFFE00000
FFFFF83FFFFFFFFFFFFFFFFFC00000
FFFFF9FFFFFFFFFFFFFFFFFF000000
FFFFFFFFFFFFFFFFFFFFFFFC000000
FFFFFFFFFFFFFFFFFFFFFFF0000000
FFFFFFFFFFFFFFFFFFFFFFC0000000
FFFFFFFFFFFFFFFFFFFFFF00000000
FFFFFFFFFFFFFFFFFFFFF800000000
FFFFFFFFFFFFFFFFFFFF0000000000
FFFFFFFFFFFFFFFFFFF00000000000
FFFFFFFFFFFFFFFFFF000000000000
FFFFFFFFFFFFFFFFE0000000000000
FFFFFFFFFFFFFFFE00000000000000
FFFFFFFFFFFFFFE000000000000000
FFFFFFFFFFFFFE0000000000000000
FFFFFFFFFFFFC00000000000000000
FFFFFFFFFFFC000000000000000000
FFFFFFFFFFC0000000000000000000
FFFFFFFFFC00000000000000000000
FFFFFFFFC000000000000000000000
FFFFFFFF0000000000000000000000
FFFFFFF80000000000000000000000
FFFFFFE00000000000000000000000
FFFFFF800000000000000000000000
FFFFFF000000000000000000000000
FFFFFE000000000000000000000000
FFFFFC000000000000000000000000
FFFFF8000000000000000000000000
FFFFF8000000000000000000000000
FFFFF8000000000000000000000000
FFFFF8000000000000000000000000
FFFFF8000000000000000000000000
FFFFF8000000000000000000000000
FFFFF8000000000000000000000000
FFFFF8000000000000000000000000
FFFFF8000000000000000000000000
FFFFF8000000000000000000000000
FFFFF8000000000000000000000000
FFFFF8000000000000000000000000
FFFFF8000000000000000000000000
FFFFF8000000000000000000000000
FFFFF8000000000000000000000000
FFFFF8000000000000000000000000
FFFFF8000000000000000000000000
FFFFF8000000000000000000000000
FFFFF8000000000000000000000000
FFFFF8000000000000000000000000
FFFFF8000000000000000000000000
FFFFF8000000000000000000000000
FFFFF8000000000000000000000000
FFFFF8000000000000000000000000
FFFFF8000000000000000000000000
FFFFF8000000000000000000000000
FFFFF8000000000000000000000000
FFFFF8000000000000000000000000
FFFFF8000000000000000000000000
FFFFF8000000000000000000000000
FFFFF8000000000000000000000000
FFFFF8000000000000000000000000
FFFFF8000000000000000000000000
FFFFF8000000000000000000000000
FFFFF8000000000000000000000000
FFFFF8000000000000000000000000
FFFFF8000000000000000000000000
FFFFF8000000000000000000000000
FFFFF8000000000000000000000000
FFFFF8000000000000000000000000
FFFFF8000000000000000000000000
FFFFF8000000000000000000000000
FFFFF8000000000000000000000000
FFFFF8000000000000000000000000
FFFFF8000000000000000000000000
FFFFF8000000000000000000000000
FFFFF8000000000000000000000000
FFFFF8000000000000000000000000
FFFFF8000000000000000000000000
FFFFF8000000000000000000000000
FFFFF8000000000000000000000000
FFFFF8000000000000000000000000
FFFFF8000000000000000000000000
FFFFF8000000000000000000000000
ENDCHAR
STARTCHAR 0051
ENCODING 81
SWIDTH 672 0
DWIDTH 121 0
BBX 113 179 4 -30
BITMAP
00000FFFFFFFFFFFFFFFFFF8000000
0000FFFFFFFFFFFFFFFFFFFF800000
0003FFFFFFFFFFFFFFFFFFFFE00000
000FFFFFFFFFFFFFFFFFFFFFF80000
001FFFFFFFFFFFFFFFFFFFFFFC0000
003FFFFFFFFFFFFFFFFFFFFFFE0000
00FFFFFFFFFFFFFFFFFFFFFFFF8000
01FFFFFFFFFFFFFFFFFFFFFFFFC000
03FFFFFFFFFFFFFFFFFFFFFFFFE000
03FFFFFFFFFFFFFFFFFFFFFFFFE000
07FFFFFFFFFFFFFFFFFFFFFFFFF000
0FFFFFFFFFFFFFFFFFFFFFFFFFF800
0FFFFFFFFFFFFFFFFFFFFFFFFFF800
1FFFFFFFFFFFFFFFFFFFFFFFFFFC00
1FFFFFFFFFFFFFFFFFFFFFFFFFFC00
3FFFFFFFFFFFFFFFFFFFFFFFFFFE00
3FFFFFFFFFFFFFFFFFFFFFFFFFFE00
7FFFFFFFFFFFFFFFFFFFFFFFFFFE00
7FFFFFFFFFFFFFFFFFFFFFFFFFFF00
7FFFFFFFFFFFFFFFFFFFFFFFFFFF00
7FFFFE00000000000000003FFFFF00
7FFFF800000000000000000FFFFF00
7FFFF800000000000000000FFFFF00
7FFFF800000000000000000FFFFF00
FFFFF800000000000000000FFFFF00
FFFFF800000000000000000FFFFF80
FFFFF800000000000000000FFFFF80
FFFFF800000000000000000FFFFF80
FFFFF800000000000000000FFFFF80
FFFFF800000000000000000FFFFF80
FFFFF800000000000000000FFFFF80
FFFFF800000000000000000FFFFF80
FFFFF800000000000000000FFFFF80
FFFFF800000000000000000FFFFF80
FFFFF800000000000000000FFFFF80
FFFFF800000000000000000FFFFF80
FFFFF800000000000000000FFFFF80
FFFFF800000000000000000FFFFF80
FFFFF800000000000000000FFFFF80
FFFFF800000000000000000FFFFF80
FFFFF800000000000000000FFFFF80
FFFFF800000000000000000FFFFF80
FFFFF800000000000000000FFFFF80
FFFFF800000000000000000FFFFF80
FFFFF800000000000000000FFFFF80
FFFFF800000000000000000FFFFF80
FFFFF800000000000000000FFFFF80
FFFFF800000000000000000FFFFF80
FFFFF800000000000000000FFFFF80
FFFFF800000000000000000FFFFF80
FFFFF800000000000000000FFFFF80
FFFFF800000000000000000FFFFF80
FFFFF800000000000000000FFFFF80
FFFFF800000000000000000FFFFF80
FFFFF800000000000000000FFFFF80
FFFFF800000000000000000FFFFF80
FFFFF800000000000000000FFFFF80
FFFFF800000000000000000FFFFF80
FFFFF800000000000000000FFFFF80
FFFFF800000000000000000FFFFF80
FFFFF800000000000000000FFFFF80
FFFFF800000000000000000FFFFF80
FFFFF800000000000000000FFFFF80
FFFFF800000000000000000FFFFF80
FFFFF800000000000000000FFFFF80
FFFFF800000000000000000FFFFF80
FFFFF800000000000000000FFFFF80
FFFFF800000000000000000FFFFF80
FFFFF800000000000000000FFFFF80
FFFFF800000000000000000FFFFF80
FFFFF800000000000000000FFFFF80
FFFFF800000000000000000FFFFF80
FFFFF800000000000000000FFFFF80
FFFFF800000000000000000FFFFF80
FFFFF800000000000000000FFFFF80
FFFFF800000000000000000FFFFF80
FFFFF800000000000000000FFFFF80
FFFFF800000000000000000FFFFF80
FFFFF800000000000000000FFFFF80
FFFFF800000000000000000FFFFF80
FFFFF800000000000000000FFFFF80
FFFFF800000000000000000FFFFF80
FFFFF800000000000000000FFFFF80
FFFFF800000000000000000FFFFF80
FFFFF800000000000000000FFFFF80
FFFFF800000000000000000FFFFF80
FFFFF800000000000000000FFFFF80
FFFFF800000000000000000FFFFF80
FFFFF800000000000000000FFFFF80
FFFFF800000000000000000FFFFF80
FFFFF800000000000000000FFFFF80
FFFFF800000000000000000FFFFF80
FFFFF800000000000000000FFFFF80
FFFFF800000000000000000FFFFF80
FFFFF800000000000000000FFFFF80
FFFFF800000000000000000FFFFF80
FFFFF800000000000000000FFFFF80
FFFFF800000000000000000FFFFF80
FFFFF800000000000000000FFFFF80
FFFFF800000000000000000FFFFF80
FFFFF800000000000000000FFFFF80
FFFFF800000000000000000FFFFF80
FFFFF800000000000000000FFFFF80
FFFFF800000000000000000FFFFF80
FFFFF800000000000000000FFFFF80
FFFFF800000000000000000FFFFF80
FFFFF800000000000000000FFFFF80
FFFFF800000000000000000FFFFF80
FFFFF800000000000000000FFFFF80
FFFFF800000000000000000FFFFF80
FFFFF800000000000000000FFFFF80
FFFFF800000000000000000FFFFF80
FFFFF800000000000000000FFFFF80
FFFFF800000000000000000FFFFF80
FFFFF800000000000000000FFFFF80
FFFFF800000000000000000FFFFF80
FFFFF800000000000000000FFFFF80
FFFFF800000000000000000FFFFF80
FFFFF800000000000000000FFFFF80
FFFFF800000000000000000FFFFF80
FFFFF800000000000000000FFFFF80
FFFFF800000000000000000FFFFF80
FFFFF800000000000000000FFFFF80
FFFFF800000000000000000FFFFF80
FFFFF800000000000000000FFFFF80
FFFFF800000000000000000FFFFF80
FFFFF800000000000000000FFFFF80
FFFFF800000000000000000FFFFF80
FFFFF800000000000000000FFFFF80
FFFFF800000000000000000FFFFF00
7FFFF800000000000000000FFFFF00
7FFFF800000000000000000FFFFF00
7FFFF800000000000000000FFFFF00
7FFFFE00000000000000003FFFFF00
7FFFFFFFFFFFFFFFFFFFFFFFFFFF00
7FFFFFFFFFFFFFFFFFFFFFFFFFFF00
3FFFFFFFFFFFFFFFFFFFFFFFFFFE00
3FFFFFFFFFFFFFFFFFFFFFFFFFFE00
3FFFFFFFFFFFFFFFFFFFFFFFFFFE00
1FFFFFFFFFFFFFFFFFFFFFFFFFFC00
1FFFFFFFFFFFFFFFFFFFFFFFFFFC00
0FFFFFFFFFFFFFFFFFFFFFFFFFF800
0FFFFFFFFFFFFFFFFFFFFFFFFFF800
07FFFFFFFFFFFFFFFFFFFFFFFFF000
03FFFFFFFFFFFFFFFFFFFFFFFFE000
01FFFFFFFFFFFFFFFFFFFFFFFFE000
01FFFFFFFFFFFFFFFFFFFFFFFFC000
00FFFFFFFFFFFFFFFFFFFFFFFF8000
003FFFFFFFFFFFFFFFFFFFFFFF0000
001FFFFFFFFFFFFFFFFFFFFFFC0000
000FFFFFFFFFFFFFFFFFFFFFF80000
0003FFFFFFFFFFFFFFFFFFFFE00000
00007FFFFFFFFFFFFFFFFFFF800000
00000FFFFFFFFFFFFFFFFFF8000000
000000000001FFFFF0000000000000
000000000001FFFFF0000000000000
000000000001FFFFF0000000000000
000000000001FFFFF0000000000000
000000000001FFFFF0000000000000
000000000001FFFFF0000000000000
000000000001FFFFF0000000000000
000000000001FFFFF0000000000000
000000000001FFFFF0000000000000
000000000001FFFFF0000000000000
000000000001FFFFF0000000000000
000000000001FFFFF0000000000000
000000000001FFFFF0000000000000
000000000001FFFFF0000000000000
000000000001FFFFF0000000000000
000000000001FFFFF0000000000000
000000000001FFFFF0000000000000
000000000001FFFFF0000000000000
000000000001FFFFF0000000000000
000000000001FFFFF0000000000000
000000000001FFFFF0000000000000
000000000001FFFFF0000000000000
000000000001FFFFF0000000000000
000000000001FFFFF0000000000000
000000000001FFFFF0000000000000
ENDCHAR
STARTCHAR 0052
ENCODING 82
SWIDTH 677 0
DWIDTH 122 0
BBX 114 154 4 -5
BITMAP
00000FFFFFFFFFFFFFFFFFFC000000
00007FFFFFFFFFFFFFFFFFFF800000
0003FFFFFFFFFFFFFFFFFFFFF00000
000FFFFFFFFFFFFFFFFFFFFFFC0000
001FFFFFFFFFFFFFFFFFFFFFFE0000
003FFFFFFFFFFFFFFFFFFFFFFF0000
007FFFFFFFFFFFFFFFFFFFFFFFC000
01FFFFFFFFFFFFFFFFFFFFFFFFE000
01FFFFFFFFFFFFFFFFFFFFFFFFE000
03FFFFFFFFFFFFFFFFFFFFFFFFF000
07FFFFFFFFFFFFFFFFFFFFFFFFF800
0FFFFFFFFFFFFFFFFFFFFFFFFFFC00
0FFFFFFFFFFFFFFFFFFFFFFFFFFC00
1FFFFFFFFFFFFFFFFFFFFFFFFFFE00
1FFFFFFFFFFFFFFFFFFFFFFFFFFE00
3FFFFFFFFFFFFFFFFFFFFFFFFFFF00
3FFFFFFFFFFFFFFFFFFFFFFFFFFF00
3FFFFFFFFFFFFFFFFFFFFFFFFFFF00
7FFFFFFFFFFFFFFFFFFFFFFFFFFF80
7FFFFFFFFFFFFFFFFFFFFFFFFFFF80
7FFFFE00000000000000001FFFFF80
7FFFF8000000000000000007FFFF80
7FFFF8000000000000000007FFFF80
7FFFF8000000000000000007FFFF80
FFFFF8000000000000000007FFFF80
FFFFF8000000000000000007FFFFC0
FFFFF8000000000000000007FFFFC0
FFFFF8000000000000000007FFFFC0
FFFFF8000000000000000007FFFFC0
FFFFF8000000000000000007FFFFC0
FFFFF8000000000000000007FFFFC0
FFFFF8000000000000000007FFFFC0
FFFFF8000000000000000007FFFFC0
FFFFF8000000000000000007FFFFC0
FFFFF8000000000000000007FFFFC0
FFFFF8000000000000000007FFFFC0
FFFFF8000000000000000007FFFFC0
FFFFF8000000000000000007FFFFC0
FFFFF8000000000000000007FFFFC0
FFFFF8000000000000000007FFFFC0
FFFFF8000000000000000007FFFFC0
FFFFF8000000000000000007FFFFC0
FFFFF8000000000000000007FFFFC0
FFFFF8000000000000000007FFFFC0
FFFFF8000000000000000007FFFFC0
FFFFF8000000000000000007FFFFC0
FFFFF8000000000000000007FFFFC0
FFFFF8000000000000000007FFFFC0
FFFFF8000000000000000007FFFFC0
FFFFF8000000000000000007FFFFC0
FFFFF8000000000000000007FFFF80
FFFFF8000000000000000007FFFF80
FFFFF8000000000000000007FFFF80
FFFFF800000000000000000FFFFF80
FFFFF800000000000000000FFFFF80
FFFFF800000000000000001FFFFF80
FFFFF800000000000000007FFFFF80
FFFFF80000000000000000FFFFFF00
FFFFF80000000000000003FFFFFF00
FFFFF8000000000000000FFFFFFF00
FFFFF8000000000000003FFFFFFE00
FFFFF800000000000001FFFFFFFE00
FFFFF80000000000001FFFFFFFFC00
FFFFF8000000000001FFFFFFFFFC00
FFFFF800000000001FFFFFFFFFF800
FFFFF80000000003FFFFFFFFFFF000
FFFFF8000000003FFFFFFFFFFFE000
FFFFF80000000FFFFFFFFFFFFFE000
FFFFF8000001FFFFFFFFFFFFFFC000
FFFFF800003FFFFFFFFFFFFFFF8000
FFFFF80007FFFFFFFFFFFFFFFE0000
FFFFF800FFFFFFFFFFFFFFFFFC0000
FFFFF81FFFFFFFFFFFFFFFFFF80000
FFFFFBFFFFFFFFFFFFFFFFFFE00000
FFFFFFFFFFFFFFFFFFFFFFFFC00000
FFFFFFFFFFFFFFFFFFFFFFFF000000
FFFFFFFFFFFFFFFFFFFFFFFC000000
FFFFFFFFFFFFFFFFFFFFFFF0000000
FFFFFFFFFFFFFFFFFFFFFFF0000000
FFFFFFFFFFFFFFFFFFFFFFFC000000
FFFFFFFFFFFFFFFFFFFFFFFF000000
FFFFFFFFFFFFFFFFFFFFFFFFC00000
FFFFFFFFFFFFFFFFFFFFFFFFF00000
FFFFFFFFFFFFFFFFFFFFFFFFF80000
FFFFFFFFFFFFFFFFFFFFFFFFFC0000
FFFFFFFFFFFFFFFFFFFFFFFFFF0000
FFFFFFFFFFFFFFFFFFFFFFFFFF8000
FFFFFFFFFFFFFFFFFFFFFFFFFFC000
FFFFFFFFFFFFE3FFFFFFFFFFFFE000
FFFFFFFFFFFE001FFFFFFFFFFFF000
FFFFFFFFFFC00001FFFFFFFFFFF000
FFFFFFFFFC0000001FFFFFFFFFF800
FFFFFFFFC000000000FFFFFFFFFC00
FFFFFFF800000000000FFFFFFFFC00
FFFFFF80000000000001FFFFFFFE00
FFFFF8000000000000007FFFFFFE00
FFFFF8000000000000000FFFFFFF00
FFFFF80000000000000003FFFFFF00
FFFFF80000000000000000FFFFFF00
FFFFF800000000000000007FFFFF80
FFFFF800000000000000003FFFFF80
FFFFF800000000000000001FFFFF80
FFFFF800000000000000000FFFFF80
FFFFF8000000000000000007FFFF80
FFFFF8000000000000000007FFFF80
FFFFF8000000000000000007FFFF80
FFFFF8000000000000000007FFFF80
FFFFF8000000000000000007FFFFC0
FFFFF8000000000000000007FFFFC0
FFFFF8000000000000000007FFFFC0
FFFFF8000000000000000007FFFFC0
FFFFF8000000000000000007FFFFC0
FFFFF8000000000000000007FFFFC0
FFFFF8000000000000000007FFFFC0
FFFFF8000000000000000007FFFFC0
FFFFF8000000000000000007FFFFC0
FFFFF8000000000000000007FFFFC0
FFFFF8000000000000000007FFFFC0
FFFFF8000000000000000007FFFFC0
FFFFF8000000000000000007FFFFC0
FFFFF8000000000000000007FFFFC0
FFFFF8000000000000000007FFFFC0
FFFFF8000000000000000007FFFFC0
FFFFF8000000000000000007FFFFC0
FFFFF8000000000000000007FFFFC0
FFFFF8000000000000000007FFFFC0
FFFFF8000000000000000007FFFFC0
FFFFF8000000000000000007FFFFC0
FFFFF8000000000000000007FFFFC0
FFFFF8000000000000000007FFFFC0
FFFFF8000000000000000007FFFFC0
FFFFF8000000000000000007FFFFC0
FFFFF8000000000000000007FFFFC0
FFFFF8000000000000000007FFFFC0
FFFFF8000000000000000007FFFFC0
FFFFF8000000000000000007FFFFC0
FFFFF8000000000000000007FFFFC0
FFFFF8000000000000000007FFFFC0
FFFFF8000000000000000007FFFFC0
FFFFF8000000000000000007FFFFC0
FFFFF8000000000000000007FFFFC0
FFFFF8000000000000000007FFFFC0
FFFFF8000000000000000007FFFFC0
FFFFF8000000000000000007FFFFC0
FFFFF8000000000000000007FFFFC0
FFFFF8000000000000000007FFFFC0
FFFFF8000000000000000007FFFFC0
FFFFF8000000000000000007FFFFC0
FFFFF8000000000000000007FFFFC0
FFFFF8000000000000000007FFFFC0
FFFFF8000000000000000007FFFFC0
FFFFF8000000000000000007FFFFC0
FFFFF8000000000000000007FFFFC0
FFFFF8000000000000000007FFFFC0
ENDCHAR
STARTCHAR 0053
ENCODING 83
SWIDTH 672 0
DWIDTH 121 0
BBX 113 154 4 -5
BITMAP
00000FFFFFFFFFFFFFFFFFFFFFFF80
00007FFFFFFFFFFFFFFFFFFFFFFF80
0003FFFFFFFFFFFFFFFFFFFFFFFF80
000FFFFFFFFFFFFFFFFFFFFFFFFF80
001FFFFFFFFFFFFFFFFFFFFFFFFF80
003FFFFFFFFFFFFFFFFFFFFFFFFF80
00FFFFFFFFFFFFFFFFFFFFFFFFFF80
01FFFFFFFFFFFFFFFFFFFFFFFFFF80
01FFFFFFFFFFFFFFFFFFFFFFFFFF80
03FFFFFFFFFFFFFFFFFFFFFFFFFF80
07FFFFFFFFFFFFFFFFFFFFFFFFFF80
0FFFFFFFFFFFFFFFFFFFFFFFFFFF80
0FFFFFFFFFFFFFFFFFFFFFFFFFFF80
1FFFFFFFFFFFFFFFFFFFFFFFFFFF80
1FFFFFFFFFFFFFFFFFFFFFFFFFFF80
3FFFFFFFFFFFFFFFFFFFFFFFFFFF80
3FFFFFFFFFFFFFFFFFFFFFFFFFFF80
3FFFFFFFFFFFFFFFFFFFFFFFFFFF80
7FFFFFFFFFFFFFFFFFFFFFFFFFFF80
7FFFFFFFFFFFFFFFFFFFFFFFFFFF80
7FFFFE000000000000000000000000
7FFFF8000000000000000000000000
7FFFF8000000000000000000000000
7FFFF8000000000000000000000000
FFFFF8000000000000000000000000
FFFFF8000000000000000000000000
FFFFF8000000000000000000000000
FFFFF8000000000000000000000000
FFFFF8000000000000000000000000
FFFFF8000000000000000000000000
FFFFF8000000000000000000000000
FFFFF8000000000000000000000000
FFFFF8000000000000000000000000
FFFFF8000000000000000000000000
FFFFF8000000000000000000000000
FFFFF8000000000000000000000000
FFFFF8000000000000000000000000
FFFFF8000000000000000000000000
FFFFF8000000000000000000000000
FFFFF8000000000000000000000000
FFFFF8000000000000000000000000
FFFFF8000000000000000000000000
FFFFF8000000000000000000000000
FFFFF8000000000000000000000000
FFFFF8000000000000000000000000
FFFFF8000000000000000000000000
FFFFF8000000000000000000000000
FFFFF8000000000000000000000000
FFFFF8000000000000000000000000
FFFFF8000000000000000000000000
FFFFF8000000000000000000000000
7FFFF8000000000000000000000000
7FFFF8000000000000000000000000
7FFFFC000000000000000000000000
7FFFFC000000000000000000000000
7FFFFE000000000000000000000000
7FFFFF800000000000000000000000
7FFFFFC00000000000000000000000
3FFFFFF00000000000000000000000
3FFFFFFC0000000000000000000000
3FFFFFFF0000000000000000000000
1FFFFFFFE000000000000000000000
1FFFFFFFFE00000000000000000000
0FFFFFFFFFC0000000000000000000
0FFFFFFFFFFE000000000000000000
07FFFFFFFFFFE00000000000000000
03FFFFFFFFFFFE0000000000000000
01FFFFFFFFFFFFE000000000000000
01FFFFFFFFFFFFFE00000000000000
00FFFFFFFFFFFFFFF0000000000000
007FFFFFFFFFFFFFFF000000000000
001FFFFFFFFFFFFFFFF00000000000
000FFFFFFFFFFFFFFFFF0000000000
0007FFFFFFFFFFFFFFFFF800000000
0001FFFFFFFFFFFFFFFFFF00000000
0000FFFFFFFFFFFFFFFFFFC0000000
00003FFFFFFFFFFFFFFFFFF0000000
00000FFFFFFFFFFFFFFFFFFC000000
000003FFFFFFFFFFFFFFFFFF000000
000000FFFFFFFFFFFFFFFFFFC00000
0000001FFFFFFFFFFFFFFFFFE00000
00000001FFFFFFFFFFFFFFFFF80000
000000001FFFFFFFFFFFFFFFFC0000
0000000000FFFFFFFFFFFFFFFE0000
00000000000FFFFFFFFFFFFFFF0000
000000000000FFFFFFFFFFFFFF8000
0000000000000FFFFFFFFFFFFFC000
000000000000007FFFFFFFFFFFE000
0000000000000007FFFFFFFFFFF000
00000000000000007FFFFFFFFFF000
000000000000000003FFFFFFFFF800
0000000000000000003FFFFFFFF800
00000000000000000007FFFFFFFC00
00000000000000000000FFFFFFFC00
000000000000000000001FFFFFFE00
0000000000000000000007FFFFFE00
0000000000000000000001FFFFFE00
0000000000000000000000FFFFFF00
00000000000000000000007FFFFF00
00000000000000000000003FFFFF00
00000000000000000000001FFFFF00
00000000000000000000000FFFFF00
00000000000000000000000FFFFF00
00000000000000000000000FFFFF00
00000000000000000000000FFFFF80
00000000000000000000000FFFFF80
00000000000000000000000FFFFF80
00000000000000000000000FFFFF80
00000000000000000000000FFFFF80
00000000000000000000000FFFFF80
00000000000000000000000FFFFF80
00000000000000000000000FFFFF80
00000000000000000000000FFFFF80
00000000000000000000000FFFFF80
00000000000000000000000FFFFF80
00000000000000000000000FFFFF80
00000000000000000000000FFFFF80
00000000000000000000000FFFFF80
00000000000000000000000FFFFF80
00000000000000000000000FFFFF80
00000000000000000000000FFFFF80
00000000000000000000000FFFFF80
00000000000000000000000FFFFF80
00000000000000000000000FFFFF80
00000000000000000000000FFFFF80
00000000000000000000000FFFFF80
00000000000000000000000FFFFF80
00000000000000000000000FFFFF80
00000000000000000000000FFFFF80
00000000000000000000000FFFFF00
00000000000000000000000FFFFF00
00000000000000000000000FFFFF00
00000000000000000000000FFFFF00
00000000000000000000003FFFFF00
FFFFFFFFFFFFFFFFFFFFFFFFFFFF00
FFFFFFFFFFFFFFFFFFFFFFFFFFFF00
FFFFFFFFFFFFFFFFFFFFFFFFFFFE00
FFFFFFFFFFFFFFFFFFFFFFFFFFFE00
FFFFFFFFFFFFFFFFFFFFFFFFFFFE00
FFFFFFFFFFFFFFFFFFFFFFFFFFFC00
FFFFFFFFFFFFFFFFFFFFFFFFFFFC00
FFFFFFFFFFFFFFFFFFFFFFFFFFF800
FFFFFFFFFFFFFFFFFFFFFFFFFFF800
FFFFFFFFFFFFFFFFFFFFFFFFFFF000
FFFFFFFFFFFFFFFFFFFFFFFFFFE000
FFFFFFFFFFFFFFFFFFFFFFFFFFE000
FFFFFFFFFFFFFFFFFFFFFFFFFFC000
FFFFFFFFFFFFFFFFFFFFFFFFFF8000
FFFFFFFFFFFFFFFFFFFFFFFFFF0000
FFFFFFFFFFFFFFFFFFFFFFFFFC0000
FFFFFFFFFFFFFFFFFFFFFFFFF80000
FFFFFFFFFFFFFFFFFFFFFFFFE00000
FFFFFFFFFFFFFFFFFFFFFFFF800000
FFFFFFFFFFFFFFFFFFFFFFF8000000
ENDCHAR
STARTCHAR 0054
ENCODING 84
SWIDTH 683 0
DWIDTH 123 0
BBX 115 154 4 -5
BITMAP
FFFFFFFFFFFFFFFFFFFFFFFFFFFFE0
FFFFFFFFFFFFFFFFFFFFFFFFFFFFE0
FFFFFFFFFFFFFFFFFFFFFFFFFFFFE0
FFFFFFFFFFFFFFFFFFFFFFFFFFFFE0
FFFFFFFFFFFFFFFFFFFFFFFFFFFFE0
FFFFFFFFFFFFFFFFFFFFFFFFFFFFE0
FFFFFFFFFFFFFFFFFFFFFFFFFFFFE0
FFFFFFFFFFFFFFFFFFFFFFFFFFFFE0
FFFFFFFFFFFFFFFFFFFFFFFFFFFFE0
FFFFFFFFFFFFFFFFFFFFFFFFFFFFE0
FFFFFFFFFFFFFFFFFFFFFFFFFFFFE0
FFFFFFFFFFFFFFFFFFFFFFFFFFFFE0
FFFFFFFFFFFFFFFFFFFFFFFFFFFFE0
FFFFFFFFFFFFFFFFFFFFFFFFFFFFE0
FFFFFFFFFFFFFFFFFFFFFFFFFFFFE0
FFFFFFFFFFFFFFFFFFFFFFFFFFFFE0
FFFFFFFFFFFFFFFFFFFFFFFFFFFFE0
FFFFFFFFFFFFFFFFFFFFFFFFFFFFE0
FFFFFFFFFFFFFFFFFFFFFFFFFFFFE0
FFFFFFFFFFFFFFFFFFFFFFFFFFFFE0
000000000000FFFFF8000000000000
000000000000FFFFF8000000000000
000000000000FFFFF8000000000000
000000000000FFFFF8000000000000
000000000000FFFFF8000000000000
000000000000FFFFF8000000000000
000000000000FFFFF8000000000000
000000000000FFFFF8000000000000
000000000000FFFFF8000000000000
000000000000FFFFF8000000000000
000000000000FFFFF8000000000000
000000000000FFFFF8000000000000
000000000000FFFFF8000000000000
000000000000FFFFF8000000000000
000000000000FFFFF8000000000000
000000000000FFFFF8000000000000
000000000000FFFFF8000000000000
000000000000FFFFF8000000000000
000000000000FFFFF8000000000000
000000000000FFFFF8000000000000
000000000000FFFFF8000000000000
000000000000FFFFF8000000000000
000000000000FFFFF8000000000000
000000000000FFFFF8000000000000
000000000000FFFFF8000000000000
000000000000FFFFF8000000000000
000000000000FFFFF8000000000000
000000000000FFFFF8000000000000
000000000000FFFFF8000000000000
000000000000FFFFF8000000000000
000000000000FFFFF8000000000000
000000000000FFFFF8000000000000
000000000000FFFFF8000000000000
000000000000FFFFF8000000000000
000000000000FFFFF8000000000000
000000000000FFFFF8000000000000
000000000000FFFFF8000000000000
000000000000FFFFF8000000000000
000000000000FFFFF8000000000000
000000000000FFFFF8000000000000
000000000000FFFFF8000000000000
000000000000FFFFF8000000000000
000000000000FFFFF8000000000000
000000000000FFFFF8000000000000
000000000000FFFFF8000000000000
000000000000FFFFF8000000000000
000000000000FFFFF8000000000000
000000000000FFFFF8000000000000
000000000000FFFFF8000000000000
000000000000FFFFF8000000000000
000000000000FFFFF8000000000000
000000000000FFFFF8000000000000
000000000000FFFFF8000000000000
000000000000FFFFF8000000000000
000000000000FFFFF8000000000000
000000000000FFFFF8000000000000
000000000000FFFFF8000000000000
000000000000FFFFF8000000000000
000000000000FFFFF8000000000000
000000000000FFFFF8000000000000
000000000000FFFFF8000000000000
000000000000FFFFF8000000000000
000000000000FFFFF8000000000000
000000000000FFFFF8000000000000
000000000000FFFFF8000000000000
000000000000FFFFF8000000000000
000000000000FFFFF8000000000000
000000000000FFFFF8000000000000
000000000000FFFFF8000000000000
000000000000FFFFF8000000000000
000000000000FFFFF8000000000000
000000000000FFFFF8000000000000
000000000000FFFFF8000000000000
000000000000FFFFF8000000000000
000000000000FFFFF8000000000000
000000000000FFFFF8000000000000
000000000000FFFFF8000000000000
000000000000FFFFF8000000000000
000000000000FFFFF8000000000000
000000000000FFFFF8000000000000
000000000000FFFFF8000000000000
000000000000FFFFF8000000000000
000000000000FFFFF8000000000000
000000000000FFFFF8000000000000
000000000000FFFFF8000000000000
000000000000FFFFF8000000000000
000000000000FFFFF8000000000000
000000000000FFFFF8000000000000
000000000000FFFFF8000000000000
000000000000FFFFF8000000000000
000000000000FFFFF8000000000000
000000000000FFFFF8000000000000
000000000000FFFFF8000000000000
000000000000FFFFF8000000000000
000000000000FFFFF8000000000000
000000000000FFFFF8000000000000
000000000000FFFFF8000000000000
000000000000FFFFF8000000000000
000000000000FFFFF8000000000000
000000000000FFFFF8000000000000
000000000000FFFFF8000000000000
000000000000FFFFF8000000000000
000000000000FFFFF8000000000000
000000000000FFFFF8000000000000
000000000000FFFFF8000000000000
000000000000FFFFF8000000000000
000000000000FFFFF8000000000000
000000000000FFFFF8000000000000
000000000000FFFFF8000000000000
000000000000FFFFF8000000000000
000000000000FFFFF8000000000000
000000000000FFFFF8000000000000
000000000000FFFFF8000000000000
000000000000FFFFF8000000000000
000000000000FFFFF8000000000000
000000000000FFFFF8000000000000
000000000000FFFFF8000000000000
000000000000FFFFF8000000000000
000000000000FFFFF8000000000000
000000000000FFFFF8000000000000
000000000000FFFFF8000000000000
000000000000FFFFF8000000000000
000000000000FFFFF8000000000000
000000000000FFFFF8000000000000
000000000000FFFFF8000000000000
000000000000FFFFF8000000000000
000000000000FFFFF8000000000000
000000000000FFFFF8000000000000
000000000000FFFFF8000000000000
000000000000FFFFF8000000000000
000000000000FFFFF8000000000000
000000000000FFFFF8000000000000
000000000000FFFFF8000000000000
000000000000FFFFF8000000000000
ENDCHAR
ENDFONT
